<?xml version="1.0" encoding="utf-8" standalone="no"?>
<!DOCTYPE svg PUBLIC "-//W3C//DTD SVG 1.1//EN"
  "http://www.w3.org/Graphics/SVG/1.1/DTD/svg11.dtd">
<svg xmlns:xlink="http://www.w3.org/1999/xlink" width="792pt" height="432pt" viewBox="0 0 792 432" xmlns="http://www.w3.org/2000/svg" version="1.1">
 <metadata>
  <rdf:RDF xmlns:dc="http://purl.org/dc/elements/1.1/" xmlns:cc="http://creativecommons.org/ns#" xmlns:rdf="http://www.w3.org/1999/02/22-rdf-syntax-ns#">
   <cc:Work>
    <dc:type rdf:resource="http://purl.org/dc/dcmitype/StillImage"/>
    <dc:date>2026-02-12T21:08:21.581610</dc:date>
    <dc:format>image/svg+xml</dc:format>
    <dc:creator>
     <cc:Agent>
      <dc:title>Matplotlib v3.8.1, https://matplotlib.org/</dc:title>
     </cc:Agent>
    </dc:creator>
   </cc:Work>
  </rdf:RDF>
 </metadata>
 <defs>
  <style type="text/css">*{stroke-linejoin: round; stroke-linecap: butt}</style>
 </defs>
 <g id="figure_1">
  <g id="patch_1">
   <path d="M 0 432 
L 792 432 
L 792 0 
L 0 0 
z
" style="fill: #ffffff"/>
  </g>
  <g id="axes_1">
   <g id="patch_2">
    <path d="M 88.938152 252.128467 
L 776.27476 252.128467 
L 776.27476 18.878209 
L 88.938152 18.878209 
z
" style="fill: #ffffff"/>
   </g>
   <g id="patch_3">
    <path d="M 88.938152 252.128467 
L 88.938152 18.878209 
L 92.374835 18.878209 
L 92.374835 252.128467 
z
" clip-path="url(#p9557dc5fba)" style="fill: #d0f0c0; opacity: 0.5; stroke: #d0f0c0; stroke-linejoin: miter"/>
   </g>
   <g id="matplotlib.axis_1">
    <g id="xtick_1">
     <g id="line2d_1">
      <defs>
       <path id="m5d75a04491" d="M 0 0 
L 0 3.5 
" style="stroke: #000000; stroke-width: 0.8"/>
      </defs>
      <g>
       <use xlink:href="#m5d75a04491" x="88.938152" y="252.128467" style="stroke: #000000; stroke-width: 0.8"/>
      </g>
     </g>
     <g id="text_1">
      <!-- 0 -->
      <g transform="translate(85.756902 266.726904) scale(0.1 -0.1)">
       <defs>
        <path id="DejaVuSans-30" d="M 2034 4250 
Q 1547 4250 1301 3770 
Q 1056 3291 1056 2328 
Q 1056 1369 1301 889 
Q 1547 409 2034 409 
Q 2525 409 2770 889 
Q 3016 1369 3016 2328 
Q 3016 3291 2770 3770 
Q 2525 4250 2034 4250 
z
M 2034 4750 
Q 2819 4750 3233 4129 
Q 3647 3509 3647 2328 
Q 3647 1150 3233 529 
Q 2819 -91 2034 -91 
Q 1250 -91 836 529 
Q 422 1150 422 2328 
Q 422 3509 836 4129 
Q 1250 4750 2034 4750 
z
" transform="scale(0.015625)"/>
       </defs>
       <use xlink:href="#DejaVuSans-30"/>
      </g>
     </g>
    </g>
    <g id="xtick_2">
     <g id="line2d_2">
      <g>
       <use xlink:href="#m5d75a04491" x="203.494253" y="252.128467" style="stroke: #000000; stroke-width: 0.8"/>
      </g>
     </g>
     <g id="text_2">
      <!-- 500 -->
      <g transform="translate(193.950503 266.726904) scale(0.1 -0.1)">
       <defs>
        <path id="DejaVuSans-35" d="M 691 4666 
L 3169 4666 
L 3169 4134 
L 1269 4134 
L 1269 2991 
Q 1406 3038 1543 3061 
Q 1681 3084 1819 3084 
Q 2600 3084 3056 2656 
Q 3513 2228 3513 1497 
Q 3513 744 3044 326 
Q 2575 -91 1722 -91 
Q 1428 -91 1123 -41 
Q 819 9 494 109 
L 494 744 
Q 775 591 1075 516 
Q 1375 441 1709 441 
Q 2250 441 2565 725 
Q 2881 1009 2881 1497 
Q 2881 1984 2565 2268 
Q 2250 2553 1709 2553 
Q 1456 2553 1204 2497 
Q 953 2441 691 2322 
L 691 4666 
z
" transform="scale(0.015625)"/>
       </defs>
       <use xlink:href="#DejaVuSans-35"/>
       <use xlink:href="#DejaVuSans-30" x="63.623047"/>
       <use xlink:href="#DejaVuSans-30" x="127.246094"/>
      </g>
     </g>
    </g>
    <g id="xtick_3">
     <g id="line2d_3">
      <g>
       <use xlink:href="#m5d75a04491" x="318.050355" y="252.128467" style="stroke: #000000; stroke-width: 0.8"/>
      </g>
     </g>
     <g id="text_3">
      <!-- 1000 -->
      <g transform="translate(305.325355 266.726904) scale(0.1 -0.1)">
       <defs>
        <path id="DejaVuSans-31" d="M 794 531 
L 1825 531 
L 1825 4091 
L 703 3866 
L 703 4441 
L 1819 4666 
L 2450 4666 
L 2450 531 
L 3481 531 
L 3481 0 
L 794 0 
L 794 531 
z
" transform="scale(0.015625)"/>
       </defs>
       <use xlink:href="#DejaVuSans-31"/>
       <use xlink:href="#DejaVuSans-30" x="63.623047"/>
       <use xlink:href="#DejaVuSans-30" x="127.246094"/>
       <use xlink:href="#DejaVuSans-30" x="190.869141"/>
      </g>
     </g>
    </g>
    <g id="xtick_4">
     <g id="line2d_4">
      <g>
       <use xlink:href="#m5d75a04491" x="432.606456" y="252.128467" style="stroke: #000000; stroke-width: 0.8"/>
      </g>
     </g>
     <g id="text_4">
      <!-- 1500 -->
      <g transform="translate(419.881456 266.726904) scale(0.1 -0.1)">
       <use xlink:href="#DejaVuSans-31"/>
       <use xlink:href="#DejaVuSans-35" x="63.623047"/>
       <use xlink:href="#DejaVuSans-30" x="127.246094"/>
       <use xlink:href="#DejaVuSans-30" x="190.869141"/>
      </g>
     </g>
    </g>
    <g id="xtick_5">
     <g id="line2d_5">
      <g>
       <use xlink:href="#m5d75a04491" x="547.162557" y="252.128467" style="stroke: #000000; stroke-width: 0.8"/>
      </g>
     </g>
     <g id="text_5">
      <!-- 2000 -->
      <g transform="translate(534.437557 266.726904) scale(0.1 -0.1)">
       <defs>
        <path id="DejaVuSans-32" d="M 1228 531 
L 3431 531 
L 3431 0 
L 469 0 
L 469 531 
Q 828 903 1448 1529 
Q 2069 2156 2228 2338 
Q 2531 2678 2651 2914 
Q 2772 3150 2772 3378 
Q 2772 3750 2511 3984 
Q 2250 4219 1831 4219 
Q 1534 4219 1204 4116 
Q 875 4013 500 3803 
L 500 4441 
Q 881 4594 1212 4672 
Q 1544 4750 1819 4750 
Q 2544 4750 2975 4387 
Q 3406 4025 3406 3419 
Q 3406 3131 3298 2873 
Q 3191 2616 2906 2266 
Q 2828 2175 2409 1742 
Q 1991 1309 1228 531 
z
" transform="scale(0.015625)"/>
       </defs>
       <use xlink:href="#DejaVuSans-32"/>
       <use xlink:href="#DejaVuSans-30" x="63.623047"/>
       <use xlink:href="#DejaVuSans-30" x="127.246094"/>
       <use xlink:href="#DejaVuSans-30" x="190.869141"/>
      </g>
     </g>
    </g>
    <g id="xtick_6">
     <g id="line2d_6">
      <g>
       <use xlink:href="#m5d75a04491" x="661.718659" y="252.128467" style="stroke: #000000; stroke-width: 0.8"/>
      </g>
     </g>
     <g id="text_6">
      <!-- 2500 -->
      <g transform="translate(648.993659 266.726904) scale(0.1 -0.1)">
       <use xlink:href="#DejaVuSans-32"/>
       <use xlink:href="#DejaVuSans-35" x="63.623047"/>
       <use xlink:href="#DejaVuSans-30" x="127.246094"/>
       <use xlink:href="#DejaVuSans-30" x="190.869141"/>
      </g>
     </g>
    </g>
    <g id="xtick_7">
     <g id="line2d_7">
      <g>
       <use xlink:href="#m5d75a04491" x="776.27476" y="252.128467" style="stroke: #000000; stroke-width: 0.8"/>
      </g>
     </g>
     <g id="text_7">
      <!-- 3000 -->
      <g transform="translate(763.54976 266.726904) scale(0.1 -0.1)">
       <defs>
        <path id="DejaVuSans-33" d="M 2597 2516 
Q 3050 2419 3304 2112 
Q 3559 1806 3559 1356 
Q 3559 666 3084 287 
Q 2609 -91 1734 -91 
Q 1441 -91 1130 -33 
Q 819 25 488 141 
L 488 750 
Q 750 597 1062 519 
Q 1375 441 1716 441 
Q 2309 441 2620 675 
Q 2931 909 2931 1356 
Q 2931 1769 2642 2001 
Q 2353 2234 1838 2234 
L 1294 2234 
L 1294 2753 
L 1863 2753 
Q 2328 2753 2575 2939 
Q 2822 3125 2822 3475 
Q 2822 3834 2567 4026 
Q 2313 4219 1838 4219 
Q 1578 4219 1281 4162 
Q 984 4106 628 3988 
L 628 4550 
Q 988 4650 1302 4700 
Q 1616 4750 1894 4750 
Q 2613 4750 3031 4423 
Q 3450 4097 3450 3541 
Q 3450 3153 3228 2886 
Q 3006 2619 2597 2516 
z
" transform="scale(0.015625)"/>
       </defs>
       <use xlink:href="#DejaVuSans-33"/>
       <use xlink:href="#DejaVuSans-30" x="63.623047"/>
       <use xlink:href="#DejaVuSans-30" x="127.246094"/>
       <use xlink:href="#DejaVuSans-30" x="190.869141"/>
      </g>
     </g>
    </g>
   </g>
   <g id="matplotlib.axis_2">
    <g id="ytick_1">
     <g id="line2d_8">
      <defs>
       <path id="m0f41bb9629" d="M 0 0 
L -3.5 0 
" style="stroke: #000000; stroke-width: 0.8"/>
      </defs>
      <g>
       <use xlink:href="#m0f41bb9629" x="88.938152" y="230.123725" style="stroke: #000000; stroke-width: 0.8"/>
      </g>
     </g>
     <g id="text_8">
      <!-- 0.6 -->
      <g transform="translate(66.035027 233.922944) scale(0.1 -0.1)">
       <defs>
        <path id="DejaVuSans-2e" d="M 684 794 
L 1344 794 
L 1344 0 
L 684 0 
L 684 794 
z
" transform="scale(0.015625)"/>
        <path id="DejaVuSans-36" d="M 2113 2584 
Q 1688 2584 1439 2293 
Q 1191 2003 1191 1497 
Q 1191 994 1439 701 
Q 1688 409 2113 409 
Q 2538 409 2786 701 
Q 3034 994 3034 1497 
Q 3034 2003 2786 2293 
Q 2538 2584 2113 2584 
z
M 3366 4563 
L 3366 3988 
Q 3128 4100 2886 4159 
Q 2644 4219 2406 4219 
Q 1781 4219 1451 3797 
Q 1122 3375 1075 2522 
Q 1259 2794 1537 2939 
Q 1816 3084 2150 3084 
Q 2853 3084 3261 2657 
Q 3669 2231 3669 1497 
Q 3669 778 3244 343 
Q 2819 -91 2113 -91 
Q 1303 -91 875 529 
Q 447 1150 447 2328 
Q 447 3434 972 4092 
Q 1497 4750 2381 4750 
Q 2619 4750 2861 4703 
Q 3103 4656 3366 4563 
z
" transform="scale(0.015625)"/>
       </defs>
       <use xlink:href="#DejaVuSans-30"/>
       <use xlink:href="#DejaVuSans-2e" x="63.623047"/>
       <use xlink:href="#DejaVuSans-36" x="95.410156"/>
      </g>
     </g>
    </g>
    <g id="ytick_2">
     <g id="line2d_9">
      <g>
       <use xlink:href="#m0f41bb9629" x="88.938152" y="186.114243" style="stroke: #000000; stroke-width: 0.8"/>
      </g>
     </g>
     <g id="text_9">
      <!-- 0.7 -->
      <g transform="translate(66.035027 189.913462) scale(0.1 -0.1)">
       <defs>
        <path id="DejaVuSans-37" d="M 525 4666 
L 3525 4666 
L 3525 4397 
L 1831 0 
L 1172 0 
L 2766 4134 
L 525 4134 
L 525 4666 
z
" transform="scale(0.015625)"/>
       </defs>
       <use xlink:href="#DejaVuSans-30"/>
       <use xlink:href="#DejaVuSans-2e" x="63.623047"/>
       <use xlink:href="#DejaVuSans-37" x="95.410156"/>
      </g>
     </g>
    </g>
    <g id="ytick_3">
     <g id="line2d_10">
      <g>
       <use xlink:href="#m0f41bb9629" x="88.938152" y="142.10476" style="stroke: #000000; stroke-width: 0.8"/>
      </g>
     </g>
     <g id="text_10">
      <!-- 0.8 -->
      <g transform="translate(66.035027 145.903979) scale(0.1 -0.1)">
       <defs>
        <path id="DejaVuSans-38" d="M 2034 2216 
Q 1584 2216 1326 1975 
Q 1069 1734 1069 1313 
Q 1069 891 1326 650 
Q 1584 409 2034 409 
Q 2484 409 2743 651 
Q 3003 894 3003 1313 
Q 3003 1734 2745 1975 
Q 2488 2216 2034 2216 
z
M 1403 2484 
Q 997 2584 770 2862 
Q 544 3141 544 3541 
Q 544 4100 942 4425 
Q 1341 4750 2034 4750 
Q 2731 4750 3128 4425 
Q 3525 4100 3525 3541 
Q 3525 3141 3298 2862 
Q 3072 2584 2669 2484 
Q 3125 2378 3379 2068 
Q 3634 1759 3634 1313 
Q 3634 634 3220 271 
Q 2806 -91 2034 -91 
Q 1263 -91 848 271 
Q 434 634 434 1313 
Q 434 1759 690 2068 
Q 947 2378 1403 2484 
z
M 1172 3481 
Q 1172 3119 1398 2916 
Q 1625 2713 2034 2713 
Q 2441 2713 2670 2916 
Q 2900 3119 2900 3481 
Q 2900 3844 2670 4047 
Q 2441 4250 2034 4250 
Q 1625 4250 1398 4047 
Q 1172 3844 1172 3481 
z
" transform="scale(0.015625)"/>
       </defs>
       <use xlink:href="#DejaVuSans-30"/>
       <use xlink:href="#DejaVuSans-2e" x="63.623047"/>
       <use xlink:href="#DejaVuSans-38" x="95.410156"/>
      </g>
     </g>
    </g>
    <g id="ytick_4">
     <g id="line2d_11">
      <g>
       <use xlink:href="#m0f41bb9629" x="88.938152" y="98.095277" style="stroke: #000000; stroke-width: 0.8"/>
      </g>
     </g>
     <g id="text_11">
      <!-- 0.9 -->
      <g transform="translate(66.035027 101.894496) scale(0.1 -0.1)">
       <defs>
        <path id="DejaVuSans-39" d="M 703 97 
L 703 672 
Q 941 559 1184 500 
Q 1428 441 1663 441 
Q 2288 441 2617 861 
Q 2947 1281 2994 2138 
Q 2813 1869 2534 1725 
Q 2256 1581 1919 1581 
Q 1219 1581 811 2004 
Q 403 2428 403 3163 
Q 403 3881 828 4315 
Q 1253 4750 1959 4750 
Q 2769 4750 3195 4129 
Q 3622 3509 3622 2328 
Q 3622 1225 3098 567 
Q 2575 -91 1691 -91 
Q 1453 -91 1209 -44 
Q 966 3 703 97 
z
M 1959 2075 
Q 2384 2075 2632 2365 
Q 2881 2656 2881 3163 
Q 2881 3666 2632 3958 
Q 2384 4250 1959 4250 
Q 1534 4250 1286 3958 
Q 1038 3666 1038 3163 
Q 1038 2656 1286 2365 
Q 1534 2075 1959 2075 
z
" transform="scale(0.015625)"/>
       </defs>
       <use xlink:href="#DejaVuSans-30"/>
       <use xlink:href="#DejaVuSans-2e" x="63.623047"/>
       <use xlink:href="#DejaVuSans-39" x="95.410156"/>
      </g>
     </g>
    </g>
    <g id="ytick_5">
     <g id="line2d_12">
      <g>
       <use xlink:href="#m0f41bb9629" x="88.938152" y="54.085795" style="stroke: #000000; stroke-width: 0.8"/>
      </g>
     </g>
     <g id="text_12">
      <!-- 1.0 -->
      <g transform="translate(66.035027 57.885014) scale(0.1 -0.1)">
       <use xlink:href="#DejaVuSans-31"/>
       <use xlink:href="#DejaVuSans-2e" x="63.623047"/>
       <use xlink:href="#DejaVuSans-30" x="95.410156"/>
      </g>
     </g>
    </g>
    <g id="text_13">
     <!-- SOH -->
     <g transform="translate(59.539402 148.547713) rotate(-90) scale(0.12 -0.12)">
      <defs>
       <path id="DejaVuSans-53" d="M 3425 4513 
L 3425 3897 
Q 3066 4069 2747 4153 
Q 2428 4238 2131 4238 
Q 1616 4238 1336 4038 
Q 1056 3838 1056 3469 
Q 1056 3159 1242 3001 
Q 1428 2844 1947 2747 
L 2328 2669 
Q 3034 2534 3370 2195 
Q 3706 1856 3706 1288 
Q 3706 609 3251 259 
Q 2797 -91 1919 -91 
Q 1588 -91 1214 -16 
Q 841 59 441 206 
L 441 856 
Q 825 641 1194 531 
Q 1563 422 1919 422 
Q 2459 422 2753 634 
Q 3047 847 3047 1241 
Q 3047 1584 2836 1778 
Q 2625 1972 2144 2069 
L 1759 2144 
Q 1053 2284 737 2584 
Q 422 2884 422 3419 
Q 422 4038 858 4394 
Q 1294 4750 2059 4750 
Q 2388 4750 2728 4690 
Q 3069 4631 3425 4513 
z
" transform="scale(0.015625)"/>
       <path id="DejaVuSans-4f" d="M 2522 4238 
Q 1834 4238 1429 3725 
Q 1025 3213 1025 2328 
Q 1025 1447 1429 934 
Q 1834 422 2522 422 
Q 3209 422 3611 934 
Q 4013 1447 4013 2328 
Q 4013 3213 3611 3725 
Q 3209 4238 2522 4238 
z
M 2522 4750 
Q 3503 4750 4090 4092 
Q 4678 3434 4678 2328 
Q 4678 1225 4090 567 
Q 3503 -91 2522 -91 
Q 1538 -91 948 565 
Q 359 1222 359 2328 
Q 359 3434 948 4092 
Q 1538 4750 2522 4750 
z
" transform="scale(0.015625)"/>
       <path id="DejaVuSans-48" d="M 628 4666 
L 1259 4666 
L 1259 2753 
L 3553 2753 
L 3553 4666 
L 4184 4666 
L 4184 0 
L 3553 0 
L 3553 2222 
L 1259 2222 
L 1259 0 
L 628 0 
L 628 4666 
z
" transform="scale(0.015625)"/>
      </defs>
      <use xlink:href="#DejaVuSans-53"/>
      <use xlink:href="#DejaVuSans-4f" x="63.476562"/>
      <use xlink:href="#DejaVuSans-48" x="142.1875"/>
     </g>
    </g>
   </g>
   <g id="line2d_13">
    <path d="M 88.938152 54.085795 
L 113.461332 62.207869 
L 126.983459 66.929924 
L 138.442889 71.163824 
L 148.985565 75.293888 
L 159.069863 79.485167 
L 168.695784 83.724505 
L 178.321706 88.207916 
L 187.947627 92.939321 
L 197.802736 98.037051 
L 207.887035 103.507762 
L 218.42971 109.48125 
L 229.88914 116.233081 
L 242.95289 124.196501 
L 259.683658 134.673281 
L 298.416531 159.021033 
L 311.70947 167.049407 
L 323.1689 173.715683 
L 333.711576 179.597703 
L 343.795874 184.972406 
L 353.650984 189.971148 
L 363.276905 194.603761 
L 372.902826 198.989108 
L 382.757936 203.22972 
L 392.842234 207.323139 
L 403.38491 211.361862 
L 414.84434 215.512733 
L 428.137278 220.085835 
L 446.930743 226.291436 
L 473.516621 235.08946 
L 486.80956 239.732308 
L 498.26899 243.964881 
L 508.811665 248.093503 
L 518.895963 252.28325 
L 528.521885 256.521032 
L 538.147806 261.002838 
L 547.773727 265.732634 
L 557.628837 270.828762 
L 564.046117 274.133208 
L 776.27476 274.133208 
L 776.27476 274.133208 
" clip-path="url(#p9557dc5fba)" style="fill: none; stroke: #000000; stroke-width: 2.5; stroke-linecap: square"/>
   </g>
   <g id="line2d_14">
    <path d="M 88.938152 142.10476 
L 776.27476 142.10476 
" clip-path="url(#p9557dc5fba)" style="fill: none; stroke-dasharray: 6.66,2.88; stroke-dashoffset: 0; stroke: #ff0000; stroke-width: 1.8"/>
   </g>
   <g id="line2d_15">
    <path d="M 592.984998 252.128467 
L 592.984998 18.878209 
" clip-path="url(#p9557dc5fba)" style="fill: none; stroke-dasharray: 6.66,2.88; stroke-dashoffset: 0; stroke: #ff0000; stroke-width: 1.8"/>
   </g>
   <g id="patch_4">
    <path d="M 88.938152 252.128467 
L 88.938152 18.878209 
" style="fill: none; stroke: #000000; stroke-width: 0.8; stroke-linejoin: miter; stroke-linecap: square"/>
   </g>
   <g id="patch_5">
    <path d="M 776.27476 252.128467 
L 776.27476 18.878209 
" style="fill: none; stroke: #000000; stroke-width: 0.8; stroke-linejoin: miter; stroke-linecap: square"/>
   </g>
   <g id="patch_6">
    <path d="M 88.938152 252.128467 
L 776.27476 252.128467 
" style="fill: none; stroke: #000000; stroke-width: 0.8; stroke-linejoin: miter; stroke-linecap: square"/>
   </g>
   <g id="patch_7">
    <path d="M 88.938152 18.878209 
L 776.27476 18.878209 
" style="fill: none; stroke: #000000; stroke-width: 0.8; stroke-linejoin: miter; stroke-linecap: square"/>
   </g>
   <g id="text_14">
    <g id="patch_8">
     <path d="M 3.000243 43.08295 
L 178.312743 43.08295 
Q 180.512743 43.08295 180.512743 40.88295 
L 180.512743 30.237013 
Q 180.512743 28.037013 178.312743 28.037013 
L 3.000243 28.037013 
Q 0.800243 28.037013 0.800243 30.237013 
L 0.800243 40.88295 
Q 0.800243 43.08295 3.000243 43.08295 
z
" style="fill: #ffffff"/>
    </g>
    <!-- Early-life region (first 15 cycles) -->
    <g transform="translate(3.000243 38.595294) scale(0.11 -0.11)">
     <defs>
      <path id="DejaVuSans-45" d="M 628 4666 
L 3578 4666 
L 3578 4134 
L 1259 4134 
L 1259 2753 
L 3481 2753 
L 3481 2222 
L 1259 2222 
L 1259 531 
L 3634 531 
L 3634 0 
L 628 0 
L 628 4666 
z
" transform="scale(0.015625)"/>
      <path id="DejaVuSans-61" d="M 2194 1759 
Q 1497 1759 1228 1600 
Q 959 1441 959 1056 
Q 959 750 1161 570 
Q 1363 391 1709 391 
Q 2188 391 2477 730 
Q 2766 1069 2766 1631 
L 2766 1759 
L 2194 1759 
z
M 3341 1997 
L 3341 0 
L 2766 0 
L 2766 531 
Q 2569 213 2275 61 
Q 1981 -91 1556 -91 
Q 1019 -91 701 211 
Q 384 513 384 1019 
Q 384 1609 779 1909 
Q 1175 2209 1959 2209 
L 2766 2209 
L 2766 2266 
Q 2766 2663 2505 2880 
Q 2244 3097 1772 3097 
Q 1472 3097 1187 3025 
Q 903 2953 641 2809 
L 641 3341 
Q 956 3463 1253 3523 
Q 1550 3584 1831 3584 
Q 2591 3584 2966 3190 
Q 3341 2797 3341 1997 
z
" transform="scale(0.015625)"/>
      <path id="DejaVuSans-72" d="M 2631 2963 
Q 2534 3019 2420 3045 
Q 2306 3072 2169 3072 
Q 1681 3072 1420 2755 
Q 1159 2438 1159 1844 
L 1159 0 
L 581 0 
L 581 3500 
L 1159 3500 
L 1159 2956 
Q 1341 3275 1631 3429 
Q 1922 3584 2338 3584 
Q 2397 3584 2469 3576 
Q 2541 3569 2628 3553 
L 2631 2963 
z
" transform="scale(0.015625)"/>
      <path id="DejaVuSans-6c" d="M 603 4863 
L 1178 4863 
L 1178 0 
L 603 0 
L 603 4863 
z
" transform="scale(0.015625)"/>
      <path id="DejaVuSans-79" d="M 2059 -325 
Q 1816 -950 1584 -1140 
Q 1353 -1331 966 -1331 
L 506 -1331 
L 506 -850 
L 844 -850 
Q 1081 -850 1212 -737 
Q 1344 -625 1503 -206 
L 1606 56 
L 191 3500 
L 800 3500 
L 1894 763 
L 2988 3500 
L 3597 3500 
L 2059 -325 
z
" transform="scale(0.015625)"/>
      <path id="DejaVuSans-2d" d="M 313 2009 
L 1997 2009 
L 1997 1497 
L 313 1497 
L 313 2009 
z
" transform="scale(0.015625)"/>
      <path id="DejaVuSans-69" d="M 603 3500 
L 1178 3500 
L 1178 0 
L 603 0 
L 603 3500 
z
M 603 4863 
L 1178 4863 
L 1178 4134 
L 603 4134 
L 603 4863 
z
" transform="scale(0.015625)"/>
      <path id="DejaVuSans-66" d="M 2375 4863 
L 2375 4384 
L 1825 4384 
Q 1516 4384 1395 4259 
Q 1275 4134 1275 3809 
L 1275 3500 
L 2222 3500 
L 2222 3053 
L 1275 3053 
L 1275 0 
L 697 0 
L 697 3053 
L 147 3053 
L 147 3500 
L 697 3500 
L 697 3744 
Q 697 4328 969 4595 
Q 1241 4863 1831 4863 
L 2375 4863 
z
" transform="scale(0.015625)"/>
      <path id="DejaVuSans-65" d="M 3597 1894 
L 3597 1613 
L 953 1613 
Q 991 1019 1311 708 
Q 1631 397 2203 397 
Q 2534 397 2845 478 
Q 3156 559 3463 722 
L 3463 178 
Q 3153 47 2828 -22 
Q 2503 -91 2169 -91 
Q 1331 -91 842 396 
Q 353 884 353 1716 
Q 353 2575 817 3079 
Q 1281 3584 2069 3584 
Q 2775 3584 3186 3129 
Q 3597 2675 3597 1894 
z
M 3022 2063 
Q 3016 2534 2758 2815 
Q 2500 3097 2075 3097 
Q 1594 3097 1305 2825 
Q 1016 2553 972 2059 
L 3022 2063 
z
" transform="scale(0.015625)"/>
      <path id="DejaVuSans-20" transform="scale(0.015625)"/>
      <path id="DejaVuSans-67" d="M 2906 1791 
Q 2906 2416 2648 2759 
Q 2391 3103 1925 3103 
Q 1463 3103 1205 2759 
Q 947 2416 947 1791 
Q 947 1169 1205 825 
Q 1463 481 1925 481 
Q 2391 481 2648 825 
Q 2906 1169 2906 1791 
z
M 3481 434 
Q 3481 -459 3084 -895 
Q 2688 -1331 1869 -1331 
Q 1566 -1331 1297 -1286 
Q 1028 -1241 775 -1147 
L 775 -588 
Q 1028 -725 1275 -790 
Q 1522 -856 1778 -856 
Q 2344 -856 2625 -561 
Q 2906 -266 2906 331 
L 2906 616 
Q 2728 306 2450 153 
Q 2172 0 1784 0 
Q 1141 0 747 490 
Q 353 981 353 1791 
Q 353 2603 747 3093 
Q 1141 3584 1784 3584 
Q 2172 3584 2450 3431 
Q 2728 3278 2906 2969 
L 2906 3500 
L 3481 3500 
L 3481 434 
z
" transform="scale(0.015625)"/>
      <path id="DejaVuSans-6f" d="M 1959 3097 
Q 1497 3097 1228 2736 
Q 959 2375 959 1747 
Q 959 1119 1226 758 
Q 1494 397 1959 397 
Q 2419 397 2687 759 
Q 2956 1122 2956 1747 
Q 2956 2369 2687 2733 
Q 2419 3097 1959 3097 
z
M 1959 3584 
Q 2709 3584 3137 3096 
Q 3566 2609 3566 1747 
Q 3566 888 3137 398 
Q 2709 -91 1959 -91 
Q 1206 -91 779 398 
Q 353 888 353 1747 
Q 353 2609 779 3096 
Q 1206 3584 1959 3584 
z
" transform="scale(0.015625)"/>
      <path id="DejaVuSans-6e" d="M 3513 2113 
L 3513 0 
L 2938 0 
L 2938 2094 
Q 2938 2591 2744 2837 
Q 2550 3084 2163 3084 
Q 1697 3084 1428 2787 
Q 1159 2491 1159 1978 
L 1159 0 
L 581 0 
L 581 3500 
L 1159 3500 
L 1159 2956 
Q 1366 3272 1645 3428 
Q 1925 3584 2291 3584 
Q 2894 3584 3203 3211 
Q 3513 2838 3513 2113 
z
" transform="scale(0.015625)"/>
      <path id="DejaVuSans-28" d="M 1984 4856 
Q 1566 4138 1362 3434 
Q 1159 2731 1159 2009 
Q 1159 1288 1364 580 
Q 1569 -128 1984 -844 
L 1484 -844 
Q 1016 -109 783 600 
Q 550 1309 550 2009 
Q 550 2706 781 3412 
Q 1013 4119 1484 4856 
L 1984 4856 
z
" transform="scale(0.015625)"/>
      <path id="DejaVuSans-73" d="M 2834 3397 
L 2834 2853 
Q 2591 2978 2328 3040 
Q 2066 3103 1784 3103 
Q 1356 3103 1142 2972 
Q 928 2841 928 2578 
Q 928 2378 1081 2264 
Q 1234 2150 1697 2047 
L 1894 2003 
Q 2506 1872 2764 1633 
Q 3022 1394 3022 966 
Q 3022 478 2636 193 
Q 2250 -91 1575 -91 
Q 1294 -91 989 -36 
Q 684 19 347 128 
L 347 722 
Q 666 556 975 473 
Q 1284 391 1588 391 
Q 1994 391 2212 530 
Q 2431 669 2431 922 
Q 2431 1156 2273 1281 
Q 2116 1406 1581 1522 
L 1381 1569 
Q 847 1681 609 1914 
Q 372 2147 372 2553 
Q 372 3047 722 3315 
Q 1072 3584 1716 3584 
Q 2034 3584 2315 3537 
Q 2597 3491 2834 3397 
z
" transform="scale(0.015625)"/>
      <path id="DejaVuSans-74" d="M 1172 4494 
L 1172 3500 
L 2356 3500 
L 2356 3053 
L 1172 3053 
L 1172 1153 
Q 1172 725 1289 603 
Q 1406 481 1766 481 
L 2356 481 
L 2356 0 
L 1766 0 
Q 1100 0 847 248 
Q 594 497 594 1153 
L 594 3053 
L 172 3053 
L 172 3500 
L 594 3500 
L 594 4494 
L 1172 4494 
z
" transform="scale(0.015625)"/>
      <path id="DejaVuSans-63" d="M 3122 3366 
L 3122 2828 
Q 2878 2963 2633 3030 
Q 2388 3097 2138 3097 
Q 1578 3097 1268 2742 
Q 959 2388 959 1747 
Q 959 1106 1268 751 
Q 1578 397 2138 397 
Q 2388 397 2633 464 
Q 2878 531 3122 666 
L 3122 134 
Q 2881 22 2623 -34 
Q 2366 -91 2075 -91 
Q 1284 -91 818 406 
Q 353 903 353 1747 
Q 353 2603 823 3093 
Q 1294 3584 2113 3584 
Q 2378 3584 2631 3529 
Q 2884 3475 3122 3366 
z
" transform="scale(0.015625)"/>
      <path id="DejaVuSans-29" d="M 513 4856 
L 1013 4856 
Q 1481 4119 1714 3412 
Q 1947 2706 1947 2009 
Q 1947 1309 1714 600 
Q 1481 -109 1013 -844 
L 513 -844 
Q 928 -128 1133 580 
Q 1338 1288 1338 2009 
Q 1338 2731 1133 3434 
Q 928 4138 513 4856 
z
" transform="scale(0.015625)"/>
     </defs>
     <use xlink:href="#DejaVuSans-45"/>
     <use xlink:href="#DejaVuSans-61" x="63.183594"/>
     <use xlink:href="#DejaVuSans-72" x="124.462891"/>
     <use xlink:href="#DejaVuSans-6c" x="165.576172"/>
     <use xlink:href="#DejaVuSans-79" x="193.359375"/>
     <use xlink:href="#DejaVuSans-2d" x="250.789062"/>
     <use xlink:href="#DejaVuSans-6c" x="286.873047"/>
     <use xlink:href="#DejaVuSans-69" x="314.65625"/>
     <use xlink:href="#DejaVuSans-66" x="342.439453"/>
     <use xlink:href="#DejaVuSans-65" x="377.644531"/>
     <use xlink:href="#DejaVuSans-20" x="439.167969"/>
     <use xlink:href="#DejaVuSans-72" x="470.955078"/>
     <use xlink:href="#DejaVuSans-65" x="509.818359"/>
     <use xlink:href="#DejaVuSans-67" x="571.341797"/>
     <use xlink:href="#DejaVuSans-69" x="634.818359"/>
     <use xlink:href="#DejaVuSans-6f" x="662.601562"/>
     <use xlink:href="#DejaVuSans-6e" x="723.783203"/>
     <use xlink:href="#DejaVuSans-20" x="787.162109"/>
     <use xlink:href="#DejaVuSans-28" x="818.949219"/>
     <use xlink:href="#DejaVuSans-66" x="857.962891"/>
     <use xlink:href="#DejaVuSans-69" x="893.167969"/>
     <use xlink:href="#DejaVuSans-72" x="920.951172"/>
     <use xlink:href="#DejaVuSans-73" x="962.064453"/>
     <use xlink:href="#DejaVuSans-74" x="1014.164062"/>
     <use xlink:href="#DejaVuSans-20" x="1053.373047"/>
     <use xlink:href="#DejaVuSans-31" x="1085.160156"/>
     <use xlink:href="#DejaVuSans-35" x="1148.783203"/>
     <use xlink:href="#DejaVuSans-20" x="1212.40625"/>
     <use xlink:href="#DejaVuSans-63" x="1244.193359"/>
     <use xlink:href="#DejaVuSans-79" x="1299.173828"/>
     <use xlink:href="#DejaVuSans-63" x="1358.353516"/>
     <use xlink:href="#DejaVuSans-6c" x="1413.333984"/>
     <use xlink:href="#DejaVuSans-65" x="1441.117188"/>
     <use xlink:href="#DejaVuSans-73" x="1502.640625"/>
     <use xlink:href="#DejaVuSans-29" x="1554.740234"/>
    </g>
   </g>
   <g id="text_15">
    <g id="patch_9">
     <path d="M 100.393762 141.904286 
L 230.737512 141.904286 
Q 232.737512 141.904286 232.737512 139.904286 
L 232.737512 130.226161 
Q 232.737512 128.226161 230.737512 128.226161 
L 100.393762 128.226161 
Q 98.393762 128.226161 98.393762 130.226161 
L 98.393762 139.904286 
Q 98.393762 141.904286 100.393762 141.904286 
z
" style="fill: #ffffff"/>
    </g>
    <!-- EOL Threshold (80% SOH) -->
    <g style="fill: #ff0000" transform="translate(100.393762 137.824598) scale(0.1 -0.1)">
     <defs>
      <path id="DejaVuSans-4c" d="M 628 4666 
L 1259 4666 
L 1259 531 
L 3531 531 
L 3531 0 
L 628 0 
L 628 4666 
z
" transform="scale(0.015625)"/>
      <path id="DejaVuSans-54" d="M -19 4666 
L 3928 4666 
L 3928 4134 
L 2272 4134 
L 2272 0 
L 1638 0 
L 1638 4134 
L -19 4134 
L -19 4666 
z
" transform="scale(0.015625)"/>
      <path id="DejaVuSans-68" d="M 3513 2113 
L 3513 0 
L 2938 0 
L 2938 2094 
Q 2938 2591 2744 2837 
Q 2550 3084 2163 3084 
Q 1697 3084 1428 2787 
Q 1159 2491 1159 1978 
L 1159 0 
L 581 0 
L 581 4863 
L 1159 4863 
L 1159 2956 
Q 1366 3272 1645 3428 
Q 1925 3584 2291 3584 
Q 2894 3584 3203 3211 
Q 3513 2838 3513 2113 
z
" transform="scale(0.015625)"/>
      <path id="DejaVuSans-64" d="M 2906 2969 
L 2906 4863 
L 3481 4863 
L 3481 0 
L 2906 0 
L 2906 525 
Q 2725 213 2448 61 
Q 2172 -91 1784 -91 
Q 1150 -91 751 415 
Q 353 922 353 1747 
Q 353 2572 751 3078 
Q 1150 3584 1784 3584 
Q 2172 3584 2448 3432 
Q 2725 3281 2906 2969 
z
M 947 1747 
Q 947 1113 1208 752 
Q 1469 391 1925 391 
Q 2381 391 2643 752 
Q 2906 1113 2906 1747 
Q 2906 2381 2643 2742 
Q 2381 3103 1925 3103 
Q 1469 3103 1208 2742 
Q 947 2381 947 1747 
z
" transform="scale(0.015625)"/>
      <path id="DejaVuSans-25" d="M 4653 2053 
Q 4381 2053 4226 1822 
Q 4072 1591 4072 1178 
Q 4072 772 4226 539 
Q 4381 306 4653 306 
Q 4919 306 5073 539 
Q 5228 772 5228 1178 
Q 5228 1588 5073 1820 
Q 4919 2053 4653 2053 
z
M 4653 2450 
Q 5147 2450 5437 2106 
Q 5728 1763 5728 1178 
Q 5728 594 5436 251 
Q 5144 -91 4653 -91 
Q 4153 -91 3862 251 
Q 3572 594 3572 1178 
Q 3572 1766 3864 2108 
Q 4156 2450 4653 2450 
z
M 1428 4353 
Q 1159 4353 1004 4120 
Q 850 3888 850 3481 
Q 850 3069 1003 2837 
Q 1156 2606 1428 2606 
Q 1700 2606 1854 2837 
Q 2009 3069 2009 3481 
Q 2009 3884 1853 4118 
Q 1697 4353 1428 4353 
z
M 4250 4750 
L 4750 4750 
L 1831 -91 
L 1331 -91 
L 4250 4750 
z
M 1428 4750 
Q 1922 4750 2215 4408 
Q 2509 4066 2509 3481 
Q 2509 2891 2217 2550 
Q 1925 2209 1428 2209 
Q 931 2209 642 2551 
Q 353 2894 353 3481 
Q 353 4063 643 4406 
Q 934 4750 1428 4750 
z
" transform="scale(0.015625)"/>
     </defs>
     <use xlink:href="#DejaVuSans-45"/>
     <use xlink:href="#DejaVuSans-4f" x="63.183594"/>
     <use xlink:href="#DejaVuSans-4c" x="141.894531"/>
     <use xlink:href="#DejaVuSans-20" x="197.607422"/>
     <use xlink:href="#DejaVuSans-54" x="229.394531"/>
     <use xlink:href="#DejaVuSans-68" x="290.478516"/>
     <use xlink:href="#DejaVuSans-72" x="353.857422"/>
     <use xlink:href="#DejaVuSans-65" x="392.720703"/>
     <use xlink:href="#DejaVuSans-73" x="454.244141"/>
     <use xlink:href="#DejaVuSans-68" x="506.34375"/>
     <use xlink:href="#DejaVuSans-6f" x="569.722656"/>
     <use xlink:href="#DejaVuSans-6c" x="630.904297"/>
     <use xlink:href="#DejaVuSans-64" x="658.6875"/>
     <use xlink:href="#DejaVuSans-20" x="722.164062"/>
     <use xlink:href="#DejaVuSans-28" x="753.951172"/>
     <use xlink:href="#DejaVuSans-38" x="792.964844"/>
     <use xlink:href="#DejaVuSans-30" x="856.587891"/>
     <use xlink:href="#DejaVuSans-25" x="920.210938"/>
     <use xlink:href="#DejaVuSans-20" x="1015.230469"/>
     <use xlink:href="#DejaVuSans-53" x="1047.017578"/>
     <use xlink:href="#DejaVuSans-4f" x="1110.494141"/>
     <use xlink:href="#DejaVuSans-48" x="1189.205078"/>
     <use xlink:href="#DejaVuSans-29" x="1264.400391"/>
    </g>
   </g>
   <g id="text_16">
    <g id="patch_10">
     <path d="M 615.896218 204.151118 
L 726.579031 204.151118 
Q 728.579031 204.151118 728.579031 202.151118 
L 728.579031 170.077368 
Q 728.579031 168.077368 726.579031 168.077368 
L 615.896218 168.077368 
Q 613.896218 168.077368 613.896218 170.077368 
L 613.896218 202.151118 
Q 613.896218 204.151118 615.896218 204.151118 
z
" style="fill: #ffffff"/>
    </g>
    <!-- Computed EOL cycle -->
    <g style="fill: #ff0000" transform="translate(615.896218 177.675805) scale(0.1 -0.1)">
     <defs>
      <path id="DejaVuSans-43" d="M 4122 4306 
L 4122 3641 
Q 3803 3938 3442 4084 
Q 3081 4231 2675 4231 
Q 1875 4231 1450 3742 
Q 1025 3253 1025 2328 
Q 1025 1406 1450 917 
Q 1875 428 2675 428 
Q 3081 428 3442 575 
Q 3803 722 4122 1019 
L 4122 359 
Q 3791 134 3420 21 
Q 3050 -91 2638 -91 
Q 1578 -91 968 557 
Q 359 1206 359 2328 
Q 359 3453 968 4101 
Q 1578 4750 2638 4750 
Q 3056 4750 3426 4639 
Q 3797 4528 4122 4306 
z
" transform="scale(0.015625)"/>
      <path id="DejaVuSans-6d" d="M 3328 2828 
Q 3544 3216 3844 3400 
Q 4144 3584 4550 3584 
Q 5097 3584 5394 3201 
Q 5691 2819 5691 2113 
L 5691 0 
L 5113 0 
L 5113 2094 
Q 5113 2597 4934 2840 
Q 4756 3084 4391 3084 
Q 3944 3084 3684 2787 
Q 3425 2491 3425 1978 
L 3425 0 
L 2847 0 
L 2847 2094 
Q 2847 2600 2669 2842 
Q 2491 3084 2119 3084 
Q 1678 3084 1418 2786 
Q 1159 2488 1159 1978 
L 1159 0 
L 581 0 
L 581 3500 
L 1159 3500 
L 1159 2956 
Q 1356 3278 1631 3431 
Q 1906 3584 2284 3584 
Q 2666 3584 2933 3390 
Q 3200 3197 3328 2828 
z
" transform="scale(0.015625)"/>
      <path id="DejaVuSans-70" d="M 1159 525 
L 1159 -1331 
L 581 -1331 
L 581 3500 
L 1159 3500 
L 1159 2969 
Q 1341 3281 1617 3432 
Q 1894 3584 2278 3584 
Q 2916 3584 3314 3078 
Q 3713 2572 3713 1747 
Q 3713 922 3314 415 
Q 2916 -91 2278 -91 
Q 1894 -91 1617 61 
Q 1341 213 1159 525 
z
M 3116 1747 
Q 3116 2381 2855 2742 
Q 2594 3103 2138 3103 
Q 1681 3103 1420 2742 
Q 1159 2381 1159 1747 
Q 1159 1113 1420 752 
Q 1681 391 2138 391 
Q 2594 391 2855 752 
Q 3116 1113 3116 1747 
z
" transform="scale(0.015625)"/>
      <path id="DejaVuSans-75" d="M 544 1381 
L 544 3500 
L 1119 3500 
L 1119 1403 
Q 1119 906 1312 657 
Q 1506 409 1894 409 
Q 2359 409 2629 706 
Q 2900 1003 2900 1516 
L 2900 3500 
L 3475 3500 
L 3475 0 
L 2900 0 
L 2900 538 
Q 2691 219 2414 64 
Q 2138 -91 1772 -91 
Q 1169 -91 856 284 
Q 544 659 544 1381 
z
M 1991 3584 
L 1991 3584 
z
" transform="scale(0.015625)"/>
     </defs>
     <use xlink:href="#DejaVuSans-43"/>
     <use xlink:href="#DejaVuSans-6f" x="69.824219"/>
     <use xlink:href="#DejaVuSans-6d" x="131.005859"/>
     <use xlink:href="#DejaVuSans-70" x="228.417969"/>
     <use xlink:href="#DejaVuSans-75" x="291.894531"/>
     <use xlink:href="#DejaVuSans-74" x="355.273438"/>
     <use xlink:href="#DejaVuSans-65" x="394.482422"/>
     <use xlink:href="#DejaVuSans-64" x="456.005859"/>
     <use xlink:href="#DejaVuSans-20" x="519.482422"/>
     <use xlink:href="#DejaVuSans-45" x="551.269531"/>
     <use xlink:href="#DejaVuSans-4f" x="614.453125"/>
     <use xlink:href="#DejaVuSans-4c" x="693.164062"/>
     <use xlink:href="#DejaVuSans-20" x="748.876953"/>
     <use xlink:href="#DejaVuSans-63" x="780.664062"/>
     <use xlink:href="#DejaVuSans-79" x="835.644531"/>
     <use xlink:href="#DejaVuSans-63" x="894.824219"/>
     <use xlink:href="#DejaVuSans-6c" x="949.804688"/>
     <use xlink:href="#DejaVuSans-65" x="977.587891"/>
    </g>
    <!-- (EOL class used for all -->
    <g style="fill: #ff0000" transform="translate(615.896218 188.873618) scale(0.1 -0.1)">
     <use xlink:href="#DejaVuSans-28"/>
     <use xlink:href="#DejaVuSans-45" x="39.013672"/>
     <use xlink:href="#DejaVuSans-4f" x="102.197266"/>
     <use xlink:href="#DejaVuSans-4c" x="180.908203"/>
     <use xlink:href="#DejaVuSans-20" x="236.621094"/>
     <use xlink:href="#DejaVuSans-63" x="268.408203"/>
     <use xlink:href="#DejaVuSans-6c" x="323.388672"/>
     <use xlink:href="#DejaVuSans-61" x="351.171875"/>
     <use xlink:href="#DejaVuSans-73" x="412.451172"/>
     <use xlink:href="#DejaVuSans-73" x="464.550781"/>
     <use xlink:href="#DejaVuSans-20" x="516.650391"/>
     <use xlink:href="#DejaVuSans-75" x="548.4375"/>
     <use xlink:href="#DejaVuSans-73" x="611.816406"/>
     <use xlink:href="#DejaVuSans-65" x="663.916016"/>
     <use xlink:href="#DejaVuSans-64" x="725.439453"/>
     <use xlink:href="#DejaVuSans-20" x="788.916016"/>
     <use xlink:href="#DejaVuSans-66" x="820.703125"/>
     <use xlink:href="#DejaVuSans-6f" x="855.908203"/>
     <use xlink:href="#DejaVuSans-72" x="917.089844"/>
     <use xlink:href="#DejaVuSans-20" x="958.203125"/>
     <use xlink:href="#DejaVuSans-61" x="989.990234"/>
     <use xlink:href="#DejaVuSans-6c" x="1051.269531"/>
     <use xlink:href="#DejaVuSans-6c" x="1079.052734"/>
    </g>
    <!-- early-life windows) -->
    <g style="fill: #ff0000" transform="translate(615.896218 200.07143) scale(0.1 -0.1)">
     <defs>
      <path id="DejaVuSans-77" d="M 269 3500 
L 844 3500 
L 1563 769 
L 2278 3500 
L 2956 3500 
L 3675 769 
L 4391 3500 
L 4966 3500 
L 4050 0 
L 3372 0 
L 2619 2869 
L 1863 0 
L 1184 0 
L 269 3500 
z
" transform="scale(0.015625)"/>
     </defs>
     <use xlink:href="#DejaVuSans-65"/>
     <use xlink:href="#DejaVuSans-61" x="61.523438"/>
     <use xlink:href="#DejaVuSans-72" x="122.802734"/>
     <use xlink:href="#DejaVuSans-6c" x="163.916016"/>
     <use xlink:href="#DejaVuSans-79" x="191.699219"/>
     <use xlink:href="#DejaVuSans-2d" x="249.128906"/>
     <use xlink:href="#DejaVuSans-6c" x="285.212891"/>
     <use xlink:href="#DejaVuSans-69" x="312.996094"/>
     <use xlink:href="#DejaVuSans-66" x="340.779297"/>
     <use xlink:href="#DejaVuSans-65" x="375.984375"/>
     <use xlink:href="#DejaVuSans-20" x="437.507812"/>
     <use xlink:href="#DejaVuSans-77" x="469.294922"/>
     <use xlink:href="#DejaVuSans-69" x="551.082031"/>
     <use xlink:href="#DejaVuSans-6e" x="578.865234"/>
     <use xlink:href="#DejaVuSans-64" x="642.244141"/>
     <use xlink:href="#DejaVuSans-6f" x="705.720703"/>
     <use xlink:href="#DejaVuSans-77" x="766.902344"/>
     <use xlink:href="#DejaVuSans-73" x="848.689453"/>
     <use xlink:href="#DejaVuSans-29" x="900.789062"/>
    </g>
   </g>
   <g id="text_17">
    <!-- Full Lifetime Curve with Early-Life Windows and EOL Labeling -->
    <g transform="translate(233.565284 12.878209) scale(0.13 -0.13)">
     <defs>
      <path id="DejaVuSans-46" d="M 628 4666 
L 3309 4666 
L 3309 4134 
L 1259 4134 
L 1259 2759 
L 3109 2759 
L 3109 2228 
L 1259 2228 
L 1259 0 
L 628 0 
L 628 4666 
z
" transform="scale(0.015625)"/>
      <path id="DejaVuSans-76" d="M 191 3500 
L 800 3500 
L 1894 563 
L 2988 3500 
L 3597 3500 
L 2284 0 
L 1503 0 
L 191 3500 
z
" transform="scale(0.015625)"/>
      <path id="DejaVuSans-57" d="M 213 4666 
L 850 4666 
L 1831 722 
L 2809 4666 
L 3519 4666 
L 4500 722 
L 5478 4666 
L 6119 4666 
L 4947 0 
L 4153 0 
L 3169 4050 
L 2175 0 
L 1381 0 
L 213 4666 
z
" transform="scale(0.015625)"/>
      <path id="DejaVuSans-62" d="M 3116 1747 
Q 3116 2381 2855 2742 
Q 2594 3103 2138 3103 
Q 1681 3103 1420 2742 
Q 1159 2381 1159 1747 
Q 1159 1113 1420 752 
Q 1681 391 2138 391 
Q 2594 391 2855 752 
Q 3116 1113 3116 1747 
z
M 1159 2969 
Q 1341 3281 1617 3432 
Q 1894 3584 2278 3584 
Q 2916 3584 3314 3078 
Q 3713 2572 3713 1747 
Q 3713 922 3314 415 
Q 2916 -91 2278 -91 
Q 1894 -91 1617 61 
Q 1341 213 1159 525 
L 1159 0 
L 581 0 
L 581 4863 
L 1159 4863 
L 1159 2969 
z
" transform="scale(0.015625)"/>
     </defs>
     <use xlink:href="#DejaVuSans-46"/>
     <use xlink:href="#DejaVuSans-75" x="52.019531"/>
     <use xlink:href="#DejaVuSans-6c" x="115.398438"/>
     <use xlink:href="#DejaVuSans-6c" x="143.181641"/>
     <use xlink:href="#DejaVuSans-20" x="170.964844"/>
     <use xlink:href="#DejaVuSans-4c" x="202.751953"/>
     <use xlink:href="#DejaVuSans-69" x="258.464844"/>
     <use xlink:href="#DejaVuSans-66" x="286.248047"/>
     <use xlink:href="#DejaVuSans-65" x="321.453125"/>
     <use xlink:href="#DejaVuSans-74" x="382.976562"/>
     <use xlink:href="#DejaVuSans-69" x="422.185547"/>
     <use xlink:href="#DejaVuSans-6d" x="449.96875"/>
     <use xlink:href="#DejaVuSans-65" x="547.380859"/>
     <use xlink:href="#DejaVuSans-20" x="608.904297"/>
     <use xlink:href="#DejaVuSans-43" x="640.691406"/>
     <use xlink:href="#DejaVuSans-75" x="710.515625"/>
     <use xlink:href="#DejaVuSans-72" x="773.894531"/>
     <use xlink:href="#DejaVuSans-76" x="815.007812"/>
     <use xlink:href="#DejaVuSans-65" x="874.1875"/>
     <use xlink:href="#DejaVuSans-20" x="935.710938"/>
     <use xlink:href="#DejaVuSans-77" x="967.498047"/>
     <use xlink:href="#DejaVuSans-69" x="1049.285156"/>
     <use xlink:href="#DejaVuSans-74" x="1077.068359"/>
     <use xlink:href="#DejaVuSans-68" x="1116.277344"/>
     <use xlink:href="#DejaVuSans-20" x="1179.65625"/>
     <use xlink:href="#DejaVuSans-45" x="1211.443359"/>
     <use xlink:href="#DejaVuSans-61" x="1274.626953"/>
     <use xlink:href="#DejaVuSans-72" x="1335.90625"/>
     <use xlink:href="#DejaVuSans-6c" x="1377.019531"/>
     <use xlink:href="#DejaVuSans-79" x="1404.802734"/>
     <use xlink:href="#DejaVuSans-2d" x="1462.232422"/>
     <use xlink:href="#DejaVuSans-4c" x="1498.316406"/>
     <use xlink:href="#DejaVuSans-69" x="1554.029297"/>
     <use xlink:href="#DejaVuSans-66" x="1581.8125"/>
     <use xlink:href="#DejaVuSans-65" x="1617.017578"/>
     <use xlink:href="#DejaVuSans-20" x="1678.541016"/>
     <use xlink:href="#DejaVuSans-57" x="1710.328125"/>
     <use xlink:href="#DejaVuSans-69" x="1806.955078"/>
     <use xlink:href="#DejaVuSans-6e" x="1834.738281"/>
     <use xlink:href="#DejaVuSans-64" x="1898.117188"/>
     <use xlink:href="#DejaVuSans-6f" x="1961.59375"/>
     <use xlink:href="#DejaVuSans-77" x="2022.775391"/>
     <use xlink:href="#DejaVuSans-73" x="2104.5625"/>
     <use xlink:href="#DejaVuSans-20" x="2156.662109"/>
     <use xlink:href="#DejaVuSans-61" x="2188.449219"/>
     <use xlink:href="#DejaVuSans-6e" x="2249.728516"/>
     <use xlink:href="#DejaVuSans-64" x="2313.107422"/>
     <use xlink:href="#DejaVuSans-20" x="2376.583984"/>
     <use xlink:href="#DejaVuSans-45" x="2408.371094"/>
     <use xlink:href="#DejaVuSans-4f" x="2471.554688"/>
     <use xlink:href="#DejaVuSans-4c" x="2550.265625"/>
     <use xlink:href="#DejaVuSans-20" x="2605.978516"/>
     <use xlink:href="#DejaVuSans-4c" x="2637.765625"/>
     <use xlink:href="#DejaVuSans-61" x="2693.478516"/>
     <use xlink:href="#DejaVuSans-62" x="2754.757812"/>
     <use xlink:href="#DejaVuSans-65" x="2818.234375"/>
     <use xlink:href="#DejaVuSans-6c" x="2879.757812"/>
     <use xlink:href="#DejaVuSans-69" x="2907.541016"/>
     <use xlink:href="#DejaVuSans-6e" x="2935.324219"/>
     <use xlink:href="#DejaVuSans-67" x="2998.703125"/>
    </g>
   </g>
  </g>
  <g id="axes_2">
   <g id="patch_11">
    <path d="M 88.938152 396.707885 
L 776.27476 396.707885 
L 776.27476 290.68504 
L 88.938152 290.68504 
z
" style="fill: #ffffff"/>
   </g>
   <g id="patch_12">
    <path d="M 123.304982 385.348295 
L 226.405474 385.348295 
L 226.405474 328.550342 
L 123.304982 328.550342 
L 123.304982 385.348295 
z
" clip-path="url(#pefa7b2c629)" style="fill: none; stroke: #0000ff; stroke-width: 1.8; stroke-linejoin: miter"/>
   </g>
   <g id="patch_13">
    <path d="M 295.139134 385.348295 
L 398.239626 385.348295 
L 398.239626 328.550342 
L 295.139134 328.550342 
L 295.139134 385.348295 
z
" clip-path="url(#pefa7b2c629)" style="fill: none; stroke: #0000ff; stroke-width: 1.8; stroke-linejoin: miter"/>
   </g>
   <g id="patch_14">
    <path d="M 466.973286 385.348295 
L 570.073778 385.348295 
L 570.073778 328.550342 
L 466.973286 328.550342 
L 466.973286 385.348295 
z
" clip-path="url(#pefa7b2c629)" style="fill: none; stroke: #0000ff; stroke-width: 1.8; stroke-linejoin: miter"/>
   </g>
   <g id="matplotlib.axis_3">
    <g id="xtick_8">
     <g id="line2d_16">
      <g>
       <use xlink:href="#m5d75a04491" x="88.938152" y="396.707885" style="stroke: #000000; stroke-width: 0.8"/>
      </g>
     </g>
     <g id="text_18">
      <!-- 0.0 -->
      <g transform="translate(80.986589 411.306323) scale(0.1 -0.1)">
       <use xlink:href="#DejaVuSans-30"/>
       <use xlink:href="#DejaVuSans-2e" x="63.623047"/>
       <use xlink:href="#DejaVuSans-30" x="95.410156"/>
      </g>
     </g>
    </g>
    <g id="xtick_9">
     <g id="line2d_17">
      <g>
       <use xlink:href="#m5d75a04491" x="174.855228" y="396.707885" style="stroke: #000000; stroke-width: 0.8"/>
      </g>
     </g>
     <g id="text_19">
      <!-- 2.5 -->
      <g transform="translate(166.903665 411.306323) scale(0.1 -0.1)">
       <use xlink:href="#DejaVuSans-32"/>
       <use xlink:href="#DejaVuSans-2e" x="63.623047"/>
       <use xlink:href="#DejaVuSans-35" x="95.410156"/>
      </g>
     </g>
    </g>
    <g id="xtick_10">
     <g id="line2d_18">
      <g>
       <use xlink:href="#m5d75a04491" x="260.772304" y="396.707885" style="stroke: #000000; stroke-width: 0.8"/>
      </g>
     </g>
     <g id="text_20">
      <!-- 5.0 -->
      <g transform="translate(252.820741 411.306323) scale(0.1 -0.1)">
       <use xlink:href="#DejaVuSans-35"/>
       <use xlink:href="#DejaVuSans-2e" x="63.623047"/>
       <use xlink:href="#DejaVuSans-30" x="95.410156"/>
      </g>
     </g>
    </g>
    <g id="xtick_11">
     <g id="line2d_19">
      <g>
       <use xlink:href="#m5d75a04491" x="346.68938" y="396.707885" style="stroke: #000000; stroke-width: 0.8"/>
      </g>
     </g>
     <g id="text_21">
      <!-- 7.5 -->
      <g transform="translate(338.737817 411.306323) scale(0.1 -0.1)">
       <use xlink:href="#DejaVuSans-37"/>
       <use xlink:href="#DejaVuSans-2e" x="63.623047"/>
       <use xlink:href="#DejaVuSans-35" x="95.410156"/>
      </g>
     </g>
    </g>
    <g id="xtick_12">
     <g id="line2d_20">
      <g>
       <use xlink:href="#m5d75a04491" x="432.606456" y="396.707885" style="stroke: #000000; stroke-width: 0.8"/>
      </g>
     </g>
     <g id="text_22">
      <!-- 10.0 -->
      <g transform="translate(421.473643 411.306323) scale(0.1 -0.1)">
       <use xlink:href="#DejaVuSans-31"/>
       <use xlink:href="#DejaVuSans-30" x="63.623047"/>
       <use xlink:href="#DejaVuSans-2e" x="127.246094"/>
       <use xlink:href="#DejaVuSans-30" x="159.033203"/>
      </g>
     </g>
    </g>
    <g id="xtick_13">
     <g id="line2d_21">
      <g>
       <use xlink:href="#m5d75a04491" x="518.523532" y="396.707885" style="stroke: #000000; stroke-width: 0.8"/>
      </g>
     </g>
     <g id="text_23">
      <!-- 12.5 -->
      <g transform="translate(507.390719 411.306323) scale(0.1 -0.1)">
       <use xlink:href="#DejaVuSans-31"/>
       <use xlink:href="#DejaVuSans-32" x="63.623047"/>
       <use xlink:href="#DejaVuSans-2e" x="127.246094"/>
       <use xlink:href="#DejaVuSans-35" x="159.033203"/>
      </g>
     </g>
    </g>
    <g id="xtick_14">
     <g id="line2d_22">
      <g>
       <use xlink:href="#m5d75a04491" x="604.440608" y="396.707885" style="stroke: #000000; stroke-width: 0.8"/>
      </g>
     </g>
     <g id="text_24">
      <!-- 15.0 -->
      <g transform="translate(593.307795 411.306323) scale(0.1 -0.1)">
       <use xlink:href="#DejaVuSans-31"/>
       <use xlink:href="#DejaVuSans-35" x="63.623047"/>
       <use xlink:href="#DejaVuSans-2e" x="127.246094"/>
       <use xlink:href="#DejaVuSans-30" x="159.033203"/>
      </g>
     </g>
    </g>
    <g id="xtick_15">
     <g id="line2d_23">
      <g>
       <use xlink:href="#m5d75a04491" x="690.357684" y="396.707885" style="stroke: #000000; stroke-width: 0.8"/>
      </g>
     </g>
     <g id="text_25">
      <!-- 17.5 -->
      <g transform="translate(679.224871 411.306323) scale(0.1 -0.1)">
       <use xlink:href="#DejaVuSans-31"/>
       <use xlink:href="#DejaVuSans-37" x="63.623047"/>
       <use xlink:href="#DejaVuSans-2e" x="127.246094"/>
       <use xlink:href="#DejaVuSans-35" x="159.033203"/>
      </g>
     </g>
    </g>
    <g id="xtick_16">
     <g id="line2d_24">
      <g>
       <use xlink:href="#m5d75a04491" x="776.27476" y="396.707885" style="stroke: #000000; stroke-width: 0.8"/>
      </g>
     </g>
     <g id="text_26">
      <!-- 20.0 -->
      <g transform="translate(765.141947 411.306323) scale(0.1 -0.1)">
       <use xlink:href="#DejaVuSans-32"/>
       <use xlink:href="#DejaVuSans-30" x="63.623047"/>
       <use xlink:href="#DejaVuSans-2e" x="127.246094"/>
       <use xlink:href="#DejaVuSans-30" x="159.033203"/>
      </g>
     </g>
    </g>
    <g id="text_27">
     <!-- Cycle Number -->
     <g transform="translate(390.197706 426.504135) scale(0.12 -0.12)">
      <defs>
       <path id="DejaVuSans-4e" d="M 628 4666 
L 1478 4666 
L 3547 763 
L 3547 4666 
L 4159 4666 
L 4159 0 
L 3309 0 
L 1241 3903 
L 1241 0 
L 628 0 
L 628 4666 
z
" transform="scale(0.015625)"/>
      </defs>
      <use xlink:href="#DejaVuSans-43"/>
      <use xlink:href="#DejaVuSans-79" x="69.824219"/>
      <use xlink:href="#DejaVuSans-63" x="129.003906"/>
      <use xlink:href="#DejaVuSans-6c" x="183.984375"/>
      <use xlink:href="#DejaVuSans-65" x="211.767578"/>
      <use xlink:href="#DejaVuSans-20" x="273.291016"/>
      <use xlink:href="#DejaVuSans-4e" x="305.078125"/>
      <use xlink:href="#DejaVuSans-75" x="379.882812"/>
      <use xlink:href="#DejaVuSans-6d" x="443.261719"/>
      <use xlink:href="#DejaVuSans-62" x="540.673828"/>
      <use xlink:href="#DejaVuSans-65" x="604.150391"/>
      <use xlink:href="#DejaVuSans-72" x="665.673828"/>
     </g>
    </g>
   </g>
   <g id="matplotlib.axis_4">
    <g id="ytick_6">
     <g id="line2d_25">
      <g>
       <use xlink:href="#m0f41bb9629" x="88.938152" y="377.775234" style="stroke: #000000; stroke-width: 0.8"/>
      </g>
     </g>
     <g id="text_28">
      <!-- 0.8 -->
      <g transform="translate(66.035027 381.574453) scale(0.1 -0.1)">
       <use xlink:href="#DejaVuSans-30"/>
       <use xlink:href="#DejaVuSans-2e" x="63.623047"/>
       <use xlink:href="#DejaVuSans-38" x="95.410156"/>
      </g>
     </g>
    </g>
    <g id="ytick_7">
     <g id="line2d_26">
      <g>
       <use xlink:href="#m0f41bb9629" x="88.938152" y="339.909933" style="stroke: #000000; stroke-width: 0.8"/>
      </g>
     </g>
     <g id="text_29">
      <!-- 0.9 -->
      <g transform="translate(66.035027 343.709151) scale(0.1 -0.1)">
       <use xlink:href="#DejaVuSans-30"/>
       <use xlink:href="#DejaVuSans-2e" x="63.623047"/>
       <use xlink:href="#DejaVuSans-39" x="95.410156"/>
      </g>
     </g>
    </g>
    <g id="ytick_8">
     <g id="line2d_27">
      <g>
       <use xlink:href="#m0f41bb9629" x="88.938152" y="302.044631" style="stroke: #000000; stroke-width: 0.8"/>
      </g>
     </g>
     <g id="text_30">
      <!-- 1.0 -->
      <g transform="translate(66.035027 305.84385) scale(0.1 -0.1)">
       <use xlink:href="#DejaVuSans-31"/>
       <use xlink:href="#DejaVuSans-2e" x="63.623047"/>
       <use xlink:href="#DejaVuSans-30" x="95.410156"/>
      </g>
     </g>
    </g>
    <g id="text_31">
     <!-- SOH -->
     <g transform="translate(59.539402 356.740838) rotate(-90) scale(0.12 -0.12)">
      <use xlink:href="#DejaVuSans-53"/>
      <use xlink:href="#DejaVuSans-4f" x="63.476562"/>
      <use xlink:href="#DejaVuSans-48" x="142.1875"/>
     </g>
    </g>
   </g>
   <g id="line2d_28">
    <path d="M 88.938152 302.044631 
L 123.316442 302.109024 
L 157.694732 302.173417 
L 192.073021 302.237811 
L 226.451311 302.302206 
L 260.829601 302.366603 
L 295.207891 302.431003 
L 329.586181 302.495406 
L 363.964471 302.559812 
L 398.34276 302.624222 
L 432.72105 302.688637 
L 467.09934 302.753056 
L 501.47763 302.81748 
L 535.85592 302.881911 
L 570.23421 302.946347 
L 604.612499 303.010791 
L 638.990789 303.075242 
L 673.369079 303.1397 
L 707.747369 303.204167 
L 742.125659 303.268642 
" clip-path="url(#pefa7b2c629)" style="fill: none; stroke: #000000; stroke-width: 2; stroke-linecap: square"/>
   </g>
   <g id="line2d_29">
    <path d="M 88.938152 377.775234 
L 776.27476 377.775234 
" clip-path="url(#pefa7b2c629)" style="fill: none; stroke-dasharray: 5.55,2.4; stroke-dashoffset: 0; stroke: #ff0000; stroke-width: 1.5"/>
   </g>
   <g id="patch_15">
    <path d="M 88.938152 396.707885 
L 88.938152 290.68504 
" style="fill: none; stroke: #000000; stroke-width: 0.8; stroke-linejoin: miter; stroke-linecap: square"/>
   </g>
   <g id="patch_16">
    <path d="M 776.27476 396.707885 
L 776.27476 290.68504 
" style="fill: none; stroke: #000000; stroke-width: 0.8; stroke-linejoin: miter; stroke-linecap: square"/>
   </g>
   <g id="patch_17">
    <path d="M 88.938152 396.707885 
L 776.27476 396.707885 
" style="fill: none; stroke: #000000; stroke-width: 0.8; stroke-linejoin: miter; stroke-linecap: square"/>
   </g>
   <g id="patch_18">
    <path d="M 88.938152 290.68504 
L 776.27476 290.68504 
" style="fill: none; stroke: #000000; stroke-width: 0.8; stroke-linejoin: miter; stroke-linecap: square"/>
   </g>
   <g id="text_32">
    <g id="patch_19">
     <path d="M 106.121567 377.681969 
L 176.171098 377.681969 
Q 177.971098 377.681969 177.971098 375.881969 
L 177.971098 357.093625 
Q 177.971098 355.293625 176.171098 355.293625 
L 106.121567 355.293625 
Q 104.321567 355.293625 104.321567 357.093625 
L 104.321567 375.881969 
Q 104.321567 377.681969 106.121567 377.681969 
z
" style="fill: #ffffff"/>
    </g>
    <!-- 80% SOH -->
    <g style="fill: #ff0000" transform="translate(106.121567 363.932219) scale(0.09 -0.09)">
     <use xlink:href="#DejaVuSans-38"/>
     <use xlink:href="#DejaVuSans-30" x="63.623047"/>
     <use xlink:href="#DejaVuSans-25" x="127.246094"/>
     <use xlink:href="#DejaVuSans-20" x="222.265625"/>
     <use xlink:href="#DejaVuSans-53" x="254.052734"/>
     <use xlink:href="#DejaVuSans-4f" x="317.529297"/>
     <use xlink:href="#DejaVuSans-48" x="396.240234"/>
    </g>
    <!-- (EOL threshold) -->
    <g style="fill: #ff0000" transform="translate(106.121567 374.01025) scale(0.09 -0.09)">
     <use xlink:href="#DejaVuSans-28"/>
     <use xlink:href="#DejaVuSans-45" x="39.013672"/>
     <use xlink:href="#DejaVuSans-4f" x="102.197266"/>
     <use xlink:href="#DejaVuSans-4c" x="180.908203"/>
     <use xlink:href="#DejaVuSans-20" x="236.621094"/>
     <use xlink:href="#DejaVuSans-74" x="268.408203"/>
     <use xlink:href="#DejaVuSans-68" x="307.617188"/>
     <use xlink:href="#DejaVuSans-72" x="370.996094"/>
     <use xlink:href="#DejaVuSans-65" x="409.859375"/>
     <use xlink:href="#DejaVuSans-73" x="471.382812"/>
     <use xlink:href="#DejaVuSans-68" x="523.482422"/>
     <use xlink:href="#DejaVuSans-6f" x="586.861328"/>
     <use xlink:href="#DejaVuSans-6c" x="648.042969"/>
     <use xlink:href="#DejaVuSans-64" x="675.826172"/>
     <use xlink:href="#DejaVuSans-29" x="739.302734"/>
    </g>
   </g>
   <g id="text_33">
    <!-- Window 1 -->
    <g style="fill: #0000ff" transform="translate(150.373197 359.708693) scale(0.1 -0.1)">
     <use xlink:href="#DejaVuSans-57"/>
     <use xlink:href="#DejaVuSans-69" x="96.626953"/>
     <use xlink:href="#DejaVuSans-6e" x="124.410156"/>
     <use xlink:href="#DejaVuSans-64" x="187.789062"/>
     <use xlink:href="#DejaVuSans-6f" x="251.265625"/>
     <use xlink:href="#DejaVuSans-77" x="312.447266"/>
     <use xlink:href="#DejaVuSans-20" x="394.234375"/>
     <use xlink:href="#DejaVuSans-31" x="426.021484"/>
    </g>
   </g>
   <g id="text_34">
    <!-- Window 2 -->
    <g style="fill: #0000ff" transform="translate(322.207349 359.708693) scale(0.1 -0.1)">
     <use xlink:href="#DejaVuSans-57"/>
     <use xlink:href="#DejaVuSans-69" x="96.626953"/>
     <use xlink:href="#DejaVuSans-6e" x="124.410156"/>
     <use xlink:href="#DejaVuSans-64" x="187.789062"/>
     <use xlink:href="#DejaVuSans-6f" x="251.265625"/>
     <use xlink:href="#DejaVuSans-77" x="312.447266"/>
     <use xlink:href="#DejaVuSans-20" x="394.234375"/>
     <use xlink:href="#DejaVuSans-32" x="426.021484"/>
    </g>
   </g>
   <g id="text_35">
    <!-- Window 3 -->
    <g style="fill: #0000ff" transform="translate(494.041501 359.708693) scale(0.1 -0.1)">
     <use xlink:href="#DejaVuSans-57"/>
     <use xlink:href="#DejaVuSans-69" x="96.626953"/>
     <use xlink:href="#DejaVuSans-6e" x="124.410156"/>
     <use xlink:href="#DejaVuSans-64" x="187.789062"/>
     <use xlink:href="#DejaVuSans-6f" x="251.265625"/>
     <use xlink:href="#DejaVuSans-77" x="312.447266"/>
     <use xlink:href="#DejaVuSans-20" x="394.234375"/>
     <use xlink:href="#DejaVuSans-33" x="426.021484"/>
    </g>
   </g>
   <g id="patch_20">
    <path d="M 599.944767 335.036426 
Q 474.316013 331.818968 350.699061 328.653033 
" style="fill: none; stroke: #000000; stroke-width: 1.8; stroke-linecap: round"/>
    <path d="M 354.646545 330.754788 
L 350.699061 328.653033 
L 354.748955 326.756099 
" style="fill: none; stroke: #000000; stroke-width: 1.8; stroke-linecap: round"/>
   </g>
   <g id="text_36">
    <g id="patch_21">
     <path d="M 604.440608 355.551032 
L 749.893733 355.551032 
Q 752.393733 355.551032 752.393733 353.051032 
L 752.393733 320.977282 
Q 752.393733 318.477282 749.893733 318.477282 
L 604.440608 318.477282 
Q 601.940608 318.477282 601.940608 320.977282 
L 601.940608 353.051032 
Q 601.940608 355.551032 604.440608 355.551032 
z
" style="fill: #ffffff"/>
    </g>
    <!-- Each early-life window is -->
    <g transform="translate(604.440608 328.575719) scale(0.1 -0.1)">
     <use xlink:href="#DejaVuSans-45"/>
     <use xlink:href="#DejaVuSans-61" x="63.183594"/>
     <use xlink:href="#DejaVuSans-63" x="124.462891"/>
     <use xlink:href="#DejaVuSans-68" x="179.443359"/>
     <use xlink:href="#DejaVuSans-20" x="242.822266"/>
     <use xlink:href="#DejaVuSans-65" x="274.609375"/>
     <use xlink:href="#DejaVuSans-61" x="336.132812"/>
     <use xlink:href="#DejaVuSans-72" x="397.412109"/>
     <use xlink:href="#DejaVuSans-6c" x="438.525391"/>
     <use xlink:href="#DejaVuSans-79" x="466.308594"/>
     <use xlink:href="#DejaVuSans-2d" x="523.738281"/>
     <use xlink:href="#DejaVuSans-6c" x="559.822266"/>
     <use xlink:href="#DejaVuSans-69" x="587.605469"/>
     <use xlink:href="#DejaVuSans-66" x="615.388672"/>
     <use xlink:href="#DejaVuSans-65" x="650.59375"/>
     <use xlink:href="#DejaVuSans-20" x="712.117188"/>
     <use xlink:href="#DejaVuSans-77" x="743.904297"/>
     <use xlink:href="#DejaVuSans-69" x="825.691406"/>
     <use xlink:href="#DejaVuSans-6e" x="853.474609"/>
     <use xlink:href="#DejaVuSans-64" x="916.853516"/>
     <use xlink:href="#DejaVuSans-6f" x="980.330078"/>
     <use xlink:href="#DejaVuSans-77" x="1041.511719"/>
     <use xlink:href="#DejaVuSans-20" x="1123.298828"/>
     <use xlink:href="#DejaVuSans-69" x="1155.085938"/>
     <use xlink:href="#DejaVuSans-73" x="1182.869141"/>
    </g>
    <!-- assigned the same EOL class -->
    <g transform="translate(604.440608 339.773532) scale(0.1 -0.1)">
     <use xlink:href="#DejaVuSans-61"/>
     <use xlink:href="#DejaVuSans-73" x="61.279297"/>
     <use xlink:href="#DejaVuSans-73" x="113.378906"/>
     <use xlink:href="#DejaVuSans-69" x="165.478516"/>
     <use xlink:href="#DejaVuSans-67" x="193.261719"/>
     <use xlink:href="#DejaVuSans-6e" x="256.738281"/>
     <use xlink:href="#DejaVuSans-65" x="320.117188"/>
     <use xlink:href="#DejaVuSans-64" x="381.640625"/>
     <use xlink:href="#DejaVuSans-20" x="445.117188"/>
     <use xlink:href="#DejaVuSans-74" x="476.904297"/>
     <use xlink:href="#DejaVuSans-68" x="516.113281"/>
     <use xlink:href="#DejaVuSans-65" x="579.492188"/>
     <use xlink:href="#DejaVuSans-20" x="641.015625"/>
     <use xlink:href="#DejaVuSans-73" x="672.802734"/>
     <use xlink:href="#DejaVuSans-61" x="724.902344"/>
     <use xlink:href="#DejaVuSans-6d" x="786.181641"/>
     <use xlink:href="#DejaVuSans-65" x="883.59375"/>
     <use xlink:href="#DejaVuSans-20" x="945.117188"/>
     <use xlink:href="#DejaVuSans-45" x="976.904297"/>
     <use xlink:href="#DejaVuSans-4f" x="1040.087891"/>
     <use xlink:href="#DejaVuSans-4c" x="1118.798828"/>
     <use xlink:href="#DejaVuSans-20" x="1174.511719"/>
     <use xlink:href="#DejaVuSans-63" x="1206.298828"/>
     <use xlink:href="#DejaVuSans-6c" x="1261.279297"/>
     <use xlink:href="#DejaVuSans-61" x="1289.0625"/>
     <use xlink:href="#DejaVuSans-73" x="1350.341797"/>
     <use xlink:href="#DejaVuSans-73" x="1402.441406"/>
    </g>
    <!-- based on the full cycle life -->
    <g transform="translate(604.440608 350.971344) scale(0.1 -0.1)">
     <use xlink:href="#DejaVuSans-62"/>
     <use xlink:href="#DejaVuSans-61" x="63.476562"/>
     <use xlink:href="#DejaVuSans-73" x="124.755859"/>
     <use xlink:href="#DejaVuSans-65" x="176.855469"/>
     <use xlink:href="#DejaVuSans-64" x="238.378906"/>
     <use xlink:href="#DejaVuSans-20" x="301.855469"/>
     <use xlink:href="#DejaVuSans-6f" x="333.642578"/>
     <use xlink:href="#DejaVuSans-6e" x="394.824219"/>
     <use xlink:href="#DejaVuSans-20" x="458.203125"/>
     <use xlink:href="#DejaVuSans-74" x="489.990234"/>
     <use xlink:href="#DejaVuSans-68" x="529.199219"/>
     <use xlink:href="#DejaVuSans-65" x="592.578125"/>
     <use xlink:href="#DejaVuSans-20" x="654.101562"/>
     <use xlink:href="#DejaVuSans-66" x="685.888672"/>
     <use xlink:href="#DejaVuSans-75" x="721.09375"/>
     <use xlink:href="#DejaVuSans-6c" x="784.472656"/>
     <use xlink:href="#DejaVuSans-6c" x="812.255859"/>
     <use xlink:href="#DejaVuSans-20" x="840.039062"/>
     <use xlink:href="#DejaVuSans-63" x="871.826172"/>
     <use xlink:href="#DejaVuSans-79" x="926.806641"/>
     <use xlink:href="#DejaVuSans-63" x="985.986328"/>
     <use xlink:href="#DejaVuSans-6c" x="1040.966797"/>
     <use xlink:href="#DejaVuSans-65" x="1068.75"/>
     <use xlink:href="#DejaVuSans-20" x="1130.273438"/>
     <use xlink:href="#DejaVuSans-6c" x="1162.060547"/>
     <use xlink:href="#DejaVuSans-69" x="1189.84375"/>
     <use xlink:href="#DejaVuSans-66" x="1217.626953"/>
     <use xlink:href="#DejaVuSans-65" x="1252.832031"/>
    </g>
   </g>
   <g id="text_37">
    <!-- Early-Life Windows (all inherit the same EOL class) -->
    <g transform="translate(267.687237 284.68504) scale(0.13 -0.13)">
     <use xlink:href="#DejaVuSans-45"/>
     <use xlink:href="#DejaVuSans-61" x="63.183594"/>
     <use xlink:href="#DejaVuSans-72" x="124.462891"/>
     <use xlink:href="#DejaVuSans-6c" x="165.576172"/>
     <use xlink:href="#DejaVuSans-79" x="193.359375"/>
     <use xlink:href="#DejaVuSans-2d" x="250.789062"/>
     <use xlink:href="#DejaVuSans-4c" x="286.873047"/>
     <use xlink:href="#DejaVuSans-69" x="342.585938"/>
     <use xlink:href="#DejaVuSans-66" x="370.369141"/>
     <use xlink:href="#DejaVuSans-65" x="405.574219"/>
     <use xlink:href="#DejaVuSans-20" x="467.097656"/>
     <use xlink:href="#DejaVuSans-57" x="498.884766"/>
     <use xlink:href="#DejaVuSans-69" x="595.511719"/>
     <use xlink:href="#DejaVuSans-6e" x="623.294922"/>
     <use xlink:href="#DejaVuSans-64" x="686.673828"/>
     <use xlink:href="#DejaVuSans-6f" x="750.150391"/>
     <use xlink:href="#DejaVuSans-77" x="811.332031"/>
     <use xlink:href="#DejaVuSans-73" x="893.119141"/>
     <use xlink:href="#DejaVuSans-20" x="945.21875"/>
     <use xlink:href="#DejaVuSans-28" x="977.005859"/>
     <use xlink:href="#DejaVuSans-61" x="1016.019531"/>
     <use xlink:href="#DejaVuSans-6c" x="1077.298828"/>
     <use xlink:href="#DejaVuSans-6c" x="1105.082031"/>
     <use xlink:href="#DejaVuSans-20" x="1132.865234"/>
     <use xlink:href="#DejaVuSans-69" x="1164.652344"/>
     <use xlink:href="#DejaVuSans-6e" x="1192.435547"/>
     <use xlink:href="#DejaVuSans-68" x="1255.814453"/>
     <use xlink:href="#DejaVuSans-65" x="1319.193359"/>
     <use xlink:href="#DejaVuSans-72" x="1380.716797"/>
     <use xlink:href="#DejaVuSans-69" x="1421.830078"/>
     <use xlink:href="#DejaVuSans-74" x="1449.613281"/>
     <use xlink:href="#DejaVuSans-20" x="1488.822266"/>
     <use xlink:href="#DejaVuSans-74" x="1520.609375"/>
     <use xlink:href="#DejaVuSans-68" x="1559.818359"/>
     <use xlink:href="#DejaVuSans-65" x="1623.197266"/>
     <use xlink:href="#DejaVuSans-20" x="1684.720703"/>
     <use xlink:href="#DejaVuSans-73" x="1716.507812"/>
     <use xlink:href="#DejaVuSans-61" x="1768.607422"/>
     <use xlink:href="#DejaVuSans-6d" x="1829.886719"/>
     <use xlink:href="#DejaVuSans-65" x="1927.298828"/>
     <use xlink:href="#DejaVuSans-20" x="1988.822266"/>
     <use xlink:href="#DejaVuSans-45" x="2020.609375"/>
     <use xlink:href="#DejaVuSans-4f" x="2083.792969"/>
     <use xlink:href="#DejaVuSans-4c" x="2162.503906"/>
     <use xlink:href="#DejaVuSans-20" x="2218.216797"/>
     <use xlink:href="#DejaVuSans-63" x="2250.003906"/>
     <use xlink:href="#DejaVuSans-6c" x="2304.984375"/>
     <use xlink:href="#DejaVuSans-61" x="2332.767578"/>
     <use xlink:href="#DejaVuSans-73" x="2394.046875"/>
     <use xlink:href="#DejaVuSans-73" x="2446.146484"/>
     <use xlink:href="#DejaVuSans-29" x="2498.246094"/>
    </g>
   </g>
  </g>
 </g>
 <defs>
  <clipPath id="p9557dc5fba">
   <rect x="88.938152" y="18.878209" width="687.336608" height="233.250258"/>
  </clipPath>
  <clipPath id="pefa7b2c629">
   <rect x="88.938152" y="290.68504" width="687.336608" height="106.022845"/>
  </clipPath>
 </defs>
</svg>
