<?xml version="1.0" encoding="utf-8" standalone="no"?>
<!DOCTYPE svg PUBLIC "-//W3C//DTD SVG 1.1//EN"
  "http://www.w3.org/Graphics/SVG/1.1/DTD/svg11.dtd">
<svg xmlns:xlink="http://www.w3.org/1999/xlink" width="576pt" height="432pt" viewBox="0 0 576 432" xmlns="http://www.w3.org/2000/svg" version="1.1">
 <metadata>
  <rdf:RDF xmlns:dc="http://purl.org/dc/elements/1.1/" xmlns:cc="http://creativecommons.org/ns#" xmlns:rdf="http://www.w3.org/1999/02/22-rdf-syntax-ns#">
   <cc:Work>
    <dc:type rdf:resource="http://purl.org/dc/dcmitype/StillImage"/>
    <dc:date>2026-02-12T21:05:40.481943</dc:date>
    <dc:format>image/svg+xml</dc:format>
    <dc:creator>
     <cc:Agent>
      <dc:title>Matplotlib v3.8.1, https://matplotlib.org/</dc:title>
     </cc:Agent>
    </dc:creator>
   </cc:Work>
  </rdf:RDF>
 </metadata>
 <defs>
  <style type="text/css">*{stroke-linejoin: round; stroke-linecap: butt}</style>
 </defs>
 <g id="figure_1">
  <g id="patch_1">
   <path d="M 0 432 
L 576 432 
L 576 0 
L 0 0 
z
" style="fill: #ffffff"/>
  </g>
  <g id="axes_1">
   <g id="patch_2">
    <path d="M 261.063529 179.795077 
L 355.595294 179.795077 
Q 366.098824 179.795077 366.098824 169.759385 
L 366.098824 134.634462 
Q 366.098824 124.598769 355.595294 124.598769 
L 261.063529 124.598769 
Q 250.56 124.598769 250.56 134.634462 
L 250.56 169.759385 
Q 250.56 179.795077 261.063529 179.795077 
z
" clip-path="url(#pd3642a3f6e)" style="fill: #ffefc2; stroke: #000000; stroke-width: 1.5; stroke-linejoin: miter"/>
   </g>
   <g id="patch_3">
    <path d="M 129.769412 305.241231 
L 224.301176 305.241231 
Q 234.804706 305.241231 234.804706 295.205538 
L 234.804706 260.080615 
Q 234.804706 250.044923 224.301176 250.044923 
L 129.769412 250.044923 
Q 119.265882 250.044923 119.265882 260.080615 
L 119.265882 295.205538 
Q 119.265882 305.241231 129.769412 305.241231 
z
" clip-path="url(#pd3642a3f6e)" style="fill: #ffefc2; stroke: #000000; stroke-width: 1.5; stroke-linejoin: miter"/>
   </g>
   <g id="patch_4">
    <path d="M 392.357647 305.241231 
L 486.889412 305.241231 
Q 497.392941 305.241231 497.392941 295.205538 
L 497.392941 260.080615 
Q 497.392941 250.044923 486.889412 250.044923 
L 392.357647 250.044923 
Q 381.854118 250.044923 381.854118 260.080615 
L 381.854118 295.205538 
Q 381.854118 305.241231 392.357647 305.241231 
z
" clip-path="url(#pd3642a3f6e)" style="fill: #ffefc2; stroke: #000000; stroke-width: 1.5; stroke-linejoin: miter"/>
   </g>
   <g id="patch_5">
    <path d="M 261.063529 370.473231 
L 355.595294 370.473231 
Q 366.098824 370.473231 366.098824 360.437538 
L 366.098824 325.312615 
Q 366.098824 315.276923 355.595294 315.276923 
L 261.063529 315.276923 
Q 250.56 315.276923 250.56 325.312615 
L 250.56 360.437538 
Q 250.56 370.473231 261.063529 370.473231 
z
" clip-path="url(#pd3642a3f6e)" style="fill: #ffefc2; stroke: #000000; stroke-width: 1.5; stroke-linejoin: miter"/>
   </g>
   <g id="patch_6">
    <path d="M 229.552941 109.545231 
C 233.034902 109.545231 236.374719 108.223451 238.836837 105.870998 
C 241.298955 103.518545 242.682353 100.327486 242.682353 97.000615 
C 242.682353 93.673744 241.298955 90.482686 238.836837 88.130233 
C 236.374719 85.77778 233.034902 84.456 229.552941 84.456 
C 226.07098 84.456 222.731163 85.77778 220.269045 88.130233 
C 217.806927 90.482686 216.423529 93.673744 216.423529 97.000615 
C 216.423529 100.327486 217.806927 103.518545 220.269045 105.870998 
C 222.731163 108.223451 226.07098 109.545231 229.552941 109.545231 
z
" clip-path="url(#pd3642a3f6e)" style="fill: #e8f0ff; stroke: #000000; stroke-linejoin: miter"/>
   </g>
   <g id="patch_7">
    <path d="M 308.329412 94.491692 
C 311.811372 94.491692 315.15119 93.169912 317.613308 90.81746 
C 320.075426 88.465007 321.458824 85.273948 321.458824 81.947077 
C 321.458824 78.620206 320.075426 75.429147 317.613308 73.076694 
C 315.15119 70.724241 311.811372 69.402462 308.329412 69.402462 
C 304.847451 69.402462 301.507634 70.724241 299.045516 73.076694 
C 296.583398 75.429147 295.2 78.620206 295.2 81.947077 
C 295.2 85.273948 296.583398 88.465007 299.045516 90.81746 
C 301.507634 93.169912 304.847451 94.491692 308.329412 94.491692 
z
" clip-path="url(#pd3642a3f6e)" style="fill: #e8f0ff; stroke: #000000; stroke-linejoin: miter"/>
   </g>
   <g id="patch_8">
    <path d="M 387.105882 109.545231 
C 390.587843 109.545231 393.92766 108.223451 396.389778 105.870998 
C 398.851896 103.518545 400.235294 100.327486 400.235294 97.000615 
C 400.235294 93.673744 398.851896 90.482686 396.389778 88.130233 
C 393.92766 85.77778 390.587843 84.456 387.105882 84.456 
C 383.623922 84.456 380.284104 85.77778 377.821986 88.130233 
C 375.359868 90.482686 373.976471 93.673744 373.976471 97.000615 
C 373.976471 100.327486 375.359868 103.518545 377.821986 105.870998 
C 380.284104 108.223451 383.623922 109.545231 387.105882 109.545231 
z
" clip-path="url(#pd3642a3f6e)" style="fill: #e8f0ff; stroke: #000000; stroke-linejoin: miter"/>
   </g>
   <g id="patch_9">
    <path d="M 124.517647 340.366154 
C 127.999608 340.366154 131.339425 339.044374 133.801543 336.691921 
C 136.263661 334.339468 137.647059 331.148409 137.647059 327.821538 
C 137.647059 324.494668 136.263661 321.303609 133.801543 318.951156 
C 131.339425 316.598703 127.999608 315.276923 124.517647 315.276923 
C 121.035686 315.276923 117.695869 316.598703 115.233751 318.951156 
C 112.771633 321.303609 111.388235 324.494668 111.388235 327.821538 
C 111.388235 331.148409 112.771633 334.339468 115.233751 336.691921 
C 117.695869 339.044374 121.035686 340.366154 124.517647 340.366154 
z
" clip-path="url(#pd3642a3f6e)" style="fill: #e8f0ff; stroke: #000000; stroke-linejoin: miter"/>
   </g>
   <g id="patch_10">
    <path d="M 229.552941 340.366154 
C 233.034902 340.366154 236.374719 339.044374 238.836837 336.691921 
C 241.298955 334.339468 242.682353 331.148409 242.682353 327.821538 
C 242.682353 324.494668 241.298955 321.303609 238.836837 318.951156 
C 236.374719 316.598703 233.034902 315.276923 229.552941 315.276923 
C 226.07098 315.276923 222.731163 316.598703 220.269045 318.951156 
C 217.806927 321.303609 216.423529 324.494668 216.423529 327.821538 
C 216.423529 331.148409 217.806927 334.339468 220.269045 336.691921 
C 222.731163 339.044374 226.07098 340.366154 229.552941 340.366154 
z
" clip-path="url(#pd3642a3f6e)" style="fill: #e8f0ff; stroke: #000000; stroke-linejoin: miter"/>
   </g>
   <g id="patch_11">
    <path d="M 439.623529 340.366154 
C 443.10549 340.366154 446.445307 339.044374 448.907426 336.691921 
C 451.369544 334.339468 452.752941 331.148409 452.752941 327.821538 
C 452.752941 324.494668 451.369544 321.303609 448.907426 318.951156 
C 446.445307 316.598703 443.10549 315.276923 439.623529 315.276923 
C 436.141569 315.276923 432.801751 316.598703 430.339633 318.951156 
C 427.877515 321.303609 426.494118 324.494668 426.494118 327.821538 
C 426.494118 331.148409 427.877515 334.339468 430.339633 336.691921 
C 432.801751 339.044374 436.141569 340.366154 439.623529 340.366154 
z
" clip-path="url(#pd3642a3f6e)" style="fill: #e8f0ff; stroke: #000000; stroke-linejoin: miter"/>
   </g>
   <g id="text_1">
    <!-- NMC family -->
    <g transform="translate(276.312224 154.917236) scale(0.1 -0.1)">
     <defs>
      <path id="DejaVuSans-Bold-4e" d="M 588 4666 
L 1931 4666 
L 3628 1466 
L 3628 4666 
L 4769 4666 
L 4769 0 
L 3425 0 
L 1728 3200 
L 1728 0 
L 588 0 
L 588 4666 
z
" transform="scale(0.015625)"/>
      <path id="DejaVuSans-Bold-4d" d="M 588 4666 
L 2119 4666 
L 3181 2169 
L 4250 4666 
L 5778 4666 
L 5778 0 
L 4641 0 
L 4641 3413 
L 3566 897 
L 2803 897 
L 1728 3413 
L 1728 0 
L 588 0 
L 588 4666 
z
" transform="scale(0.015625)"/>
      <path id="DejaVuSans-Bold-43" d="M 4288 256 
Q 3956 84 3597 -3 
Q 3238 -91 2847 -91 
Q 1681 -91 1000 561 
Q 319 1213 319 2328 
Q 319 3447 1000 4098 
Q 1681 4750 2847 4750 
Q 3238 4750 3597 4662 
Q 3956 4575 4288 4403 
L 4288 3438 
Q 3953 3666 3628 3772 
Q 3303 3878 2944 3878 
Q 2300 3878 1931 3465 
Q 1563 3053 1563 2328 
Q 1563 1606 1931 1193 
Q 2300 781 2944 781 
Q 3303 781 3628 887 
Q 3953 994 4288 1222 
L 4288 256 
z
" transform="scale(0.015625)"/>
      <path id="DejaVuSans-Bold-20" transform="scale(0.015625)"/>
      <path id="DejaVuSans-Bold-66" d="M 2841 4863 
L 2841 4128 
L 2222 4128 
Q 1984 4128 1890 4042 
Q 1797 3956 1797 3744 
L 1797 3500 
L 2753 3500 
L 2753 2700 
L 1797 2700 
L 1797 0 
L 678 0 
L 678 2700 
L 122 2700 
L 122 3500 
L 678 3500 
L 678 3744 
Q 678 4316 997 4589 
Q 1316 4863 1984 4863 
L 2841 4863 
z
" transform="scale(0.015625)"/>
      <path id="DejaVuSans-Bold-61" d="M 2106 1575 
Q 1756 1575 1579 1456 
Q 1403 1338 1403 1106 
Q 1403 894 1545 773 
Q 1688 653 1941 653 
Q 2256 653 2472 879 
Q 2688 1106 2688 1447 
L 2688 1575 
L 2106 1575 
z
M 3816 1997 
L 3816 0 
L 2688 0 
L 2688 519 
Q 2463 200 2181 54 
Q 1900 -91 1497 -91 
Q 953 -91 614 226 
Q 275 544 275 1050 
Q 275 1666 698 1953 
Q 1122 2241 2028 2241 
L 2688 2241 
L 2688 2328 
Q 2688 2594 2478 2717 
Q 2269 2841 1825 2841 
Q 1466 2841 1156 2769 
Q 847 2697 581 2553 
L 581 3406 
Q 941 3494 1303 3539 
Q 1666 3584 2028 3584 
Q 2975 3584 3395 3211 
Q 3816 2838 3816 1997 
z
" transform="scale(0.015625)"/>
      <path id="DejaVuSans-Bold-6d" d="M 3781 2919 
Q 3994 3244 4286 3414 
Q 4578 3584 4928 3584 
Q 5531 3584 5847 3212 
Q 6163 2841 6163 2131 
L 6163 0 
L 5038 0 
L 5038 1825 
Q 5041 1866 5042 1909 
Q 5044 1953 5044 2034 
Q 5044 2406 4934 2573 
Q 4825 2741 4581 2741 
Q 4263 2741 4089 2478 
Q 3916 2216 3909 1719 
L 3909 0 
L 2784 0 
L 2784 1825 
Q 2784 2406 2684 2573 
Q 2584 2741 2328 2741 
Q 2006 2741 1831 2477 
Q 1656 2213 1656 1722 
L 1656 0 
L 531 0 
L 531 3500 
L 1656 3500 
L 1656 2988 
Q 1863 3284 2130 3434 
Q 2397 3584 2719 3584 
Q 3081 3584 3359 3409 
Q 3638 3234 3781 2919 
z
" transform="scale(0.015625)"/>
      <path id="DejaVuSans-Bold-69" d="M 538 3500 
L 1656 3500 
L 1656 0 
L 538 0 
L 538 3500 
z
M 538 4863 
L 1656 4863 
L 1656 3950 
L 538 3950 
L 538 4863 
z
" transform="scale(0.015625)"/>
      <path id="DejaVuSans-Bold-6c" d="M 538 4863 
L 1656 4863 
L 1656 0 
L 538 0 
L 538 4863 
z
" transform="scale(0.015625)"/>
      <path id="DejaVuSans-Bold-79" d="M 78 3500 
L 1197 3500 
L 2138 1125 
L 2938 3500 
L 4056 3500 
L 2584 -331 
Q 2363 -916 2067 -1148 
Q 1772 -1381 1288 -1381 
L 641 -1381 
L 641 -647 
L 991 -647 
Q 1275 -647 1404 -556 
Q 1534 -466 1606 -231 
L 1638 -134 
L 78 3500 
z
" transform="scale(0.015625)"/>
     </defs>
     <use xlink:href="#DejaVuSans-Bold-4e"/>
     <use xlink:href="#DejaVuSans-Bold-4d" x="83.691406"/>
     <use xlink:href="#DejaVuSans-Bold-43" x="183.203125"/>
     <use xlink:href="#DejaVuSans-Bold-20" x="256.591797"/>
     <use xlink:href="#DejaVuSans-Bold-66" x="291.40625"/>
     <use xlink:href="#DejaVuSans-Bold-61" x="334.912109"/>
     <use xlink:href="#DejaVuSans-Bold-6d" x="402.392578"/>
     <use xlink:href="#DejaVuSans-Bold-69" x="506.591797"/>
     <use xlink:href="#DejaVuSans-Bold-6c" x="540.869141"/>
     <use xlink:href="#DejaVuSans-Bold-79" x="575.146484"/>
    </g>
   </g>
   <g id="text_2">
    <!-- Li-rich -->
    <g transform="translate(159.357169 274.764483) scale(0.1 -0.1)">
     <defs>
      <path id="DejaVuSans-Bold-4c" d="M 588 4666 
L 1791 4666 
L 1791 909 
L 3903 909 
L 3903 0 
L 588 0 
L 588 4666 
z
" transform="scale(0.015625)"/>
      <path id="DejaVuSans-Bold-2d" d="M 347 2297 
L 2309 2297 
L 2309 1388 
L 347 1388 
L 347 2297 
z
" transform="scale(0.015625)"/>
      <path id="DejaVuSans-Bold-72" d="M 3138 2547 
Q 2991 2616 2845 2648 
Q 2700 2681 2553 2681 
Q 2122 2681 1889 2404 
Q 1656 2128 1656 1613 
L 1656 0 
L 538 0 
L 538 3500 
L 1656 3500 
L 1656 2925 
Q 1872 3269 2151 3426 
Q 2431 3584 2822 3584 
Q 2878 3584 2943 3579 
Q 3009 3575 3134 3559 
L 3138 2547 
z
" transform="scale(0.015625)"/>
      <path id="DejaVuSans-Bold-63" d="M 3366 3391 
L 3366 2478 
Q 3138 2634 2908 2709 
Q 2678 2784 2431 2784 
Q 1963 2784 1702 2511 
Q 1441 2238 1441 1747 
Q 1441 1256 1702 982 
Q 1963 709 2431 709 
Q 2694 709 2930 787 
Q 3166 866 3366 1019 
L 3366 103 
Q 3103 6 2833 -42 
Q 2563 -91 2291 -91 
Q 1344 -91 809 395 
Q 275 881 275 1747 
Q 275 2613 809 3098 
Q 1344 3584 2291 3584 
Q 2566 3584 2833 3536 
Q 3100 3488 3366 3391 
z
" transform="scale(0.015625)"/>
      <path id="DejaVuSans-Bold-68" d="M 4056 2131 
L 4056 0 
L 2931 0 
L 2931 347 
L 2931 1625 
Q 2931 2084 2911 2256 
Q 2891 2428 2841 2509 
Q 2775 2619 2662 2680 
Q 2550 2741 2406 2741 
Q 2056 2741 1856 2470 
Q 1656 2200 1656 1722 
L 1656 0 
L 538 0 
L 538 4863 
L 1656 4863 
L 1656 2988 
Q 1909 3294 2193 3439 
Q 2478 3584 2822 3584 
Q 3428 3584 3742 3212 
Q 4056 2841 4056 2131 
z
" transform="scale(0.015625)"/>
     </defs>
     <use xlink:href="#DejaVuSans-Bold-4c"/>
     <use xlink:href="#DejaVuSans-Bold-69" x="63.720703"/>
     <use xlink:href="#DejaVuSans-Bold-2d" x="97.998047"/>
     <use xlink:href="#DejaVuSans-Bold-72" x="139.501953"/>
     <use xlink:href="#DejaVuSans-Bold-69" x="188.818359"/>
     <use xlink:href="#DejaVuSans-Bold-63" x="223.095703"/>
     <use xlink:href="#DejaVuSans-Bold-68" x="282.373047"/>
    </g>
    <!-- family -->
    <g transform="translate(159.588419 285.962296) scale(0.1 -0.1)">
     <use xlink:href="#DejaVuSans-Bold-66"/>
     <use xlink:href="#DejaVuSans-Bold-61" x="43.505859"/>
     <use xlink:href="#DejaVuSans-Bold-6d" x="110.986328"/>
     <use xlink:href="#DejaVuSans-Bold-69" x="215.185547"/>
     <use xlink:href="#DejaVuSans-Bold-6c" x="249.462891"/>
     <use xlink:href="#DejaVuSans-Bold-79" x="283.740234"/>
    </g>
   </g>
   <g id="text_3">
    <!-- 5Vspinel -->
    <g transform="translate(415.341498 274.764483) scale(0.1 -0.1)">
     <defs>
      <path id="DejaVuSans-Bold-35" d="M 678 4666 
L 3669 4666 
L 3669 3781 
L 1638 3781 
L 1638 3059 
Q 1775 3097 1914 3117 
Q 2053 3138 2203 3138 
Q 3056 3138 3531 2711 
Q 4006 2284 4006 1522 
Q 4006 766 3489 337 
Q 2972 -91 2053 -91 
Q 1656 -91 1267 -14 
Q 878 63 494 219 
L 494 1166 
Q 875 947 1217 837 
Q 1559 728 1863 728 
Q 2300 728 2551 942 
Q 2803 1156 2803 1522 
Q 2803 1891 2551 2103 
Q 2300 2316 1863 2316 
Q 1603 2316 1309 2248 
Q 1016 2181 678 2041 
L 678 4666 
z
" transform="scale(0.015625)"/>
      <path id="DejaVuSans-Bold-56" d="M 31 4666 
L 1241 4666 
L 2478 1222 
L 3713 4666 
L 4922 4666 
L 3194 0 
L 1759 0 
L 31 4666 
z
" transform="scale(0.015625)"/>
      <path id="DejaVuSans-Bold-73" d="M 3272 3391 
L 3272 2541 
Q 2913 2691 2578 2766 
Q 2244 2841 1947 2841 
Q 1628 2841 1473 2761 
Q 1319 2681 1319 2516 
Q 1319 2381 1436 2309 
Q 1553 2238 1856 2203 
L 2053 2175 
Q 2913 2066 3209 1816 
Q 3506 1566 3506 1031 
Q 3506 472 3093 190 
Q 2681 -91 1863 -91 
Q 1516 -91 1145 -36 
Q 775 19 384 128 
L 384 978 
Q 719 816 1070 734 
Q 1422 653 1784 653 
Q 2113 653 2278 743 
Q 2444 834 2444 1013 
Q 2444 1163 2330 1236 
Q 2216 1309 1875 1350 
L 1678 1375 
Q 931 1469 631 1722 
Q 331 1975 331 2491 
Q 331 3047 712 3315 
Q 1094 3584 1881 3584 
Q 2191 3584 2531 3537 
Q 2872 3491 3272 3391 
z
" transform="scale(0.015625)"/>
      <path id="DejaVuSans-Bold-70" d="M 1656 506 
L 1656 -1331 
L 538 -1331 
L 538 3500 
L 1656 3500 
L 1656 2988 
Q 1888 3294 2169 3439 
Q 2450 3584 2816 3584 
Q 3463 3584 3878 3070 
Q 4294 2556 4294 1747 
Q 4294 938 3878 423 
Q 3463 -91 2816 -91 
Q 2450 -91 2169 54 
Q 1888 200 1656 506 
z
M 2400 2772 
Q 2041 2772 1848 2508 
Q 1656 2244 1656 1747 
Q 1656 1250 1848 986 
Q 2041 722 2400 722 
Q 2759 722 2948 984 
Q 3138 1247 3138 1747 
Q 3138 2247 2948 2509 
Q 2759 2772 2400 2772 
z
" transform="scale(0.015625)"/>
      <path id="DejaVuSans-Bold-6e" d="M 4056 2131 
L 4056 0 
L 2931 0 
L 2931 347 
L 2931 1631 
Q 2931 2084 2911 2256 
Q 2891 2428 2841 2509 
Q 2775 2619 2662 2680 
Q 2550 2741 2406 2741 
Q 2056 2741 1856 2470 
Q 1656 2200 1656 1722 
L 1656 0 
L 538 0 
L 538 3500 
L 1656 3500 
L 1656 2988 
Q 1909 3294 2193 3439 
Q 2478 3584 2822 3584 
Q 3428 3584 3742 3212 
Q 4056 2841 4056 2131 
z
" transform="scale(0.015625)"/>
      <path id="DejaVuSans-Bold-65" d="M 4031 1759 
L 4031 1441 
L 1416 1441 
Q 1456 1047 1700 850 
Q 1944 653 2381 653 
Q 2734 653 3104 758 
Q 3475 863 3866 1075 
L 3866 213 
Q 3469 63 3072 -14 
Q 2675 -91 2278 -91 
Q 1328 -91 801 392 
Q 275 875 275 1747 
Q 275 2603 792 3093 
Q 1309 3584 2216 3584 
Q 3041 3584 3536 3087 
Q 4031 2591 4031 1759 
z
M 2881 2131 
Q 2881 2450 2695 2645 
Q 2509 2841 2209 2841 
Q 1884 2841 1681 2658 
Q 1478 2475 1428 2131 
L 2881 2131 
z
" transform="scale(0.015625)"/>
     </defs>
     <use xlink:href="#DejaVuSans-Bold-35"/>
     <use xlink:href="#DejaVuSans-Bold-56" x="69.580078"/>
     <use xlink:href="#DejaVuSans-Bold-73" x="146.972656"/>
     <use xlink:href="#DejaVuSans-Bold-70" x="206.494141"/>
     <use xlink:href="#DejaVuSans-Bold-69" x="278.076172"/>
     <use xlink:href="#DejaVuSans-Bold-6e" x="312.353516"/>
     <use xlink:href="#DejaVuSans-Bold-65" x="383.544922"/>
     <use xlink:href="#DejaVuSans-Bold-6c" x="451.367188"/>
    </g>
    <!-- family -->
    <g transform="translate(422.176654 285.962296) scale(0.1 -0.1)">
     <use xlink:href="#DejaVuSans-Bold-66"/>
     <use xlink:href="#DejaVuSans-Bold-61" x="43.505859"/>
     <use xlink:href="#DejaVuSans-Bold-6d" x="110.986328"/>
     <use xlink:href="#DejaVuSans-Bold-69" x="215.185547"/>
     <use xlink:href="#DejaVuSans-Bold-6c" x="249.462891"/>
     <use xlink:href="#DejaVuSans-Bold-79" x="283.740234"/>
    </g>
   </g>
   <g id="text_4">
    <!-- FCG -->
    <g transform="translate(297.140349 339.996483) scale(0.1 -0.1)">
     <defs>
      <path id="DejaVuSans-Bold-46" d="M 588 4666 
L 3834 4666 
L 3834 3756 
L 1791 3756 
L 1791 2888 
L 3713 2888 
L 3713 1978 
L 1791 1978 
L 1791 0 
L 588 0 
L 588 4666 
z
" transform="scale(0.015625)"/>
      <path id="DejaVuSans-Bold-47" d="M 4781 347 
Q 4331 128 3847 18 
Q 3363 -91 2847 -91 
Q 1681 -91 1000 561 
Q 319 1213 319 2328 
Q 319 3456 1012 4103 
Q 1706 4750 2913 4750 
Q 3378 4750 3804 4662 
Q 4231 4575 4609 4403 
L 4609 3438 
Q 4219 3659 3833 3768 
Q 3447 3878 3059 3878 
Q 2341 3878 1952 3476 
Q 1563 3075 1563 2328 
Q 1563 1588 1938 1184 
Q 2313 781 3003 781 
Q 3191 781 3352 804 
Q 3513 828 3641 878 
L 3641 1784 
L 2906 1784 
L 2906 2591 
L 4781 2591 
L 4781 347 
z
" transform="scale(0.015625)"/>
     </defs>
     <use xlink:href="#DejaVuSans-Bold-46"/>
     <use xlink:href="#DejaVuSans-Bold-43" x="68.310547"/>
     <use xlink:href="#DejaVuSans-Bold-47" x="141.699219"/>
    </g>
    <!-- family -->
    <g transform="translate(290.882537 351.194296) scale(0.1 -0.1)">
     <use xlink:href="#DejaVuSans-Bold-66"/>
     <use xlink:href="#DejaVuSans-Bold-61" x="43.505859"/>
     <use xlink:href="#DejaVuSans-Bold-6d" x="110.986328"/>
     <use xlink:href="#DejaVuSans-Bold-69" x="215.185547"/>
     <use xlink:href="#DejaVuSans-Bold-6c" x="249.462891"/>
     <use xlink:href="#DejaVuSans-Bold-79" x="283.740234"/>
    </g>
   </g>
   <g id="text_5">
    <!-- HE5050 -->
    <g transform="translate(213.837316 99.208115) scale(0.08 -0.08)">
     <defs>
      <path id="DejaVuSans-48" d="M 628 4666 
L 1259 4666 
L 1259 2753 
L 3553 2753 
L 3553 4666 
L 4184 4666 
L 4184 0 
L 3553 0 
L 3553 2222 
L 1259 2222 
L 1259 0 
L 628 0 
L 628 4666 
z
" transform="scale(0.015625)"/>
      <path id="DejaVuSans-45" d="M 628 4666 
L 3578 4666 
L 3578 4134 
L 1259 4134 
L 1259 2753 
L 3481 2753 
L 3481 2222 
L 1259 2222 
L 1259 531 
L 3634 531 
L 3634 0 
L 628 0 
L 628 4666 
z
" transform="scale(0.015625)"/>
      <path id="DejaVuSans-35" d="M 691 4666 
L 3169 4666 
L 3169 4134 
L 1269 4134 
L 1269 2991 
Q 1406 3038 1543 3061 
Q 1681 3084 1819 3084 
Q 2600 3084 3056 2656 
Q 3513 2228 3513 1497 
Q 3513 744 3044 326 
Q 2575 -91 1722 -91 
Q 1428 -91 1123 -41 
Q 819 9 494 109 
L 494 744 
Q 775 591 1075 516 
Q 1375 441 1709 441 
Q 2250 441 2565 725 
Q 2881 1009 2881 1497 
Q 2881 1984 2565 2268 
Q 2250 2553 1709 2553 
Q 1456 2553 1204 2497 
Q 953 2441 691 2322 
L 691 4666 
z
" transform="scale(0.015625)"/>
      <path id="DejaVuSans-30" d="M 2034 4250 
Q 1547 4250 1301 3770 
Q 1056 3291 1056 2328 
Q 1056 1369 1301 889 
Q 1547 409 2034 409 
Q 2525 409 2770 889 
Q 3016 1369 3016 2328 
Q 3016 3291 2770 3770 
Q 2525 4250 2034 4250 
z
M 2034 4750 
Q 2819 4750 3233 4129 
Q 3647 3509 3647 2328 
Q 3647 1150 3233 529 
Q 2819 -91 2034 -91 
Q 1250 -91 836 529 
Q 422 1150 422 2328 
Q 422 3509 836 4129 
Q 1250 4750 2034 4750 
z
" transform="scale(0.015625)"/>
     </defs>
     <use xlink:href="#DejaVuSans-48"/>
     <use xlink:href="#DejaVuSans-45" x="75.195312"/>
     <use xlink:href="#DejaVuSans-35" x="138.378906"/>
     <use xlink:href="#DejaVuSans-30" x="202.001953"/>
     <use xlink:href="#DejaVuSans-35" x="265.625"/>
     <use xlink:href="#DejaVuSans-30" x="329.248047"/>
    </g>
   </g>
   <g id="text_6">
    <!-- NMC111 -->
    <g transform="translate(291.457537 84.154577) scale(0.08 -0.08)">
     <defs>
      <path id="DejaVuSans-4e" d="M 628 4666 
L 1478 4666 
L 3547 763 
L 3547 4666 
L 4159 4666 
L 4159 0 
L 3309 0 
L 1241 3903 
L 1241 0 
L 628 0 
L 628 4666 
z
" transform="scale(0.015625)"/>
      <path id="DejaVuSans-4d" d="M 628 4666 
L 1569 4666 
L 2759 1491 
L 3956 4666 
L 4897 4666 
L 4897 0 
L 4281 0 
L 4281 4097 
L 3078 897 
L 2444 897 
L 1241 4097 
L 1241 0 
L 628 0 
L 628 4666 
z
" transform="scale(0.015625)"/>
      <path id="DejaVuSans-43" d="M 4122 4306 
L 4122 3641 
Q 3803 3938 3442 4084 
Q 3081 4231 2675 4231 
Q 1875 4231 1450 3742 
Q 1025 3253 1025 2328 
Q 1025 1406 1450 917 
Q 1875 428 2675 428 
Q 3081 428 3442 575 
Q 3803 722 4122 1019 
L 4122 359 
Q 3791 134 3420 21 
Q 3050 -91 2638 -91 
Q 1578 -91 968 557 
Q 359 1206 359 2328 
Q 359 3453 968 4101 
Q 1578 4750 2638 4750 
Q 3056 4750 3426 4639 
Q 3797 4528 4122 4306 
z
" transform="scale(0.015625)"/>
      <path id="DejaVuSans-31" d="M 794 531 
L 1825 531 
L 1825 4091 
L 703 3866 
L 703 4441 
L 1819 4666 
L 2450 4666 
L 2450 531 
L 3481 531 
L 3481 0 
L 794 0 
L 794 531 
z
" transform="scale(0.015625)"/>
     </defs>
     <use xlink:href="#DejaVuSans-4e"/>
     <use xlink:href="#DejaVuSans-4d" x="74.804688"/>
     <use xlink:href="#DejaVuSans-43" x="161.083984"/>
     <use xlink:href="#DejaVuSans-31" x="230.908203"/>
     <use xlink:href="#DejaVuSans-31" x="294.53125"/>
     <use xlink:href="#DejaVuSans-31" x="358.154297"/>
    </g>
   </g>
   <g id="text_7">
    <!-- NMC532 -->
    <g transform="translate(370.234007 99.208115) scale(0.08 -0.08)">
     <defs>
      <path id="DejaVuSans-33" d="M 2597 2516 
Q 3050 2419 3304 2112 
Q 3559 1806 3559 1356 
Q 3559 666 3084 287 
Q 2609 -91 1734 -91 
Q 1441 -91 1130 -33 
Q 819 25 488 141 
L 488 750 
Q 750 597 1062 519 
Q 1375 441 1716 441 
Q 2309 441 2620 675 
Q 2931 909 2931 1356 
Q 2931 1769 2642 2001 
Q 2353 2234 1838 2234 
L 1294 2234 
L 1294 2753 
L 1863 2753 
Q 2328 2753 2575 2939 
Q 2822 3125 2822 3475 
Q 2822 3834 2567 4026 
Q 2313 4219 1838 4219 
Q 1578 4219 1281 4162 
Q 984 4106 628 3988 
L 628 4550 
Q 988 4650 1302 4700 
Q 1616 4750 1894 4750 
Q 2613 4750 3031 4423 
Q 3450 4097 3450 3541 
Q 3450 3153 3228 2886 
Q 3006 2619 2597 2516 
z
" transform="scale(0.015625)"/>
      <path id="DejaVuSans-32" d="M 1228 531 
L 3431 531 
L 3431 0 
L 469 0 
L 469 531 
Q 828 903 1448 1529 
Q 2069 2156 2228 2338 
Q 2531 2678 2651 2914 
Q 2772 3150 2772 3378 
Q 2772 3750 2511 3984 
Q 2250 4219 1831 4219 
Q 1534 4219 1204 4116 
Q 875 4013 500 3803 
L 500 4441 
Q 881 4594 1212 4672 
Q 1544 4750 1819 4750 
Q 2544 4750 2975 4387 
Q 3406 4025 3406 3419 
Q 3406 3131 3298 2873 
Q 3191 2616 2906 2266 
Q 2828 2175 2409 1742 
Q 1991 1309 1228 531 
z
" transform="scale(0.015625)"/>
     </defs>
     <use xlink:href="#DejaVuSans-4e"/>
     <use xlink:href="#DejaVuSans-4d" x="74.804688"/>
     <use xlink:href="#DejaVuSans-43" x="161.083984"/>
     <use xlink:href="#DejaVuSans-35" x="230.908203"/>
     <use xlink:href="#DejaVuSans-33" x="294.53125"/>
     <use xlink:href="#DejaVuSans-32" x="358.154297"/>
    </g>
   </g>
   <g id="text_8">
    <!-- Li1.2Ni0.3Mn0.6O2 -->
    <g transform="translate(86.310147 330.029038) scale(0.08 -0.08)">
     <defs>
      <path id="DejaVuSans-4c" d="M 628 4666 
L 1259 4666 
L 1259 531 
L 3531 531 
L 3531 0 
L 628 0 
L 628 4666 
z
" transform="scale(0.015625)"/>
      <path id="DejaVuSans-69" d="M 603 3500 
L 1178 3500 
L 1178 0 
L 603 0 
L 603 3500 
z
M 603 4863 
L 1178 4863 
L 1178 4134 
L 603 4134 
L 603 4863 
z
" transform="scale(0.015625)"/>
      <path id="DejaVuSans-2e" d="M 684 794 
L 1344 794 
L 1344 0 
L 684 0 
L 684 794 
z
" transform="scale(0.015625)"/>
      <path id="DejaVuSans-6e" d="M 3513 2113 
L 3513 0 
L 2938 0 
L 2938 2094 
Q 2938 2591 2744 2837 
Q 2550 3084 2163 3084 
Q 1697 3084 1428 2787 
Q 1159 2491 1159 1978 
L 1159 0 
L 581 0 
L 581 3500 
L 1159 3500 
L 1159 2956 
Q 1366 3272 1645 3428 
Q 1925 3584 2291 3584 
Q 2894 3584 3203 3211 
Q 3513 2838 3513 2113 
z
" transform="scale(0.015625)"/>
      <path id="DejaVuSans-36" d="M 2113 2584 
Q 1688 2584 1439 2293 
Q 1191 2003 1191 1497 
Q 1191 994 1439 701 
Q 1688 409 2113 409 
Q 2538 409 2786 701 
Q 3034 994 3034 1497 
Q 3034 2003 2786 2293 
Q 2538 2584 2113 2584 
z
M 3366 4563 
L 3366 3988 
Q 3128 4100 2886 4159 
Q 2644 4219 2406 4219 
Q 1781 4219 1451 3797 
Q 1122 3375 1075 2522 
Q 1259 2794 1537 2939 
Q 1816 3084 2150 3084 
Q 2853 3084 3261 2657 
Q 3669 2231 3669 1497 
Q 3669 778 3244 343 
Q 2819 -91 2113 -91 
Q 1303 -91 875 529 
Q 447 1150 447 2328 
Q 447 3434 972 4092 
Q 1497 4750 2381 4750 
Q 2619 4750 2861 4703 
Q 3103 4656 3366 4563 
z
" transform="scale(0.015625)"/>
      <path id="DejaVuSans-4f" d="M 2522 4238 
Q 1834 4238 1429 3725 
Q 1025 3213 1025 2328 
Q 1025 1447 1429 934 
Q 1834 422 2522 422 
Q 3209 422 3611 934 
Q 4013 1447 4013 2328 
Q 4013 3213 3611 3725 
Q 3209 4238 2522 4238 
z
M 2522 4750 
Q 3503 4750 4090 4092 
Q 4678 3434 4678 2328 
Q 4678 1225 4090 567 
Q 3503 -91 2522 -91 
Q 1538 -91 948 565 
Q 359 1222 359 2328 
Q 359 3434 948 4092 
Q 1538 4750 2522 4750 
z
" transform="scale(0.015625)"/>
     </defs>
     <use xlink:href="#DejaVuSans-4c"/>
     <use xlink:href="#DejaVuSans-69" x="55.712891"/>
     <use xlink:href="#DejaVuSans-31" x="83.496094"/>
     <use xlink:href="#DejaVuSans-2e" x="147.119141"/>
     <use xlink:href="#DejaVuSans-32" x="178.90625"/>
     <use xlink:href="#DejaVuSans-4e" x="242.529297"/>
     <use xlink:href="#DejaVuSans-69" x="317.333984"/>
     <use xlink:href="#DejaVuSans-30" x="345.117188"/>
     <use xlink:href="#DejaVuSans-2e" x="408.740234"/>
     <use xlink:href="#DejaVuSans-33" x="440.527344"/>
     <use xlink:href="#DejaVuSans-4d" x="504.150391"/>
     <use xlink:href="#DejaVuSans-6e" x="590.429688"/>
     <use xlink:href="#DejaVuSans-30" x="653.808594"/>
     <use xlink:href="#DejaVuSans-2e" x="717.431641"/>
     <use xlink:href="#DejaVuSans-36" x="749.21875"/>
     <use xlink:href="#DejaVuSans-4f" x="812.841797"/>
     <use xlink:href="#DejaVuSans-32" x="891.552734"/>
    </g>
   </g>
   <g id="text_9">
    <!-- Li1.35Ni0.33Mn0.67O2.35 -->
    <g transform="translate(177.349191 330.029038) scale(0.08 -0.08)">
     <defs>
      <path id="DejaVuSans-37" d="M 525 4666 
L 3525 4666 
L 3525 4397 
L 1831 0 
L 1172 0 
L 2766 4134 
L 525 4134 
L 525 4666 
z
" transform="scale(0.015625)"/>
     </defs>
     <use xlink:href="#DejaVuSans-4c"/>
     <use xlink:href="#DejaVuSans-69" x="55.712891"/>
     <use xlink:href="#DejaVuSans-31" x="83.496094"/>
     <use xlink:href="#DejaVuSans-2e" x="147.119141"/>
     <use xlink:href="#DejaVuSans-33" x="178.90625"/>
     <use xlink:href="#DejaVuSans-35" x="242.529297"/>
     <use xlink:href="#DejaVuSans-4e" x="306.152344"/>
     <use xlink:href="#DejaVuSans-69" x="380.957031"/>
     <use xlink:href="#DejaVuSans-30" x="408.740234"/>
     <use xlink:href="#DejaVuSans-2e" x="472.363281"/>
     <use xlink:href="#DejaVuSans-33" x="504.150391"/>
     <use xlink:href="#DejaVuSans-33" x="567.773438"/>
     <use xlink:href="#DejaVuSans-4d" x="631.396484"/>
     <use xlink:href="#DejaVuSans-6e" x="717.675781"/>
     <use xlink:href="#DejaVuSans-30" x="781.054688"/>
     <use xlink:href="#DejaVuSans-2e" x="844.677734"/>
     <use xlink:href="#DejaVuSans-36" x="876.464844"/>
     <use xlink:href="#DejaVuSans-37" x="940.087891"/>
     <use xlink:href="#DejaVuSans-4f" x="1003.710938"/>
     <use xlink:href="#DejaVuSans-32" x="1082.421875"/>
     <use xlink:href="#DejaVuSans-2e" x="1146.044922"/>
     <use xlink:href="#DejaVuSans-33" x="1177.832031"/>
     <use xlink:href="#DejaVuSans-35" x="1241.455078"/>
    </g>
   </g>
   <g id="text_10">
    <!-- 5Vspinel -->
    <g transform="translate(422.500404 330.029038) scale(0.08 -0.08)">
     <defs>
      <path id="DejaVuSans-56" d="M 1831 0 
L 50 4666 
L 709 4666 
L 2188 738 
L 3669 4666 
L 4325 4666 
L 2547 0 
L 1831 0 
z
" transform="scale(0.015625)"/>
      <path id="DejaVuSans-73" d="M 2834 3397 
L 2834 2853 
Q 2591 2978 2328 3040 
Q 2066 3103 1784 3103 
Q 1356 3103 1142 2972 
Q 928 2841 928 2578 
Q 928 2378 1081 2264 
Q 1234 2150 1697 2047 
L 1894 2003 
Q 2506 1872 2764 1633 
Q 3022 1394 3022 966 
Q 3022 478 2636 193 
Q 2250 -91 1575 -91 
Q 1294 -91 989 -36 
Q 684 19 347 128 
L 347 722 
Q 666 556 975 473 
Q 1284 391 1588 391 
Q 1994 391 2212 530 
Q 2431 669 2431 922 
Q 2431 1156 2273 1281 
Q 2116 1406 1581 1522 
L 1381 1569 
Q 847 1681 609 1914 
Q 372 2147 372 2553 
Q 372 3047 722 3315 
Q 1072 3584 1716 3584 
Q 2034 3584 2315 3537 
Q 2597 3491 2834 3397 
z
" transform="scale(0.015625)"/>
      <path id="DejaVuSans-70" d="M 1159 525 
L 1159 -1331 
L 581 -1331 
L 581 3500 
L 1159 3500 
L 1159 2969 
Q 1341 3281 1617 3432 
Q 1894 3584 2278 3584 
Q 2916 3584 3314 3078 
Q 3713 2572 3713 1747 
Q 3713 922 3314 415 
Q 2916 -91 2278 -91 
Q 1894 -91 1617 61 
Q 1341 213 1159 525 
z
M 3116 1747 
Q 3116 2381 2855 2742 
Q 2594 3103 2138 3103 
Q 1681 3103 1420 2742 
Q 1159 2381 1159 1747 
Q 1159 1113 1420 752 
Q 1681 391 2138 391 
Q 2594 391 2855 752 
Q 3116 1113 3116 1747 
z
" transform="scale(0.015625)"/>
      <path id="DejaVuSans-65" d="M 3597 1894 
L 3597 1613 
L 953 1613 
Q 991 1019 1311 708 
Q 1631 397 2203 397 
Q 2534 397 2845 478 
Q 3156 559 3463 722 
L 3463 178 
Q 3153 47 2828 -22 
Q 2503 -91 2169 -91 
Q 1331 -91 842 396 
Q 353 884 353 1716 
Q 353 2575 817 3079 
Q 1281 3584 2069 3584 
Q 2775 3584 3186 3129 
Q 3597 2675 3597 1894 
z
M 3022 2063 
Q 3016 2534 2758 2815 
Q 2500 3097 2075 3097 
Q 1594 3097 1305 2825 
Q 1016 2553 972 2059 
L 3022 2063 
z
" transform="scale(0.015625)"/>
      <path id="DejaVuSans-6c" d="M 603 4863 
L 1178 4863 
L 1178 0 
L 603 0 
L 603 4863 
z
" transform="scale(0.015625)"/>
     </defs>
     <use xlink:href="#DejaVuSans-35"/>
     <use xlink:href="#DejaVuSans-56" x="63.623047"/>
     <use xlink:href="#DejaVuSans-73" x="132.03125"/>
     <use xlink:href="#DejaVuSans-70" x="184.130859"/>
     <use xlink:href="#DejaVuSans-69" x="247.607422"/>
     <use xlink:href="#DejaVuSans-6e" x="275.390625"/>
     <use xlink:href="#DejaVuSans-65" x="338.769531"/>
     <use xlink:href="#DejaVuSans-6c" x="400.292969"/>
    </g>
   </g>
   <g id="patch_12">
    <path d="M 306.995155 170.781008 
Q 268.941694 128.362731 230.888233 85.944453 
" style="fill: none; stroke: #808080; stroke-linecap: round"/>
   </g>
   <g id="patch_13">
    <path d="M 308.329412 170.268627 
Q 308.329412 120.834417 308.329412 71.400208 
" style="fill: none; stroke: #808080; stroke-linecap: round"/>
   </g>
   <g id="patch_14">
    <path d="M 309.663669 170.781008 
Q 347.71713 128.362731 385.77059 85.944453 
" style="fill: none; stroke: #808080; stroke-linecap: round"/>
   </g>
   <g id="patch_15">
    <path d="M 175.692222 259.04743 
Q 150.778038 286.422586 125.863853 313.797741 
" style="fill: none; stroke: #808080; stroke-linecap: round"/>
   </g>
   <g id="patch_16">
    <path d="M 178.378366 259.04743 
Q 203.292551 286.422586 228.206735 313.797741 
" style="fill: none; stroke: #808080; stroke-linecap: round"/>
   </g>
   <g id="patch_17">
    <path d="M 439.623529 259.568693 
Q 439.623529 286.421461 439.623529 313.274229 
" style="fill: none; stroke: #808080; stroke-linecap: round"/>
   </g>
   <g id="patch_18">
    <path d="M 308.329412 340.876238 
Q 308.329412 247.537039 308.329412 156.210302 
" style="fill: none; stroke: #8b0000; stroke-width: 1.8; stroke-linecap: round"/>
    <path d="M 306.329412 160.210302 
L 308.329412 156.210302 
L 310.329412 160.210302 
" style="fill: none; stroke: #8b0000; stroke-width: 1.8; stroke-linecap: round"/>
   </g>
   <g id="patch_19">
    <path d="M 179.034677 277.643077 
Q 308.329071 277.643077 435.611004 277.643077 
" style="fill: none; stroke: #8b0000; stroke-width: 1.8; stroke-linecap: round"/>
    <path d="M 431.611004 275.643077 
L 435.611004 277.643077 
L 431.611004 279.643077 
" style="fill: none; stroke: #8b0000; stroke-width: 1.8; stroke-linecap: round"/>
   </g>
   <g id="patch_20">
    <path d="M 308.329412 154.195762 
Q 308.329412 247.534961 308.329412 338.861698 
" style="fill: none; stroke: #8b0000; stroke-width: 1.8; stroke-linecap: round"/>
    <path d="M 310.329412 334.861698 
L 308.329412 338.861698 
L 306.329412 334.861698 
" style="fill: none; stroke: #8b0000; stroke-width: 1.8; stroke-linecap: round"/>
   </g>
   <g id="patch_21">
    <path d="M 309.773855 153.57703 
Q 373.976491 214.920019 436.724065 274.872758 
" style="fill: none; stroke: #8b0000; stroke-width: 1.8; stroke-linecap: round"/>
    <path d="M 435.213606 270.663421 
L 436.724065 274.872758 
L 432.450321 273.555524 
" style="fill: none; stroke: #8b0000; stroke-width: 1.8; stroke-linecap: round"/>
   </g>
   <g id="patch_22">
    <path d="M 437.624147 277.643077 
Q 308.329753 277.643077 181.047819 277.643077 
" style="fill: none; stroke: #8b0000; stroke-width: 1.8; stroke-linecap: round"/>
    <path d="M 185.047819 279.643077 
L 181.047819 277.643077 
L 185.047819 275.643077 
" style="fill: none; stroke: #8b0000; stroke-width: 1.8; stroke-linecap: round"/>
   </g>
   <g id="patch_23">
    <path d="M 438.179086 276.26297 
Q 373.97645 214.919981 311.228876 154.967242 
" style="fill: none; stroke: #8b0000; stroke-width: 1.8; stroke-linecap: round"/>
    <path d="M 312.739335 159.176579 
L 311.228876 154.967242 
L 315.502621 156.284476 
" style="fill: none; stroke: #8b0000; stroke-width: 1.8; stroke-linecap: round"/>
   </g>
   <g id="text_11">
    <!-- Cathode Family Transfer Graph -->
    <g transform="translate(202.450312 45.84) scale(0.12 -0.12)">
     <defs>
      <path id="DejaVuSans-61" d="M 2194 1759 
Q 1497 1759 1228 1600 
Q 959 1441 959 1056 
Q 959 750 1161 570 
Q 1363 391 1709 391 
Q 2188 391 2477 730 
Q 2766 1069 2766 1631 
L 2766 1759 
L 2194 1759 
z
M 3341 1997 
L 3341 0 
L 2766 0 
L 2766 531 
Q 2569 213 2275 61 
Q 1981 -91 1556 -91 
Q 1019 -91 701 211 
Q 384 513 384 1019 
Q 384 1609 779 1909 
Q 1175 2209 1959 2209 
L 2766 2209 
L 2766 2266 
Q 2766 2663 2505 2880 
Q 2244 3097 1772 3097 
Q 1472 3097 1187 3025 
Q 903 2953 641 2809 
L 641 3341 
Q 956 3463 1253 3523 
Q 1550 3584 1831 3584 
Q 2591 3584 2966 3190 
Q 3341 2797 3341 1997 
z
" transform="scale(0.015625)"/>
      <path id="DejaVuSans-74" d="M 1172 4494 
L 1172 3500 
L 2356 3500 
L 2356 3053 
L 1172 3053 
L 1172 1153 
Q 1172 725 1289 603 
Q 1406 481 1766 481 
L 2356 481 
L 2356 0 
L 1766 0 
Q 1100 0 847 248 
Q 594 497 594 1153 
L 594 3053 
L 172 3053 
L 172 3500 
L 594 3500 
L 594 4494 
L 1172 4494 
z
" transform="scale(0.015625)"/>
      <path id="DejaVuSans-68" d="M 3513 2113 
L 3513 0 
L 2938 0 
L 2938 2094 
Q 2938 2591 2744 2837 
Q 2550 3084 2163 3084 
Q 1697 3084 1428 2787 
Q 1159 2491 1159 1978 
L 1159 0 
L 581 0 
L 581 4863 
L 1159 4863 
L 1159 2956 
Q 1366 3272 1645 3428 
Q 1925 3584 2291 3584 
Q 2894 3584 3203 3211 
Q 3513 2838 3513 2113 
z
" transform="scale(0.015625)"/>
      <path id="DejaVuSans-6f" d="M 1959 3097 
Q 1497 3097 1228 2736 
Q 959 2375 959 1747 
Q 959 1119 1226 758 
Q 1494 397 1959 397 
Q 2419 397 2687 759 
Q 2956 1122 2956 1747 
Q 2956 2369 2687 2733 
Q 2419 3097 1959 3097 
z
M 1959 3584 
Q 2709 3584 3137 3096 
Q 3566 2609 3566 1747 
Q 3566 888 3137 398 
Q 2709 -91 1959 -91 
Q 1206 -91 779 398 
Q 353 888 353 1747 
Q 353 2609 779 3096 
Q 1206 3584 1959 3584 
z
" transform="scale(0.015625)"/>
      <path id="DejaVuSans-64" d="M 2906 2969 
L 2906 4863 
L 3481 4863 
L 3481 0 
L 2906 0 
L 2906 525 
Q 2725 213 2448 61 
Q 2172 -91 1784 -91 
Q 1150 -91 751 415 
Q 353 922 353 1747 
Q 353 2572 751 3078 
Q 1150 3584 1784 3584 
Q 2172 3584 2448 3432 
Q 2725 3281 2906 2969 
z
M 947 1747 
Q 947 1113 1208 752 
Q 1469 391 1925 391 
Q 2381 391 2643 752 
Q 2906 1113 2906 1747 
Q 2906 2381 2643 2742 
Q 2381 3103 1925 3103 
Q 1469 3103 1208 2742 
Q 947 2381 947 1747 
z
" transform="scale(0.015625)"/>
      <path id="DejaVuSans-20" transform="scale(0.015625)"/>
      <path id="DejaVuSans-46" d="M 628 4666 
L 3309 4666 
L 3309 4134 
L 1259 4134 
L 1259 2759 
L 3109 2759 
L 3109 2228 
L 1259 2228 
L 1259 0 
L 628 0 
L 628 4666 
z
" transform="scale(0.015625)"/>
      <path id="DejaVuSans-6d" d="M 3328 2828 
Q 3544 3216 3844 3400 
Q 4144 3584 4550 3584 
Q 5097 3584 5394 3201 
Q 5691 2819 5691 2113 
L 5691 0 
L 5113 0 
L 5113 2094 
Q 5113 2597 4934 2840 
Q 4756 3084 4391 3084 
Q 3944 3084 3684 2787 
Q 3425 2491 3425 1978 
L 3425 0 
L 2847 0 
L 2847 2094 
Q 2847 2600 2669 2842 
Q 2491 3084 2119 3084 
Q 1678 3084 1418 2786 
Q 1159 2488 1159 1978 
L 1159 0 
L 581 0 
L 581 3500 
L 1159 3500 
L 1159 2956 
Q 1356 3278 1631 3431 
Q 1906 3584 2284 3584 
Q 2666 3584 2933 3390 
Q 3200 3197 3328 2828 
z
" transform="scale(0.015625)"/>
      <path id="DejaVuSans-79" d="M 2059 -325 
Q 1816 -950 1584 -1140 
Q 1353 -1331 966 -1331 
L 506 -1331 
L 506 -850 
L 844 -850 
Q 1081 -850 1212 -737 
Q 1344 -625 1503 -206 
L 1606 56 
L 191 3500 
L 800 3500 
L 1894 763 
L 2988 3500 
L 3597 3500 
L 2059 -325 
z
" transform="scale(0.015625)"/>
      <path id="DejaVuSans-54" d="M -19 4666 
L 3928 4666 
L 3928 4134 
L 2272 4134 
L 2272 0 
L 1638 0 
L 1638 4134 
L -19 4134 
L -19 4666 
z
" transform="scale(0.015625)"/>
      <path id="DejaVuSans-72" d="M 2631 2963 
Q 2534 3019 2420 3045 
Q 2306 3072 2169 3072 
Q 1681 3072 1420 2755 
Q 1159 2438 1159 1844 
L 1159 0 
L 581 0 
L 581 3500 
L 1159 3500 
L 1159 2956 
Q 1341 3275 1631 3429 
Q 1922 3584 2338 3584 
Q 2397 3584 2469 3576 
Q 2541 3569 2628 3553 
L 2631 2963 
z
" transform="scale(0.015625)"/>
      <path id="DejaVuSans-66" d="M 2375 4863 
L 2375 4384 
L 1825 4384 
Q 1516 4384 1395 4259 
Q 1275 4134 1275 3809 
L 1275 3500 
L 2222 3500 
L 2222 3053 
L 1275 3053 
L 1275 0 
L 697 0 
L 697 3053 
L 147 3053 
L 147 3500 
L 697 3500 
L 697 3744 
Q 697 4328 969 4595 
Q 1241 4863 1831 4863 
L 2375 4863 
z
" transform="scale(0.015625)"/>
      <path id="DejaVuSans-47" d="M 3809 666 
L 3809 1919 
L 2778 1919 
L 2778 2438 
L 4434 2438 
L 4434 434 
Q 4069 175 3628 42 
Q 3188 -91 2688 -91 
Q 1594 -91 976 548 
Q 359 1188 359 2328 
Q 359 3472 976 4111 
Q 1594 4750 2688 4750 
Q 3144 4750 3555 4637 
Q 3966 4525 4313 4306 
L 4313 3634 
Q 3963 3931 3569 4081 
Q 3175 4231 2741 4231 
Q 1884 4231 1454 3753 
Q 1025 3275 1025 2328 
Q 1025 1384 1454 906 
Q 1884 428 2741 428 
Q 3075 428 3337 486 
Q 3600 544 3809 666 
z
" transform="scale(0.015625)"/>
     </defs>
     <use xlink:href="#DejaVuSans-43"/>
     <use xlink:href="#DejaVuSans-61" x="69.824219"/>
     <use xlink:href="#DejaVuSans-74" x="131.103516"/>
     <use xlink:href="#DejaVuSans-68" x="170.3125"/>
     <use xlink:href="#DejaVuSans-6f" x="233.691406"/>
     <use xlink:href="#DejaVuSans-64" x="294.873047"/>
     <use xlink:href="#DejaVuSans-65" x="358.349609"/>
     <use xlink:href="#DejaVuSans-20" x="419.873047"/>
     <use xlink:href="#DejaVuSans-46" x="451.660156"/>
     <use xlink:href="#DejaVuSans-61" x="500.054688"/>
     <use xlink:href="#DejaVuSans-6d" x="561.333984"/>
     <use xlink:href="#DejaVuSans-69" x="658.746094"/>
     <use xlink:href="#DejaVuSans-6c" x="686.529297"/>
     <use xlink:href="#DejaVuSans-79" x="714.3125"/>
     <use xlink:href="#DejaVuSans-20" x="773.492188"/>
     <use xlink:href="#DejaVuSans-54" x="805.279297"/>
     <use xlink:href="#DejaVuSans-72" x="851.613281"/>
     <use xlink:href="#DejaVuSans-61" x="892.726562"/>
     <use xlink:href="#DejaVuSans-6e" x="954.005859"/>
     <use xlink:href="#DejaVuSans-73" x="1017.384766"/>
     <use xlink:href="#DejaVuSans-66" x="1069.484375"/>
     <use xlink:href="#DejaVuSans-65" x="1104.689453"/>
     <use xlink:href="#DejaVuSans-72" x="1166.212891"/>
     <use xlink:href="#DejaVuSans-20" x="1207.326172"/>
     <use xlink:href="#DejaVuSans-47" x="1239.113281"/>
     <use xlink:href="#DejaVuSans-72" x="1316.603516"/>
     <use xlink:href="#DejaVuSans-61" x="1357.716797"/>
     <use xlink:href="#DejaVuSans-70" x="1418.996094"/>
     <use xlink:href="#DejaVuSans-68" x="1482.472656"/>
    </g>
   </g>
  </g>
 </g>
 <defs>
  <clipPath id="pd3642a3f6e">
   <rect x="72" y="51.84" width="446.4" height="326.16"/>
  </clipPath>
 </defs>
</svg>
