<?xml version="1.0" encoding="utf-8" standalone="no"?>
<!DOCTYPE svg PUBLIC "-//W3C//DTD SVG 1.1//EN"
  "http://www.w3.org/Graphics/SVG/1.1/DTD/svg11.dtd">
<svg xmlns:xlink="http://www.w3.org/1999/xlink" width="976.215982pt" height="340.8pt" viewBox="0 0 976.215982 340.8" xmlns="http://www.w3.org/2000/svg" version="1.1">
 <metadata>
  <rdf:RDF xmlns:dc="http://purl.org/dc/elements/1.1/" xmlns:cc="http://creativecommons.org/ns#" xmlns:rdf="http://www.w3.org/1999/02/22-rdf-syntax-ns#">
   <cc:Work>
    <dc:type rdf:resource="http://purl.org/dc/dcmitype/StillImage"/>
    <dc:date>2026-02-25T14:05:19.206652</dc:date>
    <dc:format>image/svg+xml</dc:format>
    <dc:creator>
     <cc:Agent>
      <dc:title>Matplotlib v3.8.1, https://matplotlib.org/</dc:title>
     </cc:Agent>
    </dc:creator>
   </cc:Work>
  </rdf:RDF>
 </metadata>
 <defs>
  <style type="text/css">*{stroke-linejoin: round; stroke-linecap: butt}</style>
 </defs>
 <g id="figure_1">
  <g id="patch_1">
   <path d="M 0 340.8 
L 976.215982 340.8 
L 976.215982 0 
L 0 0 
z
" style="fill: #ffffff"/>
  </g>
  <g id="axes_1">
   <g id="patch_2">
    <path d="M 39.970233 107.7312 
L 206.842767 107.7312 
Q 217.301352 107.7312 217.301352 102.8352 
L 217.301352 74.7648 
Q 217.301352 69.8688 206.842767 69.8688 
L 39.970233 69.8688 
Q 29.511648 69.8688 29.511648 74.7648 
L 29.511648 102.8352 
Q 29.511648 107.7312 39.970233 107.7312 
z
" clip-path="url(#p55628766d0)" style="fill: #dbeafe; stroke: #64748b; stroke-width: 1.2; stroke-linejoin: miter"/>
   </g>
   <g id="patch_3">
    <path d="M 39.970233 159.9552 
L 206.842767 159.9552 
Q 217.301352 159.9552 217.301352 155.0592 
L 217.301352 126.9888 
Q 217.301352 122.0928 206.842767 122.0928 
L 39.970233 122.0928 
Q 29.511648 122.0928 29.511648 126.9888 
L 29.511648 155.0592 
Q 29.511648 159.9552 39.970233 159.9552 
z
" clip-path="url(#p55628766d0)" style="fill: #dcfce7; stroke: #64748b; stroke-width: 1.2; stroke-linejoin: miter"/>
   </g>
   <g id="patch_4">
    <path d="M 39.970233 212.1792 
L 206.842767 212.1792 
Q 217.301352 212.1792 217.301352 207.2832 
L 217.301352 179.2128 
Q 217.301352 174.3168 206.842767 174.3168 
L 39.970233 174.3168 
Q 29.511648 174.3168 29.511648 179.2128 
L 29.511648 207.2832 
Q 29.511648 212.1792 39.970233 212.1792 
z
" clip-path="url(#p55628766d0)" style="fill: #ffedd5; stroke: #64748b; stroke-width: 1.2; stroke-linejoin: miter"/>
   </g>
   <g id="patch_5">
    <path d="M 39.970233 264.4032 
L 206.842767 264.4032 
Q 217.301352 264.4032 217.301352 259.5072 
L 217.301352 231.4368 
Q 217.301352 226.5408 206.842767 226.5408 
L 39.970233 226.5408 
Q 29.511648 226.5408 29.511648 231.4368 
L 29.511648 259.5072 
Q 29.511648 264.4032 39.970233 264.4032 
z
" clip-path="url(#p55628766d0)" style="fill: #dbeafe; stroke: #64748b; stroke-width: 1.2; stroke-linejoin: miter"/>
   </g>
   <g id="patch_6">
    <path d="M 123.4065 107.123344 
Q 123.4065 114.915746 123.4065 121.031098 
" clip-path="url(#p55628766d0)" style="fill: none; stroke: #475569; stroke-width: 1.5; stroke-linecap: round"/>
    <path d="M 125.6065 116.631098 
L 123.4065 121.031098 
L 121.2065 116.631098 
z
" clip-path="url(#p55628766d0)" style="fill: #475569; stroke: #475569; stroke-width: 1.5; stroke-linecap: round"/>
   </g>
   <g id="patch_7">
    <path d="M 123.4065 159.347344 
Q 123.4065 167.139746 123.4065 173.255098 
" clip-path="url(#p55628766d0)" style="fill: none; stroke: #475569; stroke-width: 1.5; stroke-linecap: round"/>
    <path d="M 125.6065 168.855098 
L 123.4065 173.255098 
L 121.2065 168.855098 
z
" clip-path="url(#p55628766d0)" style="fill: #475569; stroke: #475569; stroke-width: 1.5; stroke-linecap: round"/>
   </g>
   <g id="patch_8">
    <path d="M 123.4065 211.571344 
Q 123.4065 219.363746 123.4065 225.479098 
" clip-path="url(#p55628766d0)" style="fill: none; stroke: #475569; stroke-width: 1.5; stroke-linecap: round"/>
    <path d="M 125.6065 221.079098 
L 123.4065 225.479098 
L 121.2065 221.079098 
z
" clip-path="url(#p55628766d0)" style="fill: #475569; stroke: #475569; stroke-width: 1.5; stroke-linecap: round"/>
   </g>
   <g id="patch_9">
    <path d="M 123.4065 227.149055 
Q 123.4065 193.245629 123.4065 160.683845 
" clip-path="url(#p55628766d0)" style="fill: none; stroke: #94a3b8; stroke-width: 1.2; stroke-linecap: round"/>
    <path d="M 121.2065 165.083845 
L 123.4065 160.683845 
L 125.6065 165.083845 
z
" clip-path="url(#p55628766d0)" style="fill: #94a3b8; stroke: #94a3b8; stroke-width: 1.2; stroke-linecap: round"/>
   </g>
   <g id="patch_10">
    <path d="M 272.383233 107.7312 
L 439.255767 107.7312 
Q 449.714352 107.7312 449.714352 102.8352 
L 449.714352 74.7648 
Q 449.714352 69.8688 439.255767 69.8688 
L 272.383233 69.8688 
Q 261.924648 69.8688 261.924648 74.7648 
L 261.924648 102.8352 
Q 261.924648 107.7312 272.383233 107.7312 
z
" clip-path="url(#p55628766d0)" style="fill: #dbeafe; stroke: #64748b; stroke-width: 1.2; stroke-linejoin: miter"/>
   </g>
   <g id="patch_11">
    <path d="M 272.383233 159.9552 
L 439.255767 159.9552 
Q 449.714352 159.9552 449.714352 155.0592 
L 449.714352 126.9888 
Q 449.714352 122.0928 439.255767 122.0928 
L 272.383233 122.0928 
Q 261.924648 122.0928 261.924648 126.9888 
L 261.924648 155.0592 
Q 261.924648 159.9552 272.383233 159.9552 
z
" clip-path="url(#p55628766d0)" style="fill: #dcfce7; stroke: #64748b; stroke-width: 1.2; stroke-linejoin: miter"/>
   </g>
   <g id="patch_12">
    <path d="M 272.383233 212.1792 
L 439.255767 212.1792 
Q 449.714352 212.1792 449.714352 207.2832 
L 449.714352 179.2128 
Q 449.714352 174.3168 439.255767 174.3168 
L 272.383233 174.3168 
Q 261.924648 174.3168 261.924648 179.2128 
L 261.924648 207.2832 
Q 261.924648 212.1792 272.383233 212.1792 
z
" clip-path="url(#p55628766d0)" style="fill: #ffedd5; stroke: #64748b; stroke-width: 1.2; stroke-linejoin: miter"/>
   </g>
   <g id="patch_13">
    <path d="M 272.383233 264.4032 
L 439.255767 264.4032 
Q 449.714352 264.4032 449.714352 259.5072 
L 449.714352 231.4368 
Q 449.714352 226.5408 439.255767 226.5408 
L 272.383233 226.5408 
Q 261.924648 226.5408 261.924648 231.4368 
L 261.924648 259.5072 
Q 261.924648 264.4032 272.383233 264.4032 
z
" clip-path="url(#p55628766d0)" style="fill: #dbeafe; stroke: #64748b; stroke-width: 1.2; stroke-linejoin: miter"/>
   </g>
   <g id="patch_14">
    <path d="M 355.8195 107.123344 
Q 355.8195 114.915746 355.8195 121.031098 
" clip-path="url(#p55628766d0)" style="fill: none; stroke: #475569; stroke-width: 1.5; stroke-linecap: round"/>
    <path d="M 358.0195 116.631098 
L 355.8195 121.031098 
L 353.6195 116.631098 
z
" clip-path="url(#p55628766d0)" style="fill: #475569; stroke: #475569; stroke-width: 1.5; stroke-linecap: round"/>
   </g>
   <g id="patch_15">
    <path d="M 355.8195 159.347344 
Q 355.8195 167.139746 355.8195 173.255098 
" clip-path="url(#p55628766d0)" style="fill: none; stroke: #475569; stroke-width: 1.5; stroke-linecap: round"/>
    <path d="M 358.0195 168.855098 
L 355.8195 173.255098 
L 353.6195 168.855098 
z
" clip-path="url(#p55628766d0)" style="fill: #475569; stroke: #475569; stroke-width: 1.5; stroke-linecap: round"/>
   </g>
   <g id="patch_16">
    <path d="M 355.8195 211.571344 
Q 355.8195 219.363746 355.8195 225.479098 
" clip-path="url(#p55628766d0)" style="fill: none; stroke: #475569; stroke-width: 1.5; stroke-linecap: round"/>
    <path d="M 358.0195 221.079098 
L 355.8195 225.479098 
L 353.6195 221.079098 
z
" clip-path="url(#p55628766d0)" style="fill: #475569; stroke: #475569; stroke-width: 1.5; stroke-linecap: round"/>
   </g>
   <g id="patch_17">
    <path d="M 355.8195 227.149055 
Q 355.8195 193.245629 355.8195 160.683845 
" clip-path="url(#p55628766d0)" style="fill: none; stroke: #94a3b8; stroke-width: 1.2; stroke-linecap: round"/>
    <path d="M 353.6195 165.083845 
L 355.8195 160.683845 
L 358.0195 165.083845 
z
" clip-path="url(#p55628766d0)" style="fill: #94a3b8; stroke: #94a3b8; stroke-width: 1.2; stroke-linecap: round"/>
   </g>
   <g id="patch_18">
    <path d="M 438.558528 205.6512 
L 449.714352 205.6512 
Q 460.172937 205.6512 460.172937 200.7552 
L 460.172937 133.5168 
Q 460.172937 128.6208 449.714352 128.6208 
L 438.558528 128.6208 
Q 428.099943 128.6208 428.099943 133.5168 
L 428.099943 200.7552 
Q 428.099943 205.6512 438.558528 205.6512 
z
" clip-path="url(#p55628766d0)" style="fill: #f1f5f9; stroke: #64748b; stroke-width: 1.2; stroke-linejoin: miter"/>
   </g>
   <g id="patch_19">
    <path d="M 443.392134 142.882312 
Q 438.906751 154.080991 435.044917 163.72285 
" clip-path="url(#p55628766d0)" style="fill: none; stroke: #dc2626; stroke-width: 1.5; stroke-linecap: round"/>
    <path d="M 438.723171 160.456285 
L 435.044917 163.72285 
L 434.638618 158.820308 
z
" clip-path="url(#p55628766d0)" style="fill: #dc2626; stroke: #dc2626; stroke-width: 1.5; stroke-linecap: round"/>
   </g>
   <g id="patch_20">
    <path d="M 443.195099 204.802687 
Q 437.164024 216.096048 431.92296 225.910091 
" clip-path="url(#p55628766d0)" style="fill: none; stroke: #dc2626; stroke-width: 1.5; stroke-linecap: round"/>
    <path d="M 435.936284 223.065231 
L 431.92296 225.910091 
L 432.055066 220.992516 
z
" clip-path="url(#p55628766d0)" style="fill: #dc2626; stroke: #dc2626; stroke-width: 1.5; stroke-linecap: round"/>
   </g>
   <g id="patch_21">
    <path d="M 490.851453 140.3712 
L 592.648347 140.3712 
Q 603.106932 140.3712 603.106932 135.4752 
L 603.106932 94.3488 
Q 603.106932 89.4528 592.648347 89.4528 
L 490.851453 89.4528 
Q 480.392868 89.4528 480.392868 94.3488 
L 480.392868 135.4752 
Q 480.392868 140.3712 490.851453 140.3712 
z
" clip-path="url(#p55628766d0)" style="fill: #dbeafe; stroke: #64748b; stroke-width: 1.2; stroke-linejoin: miter"/>
   </g>
   <g id="patch_22">
    <path d="M 619.840668 140.3712 
L 721.637562 140.3712 
Q 732.096147 140.3712 732.096147 135.4752 
L 732.096147 94.3488 
Q 732.096147 89.4528 721.637562 89.4528 
L 619.840668 89.4528 
Q 609.382083 89.4528 609.382083 94.3488 
L 609.382083 135.4752 
Q 609.382083 140.3712 619.840668 140.3712 
z
" clip-path="url(#p55628766d0)" style="fill: #dcfce7; stroke: #64748b; stroke-width: 1.2; stroke-linejoin: miter"/>
   </g>
   <g id="patch_23">
    <path d="M 748.829883 140.3712 
L 850.626777 140.3712 
Q 861.085362 140.3712 861.085362 135.4752 
L 861.085362 94.3488 
Q 861.085362 89.4528 850.626777 89.4528 
L 748.829883 89.4528 
Q 738.371298 89.4528 738.371298 94.3488 
L 738.371298 135.4752 
Q 738.371298 140.3712 748.829883 140.3712 
z
" clip-path="url(#p55628766d0)" style="fill: #ede9fe; stroke: #64748b; stroke-width: 1.2; stroke-linejoin: miter"/>
   </g>
   <g id="patch_24">
    <path d="M 877.819098 140.3712 
L 979.615992 140.3712 
Q 990.074577 140.3712 990.074577 135.4752 
L 990.074577 94.3488 
Q 990.074577 89.4528 979.615992 89.4528 
L 877.819098 89.4528 
Q 867.360513 89.4528 867.360513 94.3488 
L 867.360513 135.4752 
Q 867.360513 140.3712 877.819098 140.3712 
z
" clip-path="url(#p55628766d0)" style="fill: #e0e7ff; stroke: #64748b; stroke-width: 1.2; stroke-linejoin: miter"/>
   </g>
   <g id="patch_25">
    <path d="M 599.524901 114.912 
Q 606.241955 114.912 611.281959 114.912 
" clip-path="url(#p55628766d0)" style="fill: none; stroke: #475569; stroke-width: 1.5; stroke-linecap: round"/>
    <path d="M 606.881959 112.712 
L 611.281959 114.912 
L 606.881959 117.112 
z
" clip-path="url(#p55628766d0)" style="fill: #475569; stroke: #475569; stroke-width: 1.5; stroke-linecap: round"/>
   </g>
   <g id="patch_26">
    <path d="M 728.514116 114.912 
Q 735.23117 114.912 740.271174 114.912 
" clip-path="url(#p55628766d0)" style="fill: none; stroke: #475569; stroke-width: 1.5; stroke-linecap: round"/>
    <path d="M 735.871174 112.712 
L 740.271174 114.912 
L 735.871174 117.112 
z
" clip-path="url(#p55628766d0)" style="fill: #475569; stroke: #475569; stroke-width: 1.5; stroke-linecap: round"/>
   </g>
   <g id="patch_27">
    <path d="M 857.503331 114.912 
Q 864.220385 114.912 869.260389 114.912 
" clip-path="url(#p55628766d0)" style="fill: none; stroke: #475569; stroke-width: 1.5; stroke-linecap: round"/>
    <path d="M 864.860389 112.712 
L 869.260389 114.912 
L 864.860389 117.112 
z
" clip-path="url(#p55628766d0)" style="fill: #475569; stroke: #475569; stroke-width: 1.5; stroke-linecap: round"/>
   </g>
   <g id="patch_28">
    <path d="M 511.768623 205.6512 
L 664.696377 205.6512 
Q 675.154962 205.6512 675.154962 200.7552 
L 675.154962 179.2128 
Q 675.154962 174.3168 664.696377 174.3168 
L 511.768623 174.3168 
Q 501.310038 174.3168 501.310038 179.2128 
L 501.310038 200.7552 
Q 501.310038 205.6512 511.768623 205.6512 
z
" clip-path="url(#p55628766d0)" style="fill: #f8fafc; stroke: #cbd5e1; stroke-width: 1.2; stroke-linejoin: miter"/>
   </g>
   <g id="patch_29">
    <path d="M 511.768623 241.5552 
L 664.696377 241.5552 
Q 675.154962 241.5552 675.154962 236.6592 
L 675.154962 215.1168 
Q 675.154962 210.2208 664.696377 210.2208 
L 511.768623 210.2208 
Q 501.310038 210.2208 501.310038 215.1168 
L 501.310038 236.6592 
Q 501.310038 241.5552 511.768623 241.5552 
z
" clip-path="url(#p55628766d0)" style="fill: #f8fafc; stroke: #cbd5e1; stroke-width: 1.2; stroke-linejoin: miter"/>
   </g>
   <g id="patch_30">
    <path d="M 669.071555 138.862078 
Q 641.107606 157.343241 614.169669 175.14632 
" clip-path="url(#p55628766d0)" style="fill: none; stroke: #64748b; stroke-width: 1.1; stroke-linecap: round"/>
    <path d="M 619.053438 174.55572 
L 614.169669 175.14632 
L 616.62745 170.884946 
z
" clip-path="url(#p55628766d0)" style="fill: #64748b; stroke: #64748b; stroke-width: 1.1; stroke-linecap: round"/>
   </g>
   <g id="patch_31">
    <path d="M 800.265813 139.689035 
Q 810.187601 175.298463 819.779295 209.72318 
" clip-path="url(#p55628766d0)" style="fill: none; stroke: #64748b; stroke-width: 1.1; stroke-linecap: round"/>
    <path d="M 820.717591 204.894142 
L 819.779295 209.72318 
L 816.479043 206.075121 
z
" clip-path="url(#p55628766d0)" style="fill: #64748b; stroke: #64748b; stroke-width: 1.1; stroke-linecap: round"/>
   </g>
   <g id="line2d_1">
    <path d="M 239.613 307.488 
L 239.613 26.784 
" clip-path="url(#p55628766d0)" style="fill: none; stroke-dasharray: 3.6,3.6; stroke-dashoffset: 0; stroke: #cbd5e1; stroke-width: 1.2"/>
   </g>
   <g id="line2d_2">
    <path d="M 472.026 307.488 
L 472.026 26.784 
" clip-path="url(#p55628766d0)" style="fill: none; stroke-dasharray: 3.6,3.6; stroke-dashoffset: 0; stroke: #cbd5e1; stroke-width: 1.2"/>
   </g>
   <g id="text_1">
    <!-- UAN -->
    <g style="fill: #111827" transform="translate(108.240562 43.469062) scale(0.14 -0.14)">
     <defs>
      <path id="Arial-BoldMT-55" d="M 459 4581 
L 1384 4581 
L 1384 2100 
Q 1384 1509 1419 1334 
Q 1478 1053 1701 883 
Q 1925 713 2313 713 
Q 2706 713 2906 873 
Q 3106 1034 3147 1268 
Q 3188 1503 3188 2047 
L 3188 4581 
L 4113 4581 
L 4113 2175 
Q 4113 1350 4038 1009 
Q 3963 669 3761 434 
Q 3559 200 3221 61 
Q 2884 -78 2341 -78 
Q 1684 -78 1345 73 
Q 1006 225 809 467 
Q 613 709 550 975 
Q 459 1369 459 2138 
L 459 4581 
z
" transform="scale(0.015625)"/>
      <path id="Arial-BoldMT-41" d="M 4597 0 
L 3591 0 
L 3191 1041 
L 1359 1041 
L 981 0 
L 0 0 
L 1784 4581 
L 2763 4581 
L 4597 0 
z
M 2894 1813 
L 2263 3513 
L 1644 1813 
L 2894 1813 
z
" transform="scale(0.015625)"/>
      <path id="Arial-BoldMT-4e" d="M 475 0 
L 475 4581 
L 1375 4581 
L 3250 1522 
L 3250 4581 
L 4109 4581 
L 4109 0 
L 3181 0 
L 1334 2988 
L 1334 0 
L 475 0 
z
" transform="scale(0.015625)"/>
     </defs>
     <use xlink:href="#Arial-BoldMT-55"/>
     <use xlink:href="#Arial-BoldMT-41" x="72.216797"/>
     <use xlink:href="#Arial-BoldMT-4e" x="144.433594"/>
    </g>
   </g>
   <g id="text_2">
    <!-- Source Encoder -->
    <g style="fill: #111827" transform="translate(87.554156 91.385156) scale(0.1 -0.1)">
     <defs>
      <path id="ArialMT-53" d="M 288 1472 
L 859 1522 
Q 900 1178 1048 958 
Q 1197 738 1509 602 
Q 1822 466 2213 466 
Q 2559 466 2825 569 
Q 3091 672 3220 851 
Q 3350 1031 3350 1244 
Q 3350 1459 3225 1620 
Q 3100 1781 2813 1891 
Q 2628 1963 1997 2114 
Q 1366 2266 1113 2400 
Q 784 2572 623 2826 
Q 463 3081 463 3397 
Q 463 3744 659 4045 
Q 856 4347 1234 4503 
Q 1613 4659 2075 4659 
Q 2584 4659 2973 4495 
Q 3363 4331 3572 4012 
Q 3781 3694 3797 3291 
L 3216 3247 
Q 3169 3681 2898 3903 
Q 2628 4125 2100 4125 
Q 1550 4125 1298 3923 
Q 1047 3722 1047 3438 
Q 1047 3191 1225 3031 
Q 1400 2872 2139 2705 
Q 2878 2538 3153 2413 
Q 3553 2228 3743 1945 
Q 3934 1663 3934 1294 
Q 3934 928 3725 604 
Q 3516 281 3123 101 
Q 2731 -78 2241 -78 
Q 1619 -78 1198 103 
Q 778 284 539 648 
Q 300 1013 288 1472 
z
" transform="scale(0.015625)"/>
      <path id="ArialMT-6f" d="M 213 1659 
Q 213 2581 725 3025 
Q 1153 3394 1769 3394 
Q 2453 3394 2887 2945 
Q 3322 2497 3322 1706 
Q 3322 1066 3130 698 
Q 2938 331 2570 128 
Q 2203 -75 1769 -75 
Q 1072 -75 642 372 
Q 213 819 213 1659 
z
M 791 1659 
Q 791 1022 1069 705 
Q 1347 388 1769 388 
Q 2188 388 2466 706 
Q 2744 1025 2744 1678 
Q 2744 2294 2464 2611 
Q 2184 2928 1769 2928 
Q 1347 2928 1069 2612 
Q 791 2297 791 1659 
z
" transform="scale(0.015625)"/>
      <path id="ArialMT-75" d="M 2597 0 
L 2597 488 
Q 2209 -75 1544 -75 
Q 1250 -75 995 37 
Q 741 150 617 320 
Q 494 491 444 738 
Q 409 903 409 1263 
L 409 3319 
L 972 3319 
L 972 1478 
Q 972 1038 1006 884 
Q 1059 663 1231 536 
Q 1403 409 1656 409 
Q 1909 409 2131 539 
Q 2353 669 2445 892 
Q 2538 1116 2538 1541 
L 2538 3319 
L 3100 3319 
L 3100 0 
L 2597 0 
z
" transform="scale(0.015625)"/>
      <path id="ArialMT-72" d="M 416 0 
L 416 3319 
L 922 3319 
L 922 2816 
Q 1116 3169 1280 3281 
Q 1444 3394 1641 3394 
Q 1925 3394 2219 3213 
L 2025 2691 
Q 1819 2813 1613 2813 
Q 1428 2813 1281 2702 
Q 1134 2591 1072 2394 
Q 978 2094 978 1738 
L 978 0 
L 416 0 
z
" transform="scale(0.015625)"/>
      <path id="ArialMT-63" d="M 2588 1216 
L 3141 1144 
Q 3050 572 2676 248 
Q 2303 -75 1759 -75 
Q 1078 -75 664 370 
Q 250 816 250 1647 
Q 250 2184 428 2587 
Q 606 2991 970 3192 
Q 1334 3394 1763 3394 
Q 2303 3394 2647 3120 
Q 2991 2847 3088 2344 
L 2541 2259 
Q 2463 2594 2264 2762 
Q 2066 2931 1784 2931 
Q 1359 2931 1093 2626 
Q 828 2322 828 1663 
Q 828 994 1084 691 
Q 1341 388 1753 388 
Q 2084 388 2306 591 
Q 2528 794 2588 1216 
z
" transform="scale(0.015625)"/>
      <path id="ArialMT-65" d="M 2694 1069 
L 3275 997 
Q 3138 488 2766 206 
Q 2394 -75 1816 -75 
Q 1088 -75 661 373 
Q 234 822 234 1631 
Q 234 2469 665 2931 
Q 1097 3394 1784 3394 
Q 2450 3394 2872 2941 
Q 3294 2488 3294 1666 
Q 3294 1616 3291 1516 
L 816 1516 
Q 847 969 1125 678 
Q 1403 388 1819 388 
Q 2128 388 2347 550 
Q 2566 713 2694 1069 
z
M 847 1978 
L 2700 1978 
Q 2663 2397 2488 2606 
Q 2219 2931 1791 2931 
Q 1403 2931 1139 2672 
Q 875 2413 847 1978 
z
" transform="scale(0.015625)"/>
      <path id="ArialMT-20" transform="scale(0.015625)"/>
      <path id="ArialMT-45" d="M 506 0 
L 506 4581 
L 3819 4581 
L 3819 4041 
L 1113 4041 
L 1113 2638 
L 3647 2638 
L 3647 2100 
L 1113 2100 
L 1113 541 
L 3925 541 
L 3925 0 
L 506 0 
z
" transform="scale(0.015625)"/>
      <path id="ArialMT-6e" d="M 422 0 
L 422 3319 
L 928 3319 
L 928 2847 
Q 1294 3394 1984 3394 
Q 2284 3394 2536 3286 
Q 2788 3178 2913 3003 
Q 3038 2828 3088 2588 
Q 3119 2431 3119 2041 
L 3119 0 
L 2556 0 
L 2556 2019 
Q 2556 2363 2490 2533 
Q 2425 2703 2258 2804 
Q 2091 2906 1866 2906 
Q 1506 2906 1245 2678 
Q 984 2450 984 1813 
L 984 0 
L 422 0 
z
" transform="scale(0.015625)"/>
      <path id="ArialMT-64" d="M 2575 0 
L 2575 419 
Q 2259 -75 1647 -75 
Q 1250 -75 917 144 
Q 584 363 401 755 
Q 219 1147 219 1656 
Q 219 2153 384 2558 
Q 550 2963 881 3178 
Q 1213 3394 1622 3394 
Q 1922 3394 2156 3267 
Q 2391 3141 2538 2938 
L 2538 4581 
L 3097 4581 
L 3097 0 
L 2575 0 
z
M 797 1656 
Q 797 1019 1065 703 
Q 1334 388 1700 388 
Q 2069 388 2326 689 
Q 2584 991 2584 1609 
Q 2584 2291 2321 2609 
Q 2059 2928 1675 2928 
Q 1300 2928 1048 2622 
Q 797 2316 797 1656 
z
" transform="scale(0.015625)"/>
     </defs>
     <use xlink:href="#ArialMT-53"/>
     <use xlink:href="#ArialMT-6f" x="66.699219"/>
     <use xlink:href="#ArialMT-75" x="122.314453"/>
     <use xlink:href="#ArialMT-72" x="177.929688"/>
     <use xlink:href="#ArialMT-63" x="211.230469"/>
     <use xlink:href="#ArialMT-65" x="261.230469"/>
     <use xlink:href="#ArialMT-20" x="316.845703"/>
     <use xlink:href="#ArialMT-45" x="344.628906"/>
     <use xlink:href="#ArialMT-6e" x="411.328125"/>
     <use xlink:href="#ArialMT-63" x="466.943359"/>
     <use xlink:href="#ArialMT-6f" x="516.943359"/>
     <use xlink:href="#ArialMT-64" x="572.558594"/>
     <use xlink:href="#ArialMT-65" x="628.173828"/>
     <use xlink:href="#ArialMT-72" x="683.789062"/>
    </g>
   </g>
   <g id="text_3">
    <!-- Shared Backbone -->
    <g style="fill: #111827" transform="translate(83.658062 143.609156) scale(0.1 -0.1)">
     <defs>
      <path id="ArialMT-68" d="M 422 0 
L 422 4581 
L 984 4581 
L 984 2938 
Q 1378 3394 1978 3394 
Q 2347 3394 2619 3248 
Q 2891 3103 3008 2847 
Q 3125 2591 3125 2103 
L 3125 0 
L 2563 0 
L 2563 2103 
Q 2563 2525 2380 2717 
Q 2197 2909 1863 2909 
Q 1613 2909 1392 2779 
Q 1172 2650 1078 2428 
Q 984 2206 984 1816 
L 984 0 
L 422 0 
z
" transform="scale(0.015625)"/>
      <path id="ArialMT-61" d="M 2588 409 
Q 2275 144 1986 34 
Q 1697 -75 1366 -75 
Q 819 -75 525 192 
Q 231 459 231 875 
Q 231 1119 342 1320 
Q 453 1522 633 1644 
Q 813 1766 1038 1828 
Q 1203 1872 1538 1913 
Q 2219 1994 2541 2106 
Q 2544 2222 2544 2253 
Q 2544 2597 2384 2738 
Q 2169 2928 1744 2928 
Q 1347 2928 1158 2789 
Q 969 2650 878 2297 
L 328 2372 
Q 403 2725 575 2942 
Q 747 3159 1072 3276 
Q 1397 3394 1825 3394 
Q 2250 3394 2515 3294 
Q 2781 3194 2906 3042 
Q 3031 2891 3081 2659 
Q 3109 2516 3109 2141 
L 3109 1391 
Q 3109 606 3145 398 
Q 3181 191 3288 0 
L 2700 0 
Q 2613 175 2588 409 
z
M 2541 1666 
Q 2234 1541 1622 1453 
Q 1275 1403 1131 1340 
Q 988 1278 909 1158 
Q 831 1038 831 891 
Q 831 666 1001 516 
Q 1172 366 1500 366 
Q 1825 366 2078 508 
Q 2331 650 2450 897 
Q 2541 1088 2541 1459 
L 2541 1666 
z
" transform="scale(0.015625)"/>
      <path id="ArialMT-42" d="M 469 0 
L 469 4581 
L 2188 4581 
Q 2713 4581 3030 4442 
Q 3347 4303 3526 4014 
Q 3706 3725 3706 3409 
Q 3706 3116 3547 2856 
Q 3388 2597 3066 2438 
Q 3481 2316 3704 2022 
Q 3928 1728 3928 1328 
Q 3928 1006 3792 729 
Q 3656 453 3456 303 
Q 3256 153 2954 76 
Q 2653 0 2216 0 
L 469 0 
z
M 1075 2656 
L 2066 2656 
Q 2469 2656 2644 2709 
Q 2875 2778 2992 2937 
Q 3109 3097 3109 3338 
Q 3109 3566 3000 3739 
Q 2891 3913 2687 3977 
Q 2484 4041 1991 4041 
L 1075 4041 
L 1075 2656 
z
M 1075 541 
L 2216 541 
Q 2509 541 2628 563 
Q 2838 600 2978 687 
Q 3119 775 3209 942 
Q 3300 1109 3300 1328 
Q 3300 1584 3169 1773 
Q 3038 1963 2805 2039 
Q 2572 2116 2134 2116 
L 1075 2116 
L 1075 541 
z
" transform="scale(0.015625)"/>
      <path id="ArialMT-6b" d="M 425 0 
L 425 4581 
L 988 4581 
L 988 1969 
L 2319 3319 
L 3047 3319 
L 1778 2088 
L 3175 0 
L 2481 0 
L 1384 1697 
L 988 1316 
L 988 0 
L 425 0 
z
" transform="scale(0.015625)"/>
      <path id="ArialMT-62" d="M 941 0 
L 419 0 
L 419 4581 
L 981 4581 
L 981 2947 
Q 1338 3394 1891 3394 
Q 2197 3394 2470 3270 
Q 2744 3147 2920 2923 
Q 3097 2700 3197 2384 
Q 3297 2069 3297 1709 
Q 3297 856 2875 390 
Q 2453 -75 1863 -75 
Q 1275 -75 941 416 
L 941 0 
z
M 934 1684 
Q 934 1088 1097 822 
Q 1363 388 1816 388 
Q 2184 388 2453 708 
Q 2722 1028 2722 1663 
Q 2722 2313 2464 2622 
Q 2206 2931 1841 2931 
Q 1472 2931 1203 2611 
Q 934 2291 934 1684 
z
" transform="scale(0.015625)"/>
     </defs>
     <use xlink:href="#ArialMT-53"/>
     <use xlink:href="#ArialMT-68" x="66.699219"/>
     <use xlink:href="#ArialMT-61" x="122.314453"/>
     <use xlink:href="#ArialMT-72" x="177.929688"/>
     <use xlink:href="#ArialMT-65" x="211.230469"/>
     <use xlink:href="#ArialMT-64" x="266.845703"/>
     <use xlink:href="#ArialMT-20" x="322.460938"/>
     <use xlink:href="#ArialMT-42" x="350.244141"/>
     <use xlink:href="#ArialMT-61" x="416.943359"/>
     <use xlink:href="#ArialMT-63" x="472.558594"/>
     <use xlink:href="#ArialMT-6b" x="522.558594"/>
     <use xlink:href="#ArialMT-62" x="572.558594"/>
     <use xlink:href="#ArialMT-6f" x="628.173828"/>
     <use xlink:href="#ArialMT-6e" x="683.789062"/>
     <use xlink:href="#ArialMT-65" x="739.404297"/>
    </g>
   </g>
   <g id="text_4">
    <!-- Classifier (Softmax) -->
    <g style="fill: #111827" transform="translate(79.790094 195.8355) scale(0.1 -0.1)">
     <defs>
      <path id="ArialMT-43" d="M 3763 1606 
L 4369 1453 
Q 4178 706 3683 314 
Q 3188 -78 2472 -78 
Q 1731 -78 1267 223 
Q 803 525 561 1097 
Q 319 1669 319 2325 
Q 319 3041 592 3573 
Q 866 4106 1370 4382 
Q 1875 4659 2481 4659 
Q 3169 4659 3637 4309 
Q 4106 3959 4291 3325 
L 3694 3184 
Q 3534 3684 3231 3912 
Q 2928 4141 2469 4141 
Q 1941 4141 1586 3887 
Q 1231 3634 1087 3207 
Q 944 2781 944 2328 
Q 944 1744 1114 1308 
Q 1284 872 1643 656 
Q 2003 441 2422 441 
Q 2931 441 3284 734 
Q 3638 1028 3763 1606 
z
" transform="scale(0.015625)"/>
      <path id="ArialMT-6c" d="M 409 0 
L 409 4581 
L 972 4581 
L 972 0 
L 409 0 
z
" transform="scale(0.015625)"/>
      <path id="ArialMT-73" d="M 197 991 
L 753 1078 
Q 800 744 1014 566 
Q 1228 388 1613 388 
Q 2000 388 2187 545 
Q 2375 703 2375 916 
Q 2375 1106 2209 1216 
Q 2094 1291 1634 1406 
Q 1016 1563 777 1677 
Q 538 1791 414 1992 
Q 291 2194 291 2438 
Q 291 2659 392 2848 
Q 494 3038 669 3163 
Q 800 3259 1026 3326 
Q 1253 3394 1513 3394 
Q 1903 3394 2198 3281 
Q 2494 3169 2634 2976 
Q 2775 2784 2828 2463 
L 2278 2388 
Q 2241 2644 2061 2787 
Q 1881 2931 1553 2931 
Q 1166 2931 1000 2803 
Q 834 2675 834 2503 
Q 834 2394 903 2306 
Q 972 2216 1119 2156 
Q 1203 2125 1616 2013 
Q 2213 1853 2448 1751 
Q 2684 1650 2818 1456 
Q 2953 1263 2953 975 
Q 2953 694 2789 445 
Q 2625 197 2315 61 
Q 2006 -75 1616 -75 
Q 969 -75 630 194 
Q 291 463 197 991 
z
" transform="scale(0.015625)"/>
      <path id="ArialMT-69" d="M 425 3934 
L 425 4581 
L 988 4581 
L 988 3934 
L 425 3934 
z
M 425 0 
L 425 3319 
L 988 3319 
L 988 0 
L 425 0 
z
" transform="scale(0.015625)"/>
      <path id="ArialMT-66" d="M 556 0 
L 556 2881 
L 59 2881 
L 59 3319 
L 556 3319 
L 556 3672 
Q 556 4006 616 4169 
Q 697 4388 901 4523 
Q 1106 4659 1475 4659 
Q 1713 4659 2000 4603 
L 1916 4113 
Q 1741 4144 1584 4144 
Q 1328 4144 1222 4034 
Q 1116 3925 1116 3625 
L 1116 3319 
L 1763 3319 
L 1763 2881 
L 1116 2881 
L 1116 0 
L 556 0 
z
" transform="scale(0.015625)"/>
      <path id="ArialMT-28" d="M 1497 -1347 
Q 1031 -759 709 28 
Q 388 816 388 1659 
Q 388 2403 628 3084 
Q 909 3875 1497 4659 
L 1900 4659 
Q 1522 4009 1400 3731 
Q 1209 3300 1100 2831 
Q 966 2247 966 1656 
Q 966 153 1900 -1347 
L 1497 -1347 
z
" transform="scale(0.015625)"/>
      <path id="ArialMT-74" d="M 1650 503 
L 1731 6 
Q 1494 -44 1306 -44 
Q 1000 -44 831 53 
Q 663 150 594 308 
Q 525 466 525 972 
L 525 2881 
L 113 2881 
L 113 3319 
L 525 3319 
L 525 4141 
L 1084 4478 
L 1084 3319 
L 1650 3319 
L 1650 2881 
L 1084 2881 
L 1084 941 
Q 1084 700 1114 631 
Q 1144 563 1211 522 
Q 1278 481 1403 481 
Q 1497 481 1650 503 
z
" transform="scale(0.015625)"/>
      <path id="ArialMT-6d" d="M 422 0 
L 422 3319 
L 925 3319 
L 925 2853 
Q 1081 3097 1340 3245 
Q 1600 3394 1931 3394 
Q 2300 3394 2536 3241 
Q 2772 3088 2869 2813 
Q 3263 3394 3894 3394 
Q 4388 3394 4653 3120 
Q 4919 2847 4919 2278 
L 4919 0 
L 4359 0 
L 4359 2091 
Q 4359 2428 4304 2576 
Q 4250 2725 4106 2815 
Q 3963 2906 3769 2906 
Q 3419 2906 3187 2673 
Q 2956 2441 2956 1928 
L 2956 0 
L 2394 0 
L 2394 2156 
Q 2394 2531 2256 2718 
Q 2119 2906 1806 2906 
Q 1569 2906 1367 2781 
Q 1166 2656 1075 2415 
Q 984 2175 984 1722 
L 984 0 
L 422 0 
z
" transform="scale(0.015625)"/>
      <path id="ArialMT-78" d="M 47 0 
L 1259 1725 
L 138 3319 
L 841 3319 
L 1350 2541 
Q 1494 2319 1581 2169 
Q 1719 2375 1834 2534 
L 2394 3319 
L 3066 3319 
L 1919 1756 
L 3153 0 
L 2463 0 
L 1781 1031 
L 1600 1309 
L 728 0 
L 47 0 
z
" transform="scale(0.015625)"/>
      <path id="ArialMT-29" d="M 791 -1347 
L 388 -1347 
Q 1322 153 1322 1656 
Q 1322 2244 1188 2822 
Q 1081 3291 891 3722 
Q 769 4003 388 4659 
L 791 4659 
Q 1378 3875 1659 3084 
Q 1900 2403 1900 1659 
Q 1900 816 1576 28 
Q 1253 -759 791 -1347 
z
" transform="scale(0.015625)"/>
     </defs>
     <use xlink:href="#ArialMT-43"/>
     <use xlink:href="#ArialMT-6c" x="72.216797"/>
     <use xlink:href="#ArialMT-61" x="94.433594"/>
     <use xlink:href="#ArialMT-73" x="150.048828"/>
     <use xlink:href="#ArialMT-73" x="200.048828"/>
     <use xlink:href="#ArialMT-69" x="250.048828"/>
     <use xlink:href="#ArialMT-66" x="272.265625"/>
     <use xlink:href="#ArialMT-69" x="300.048828"/>
     <use xlink:href="#ArialMT-65" x="322.265625"/>
     <use xlink:href="#ArialMT-72" x="377.880859"/>
     <use xlink:href="#ArialMT-20" x="411.181641"/>
     <use xlink:href="#ArialMT-28" x="438.964844"/>
     <use xlink:href="#ArialMT-53" x="472.265625"/>
     <use xlink:href="#ArialMT-6f" x="538.964844"/>
     <use xlink:href="#ArialMT-66" x="594.580078"/>
     <use xlink:href="#ArialMT-74" x="622.363281"/>
     <use xlink:href="#ArialMT-6d" x="650.146484"/>
     <use xlink:href="#ArialMT-61" x="733.447266"/>
     <use xlink:href="#ArialMT-78" x="789.0625"/>
     <use xlink:href="#ArialMT-29" x="839.0625"/>
    </g>
   </g>
   <g id="text_5">
    <!-- Target Encoder -->
    <g style="fill: #111827" transform="translate(89.502594 247.998562) scale(0.1 -0.1)">
     <defs>
      <path id="ArialMT-54" d="M 1659 0 
L 1659 4041 
L 150 4041 
L 150 4581 
L 3781 4581 
L 3781 4041 
L 2266 4041 
L 2266 0 
L 1659 0 
z
" transform="scale(0.015625)"/>
      <path id="ArialMT-67" d="M 319 -275 
L 866 -356 
Q 900 -609 1056 -725 
Q 1266 -881 1628 -881 
Q 2019 -881 2231 -725 
Q 2444 -569 2519 -288 
Q 2563 -116 2559 434 
Q 2191 0 1641 0 
Q 956 0 581 494 
Q 206 988 206 1678 
Q 206 2153 378 2554 
Q 550 2956 876 3175 
Q 1203 3394 1644 3394 
Q 2231 3394 2613 2919 
L 2613 3319 
L 3131 3319 
L 3131 450 
Q 3131 -325 2973 -648 
Q 2816 -972 2473 -1159 
Q 2131 -1347 1631 -1347 
Q 1038 -1347 672 -1080 
Q 306 -813 319 -275 
z
M 784 1719 
Q 784 1066 1043 766 
Q 1303 466 1694 466 
Q 2081 466 2343 764 
Q 2606 1063 2606 1700 
Q 2606 2309 2336 2618 
Q 2066 2928 1684 2928 
Q 1309 2928 1046 2623 
Q 784 2319 784 1719 
z
" transform="scale(0.015625)"/>
     </defs>
     <use xlink:href="#ArialMT-54"/>
     <use xlink:href="#ArialMT-61" x="49.958984"/>
     <use xlink:href="#ArialMT-72" x="105.574219"/>
     <use xlink:href="#ArialMT-67" x="138.875"/>
     <use xlink:href="#ArialMT-65" x="194.490234"/>
     <use xlink:href="#ArialMT-74" x="250.105469"/>
     <use xlink:href="#ArialMT-20" x="277.888672"/>
     <use xlink:href="#ArialMT-45" x="305.671875"/>
     <use xlink:href="#ArialMT-6e" x="372.371094"/>
     <use xlink:href="#ArialMT-63" x="427.986328"/>
     <use xlink:href="#ArialMT-6f" x="477.986328"/>
     <use xlink:href="#ArialMT-64" x="533.601562"/>
     <use xlink:href="#ArialMT-65" x="589.216797"/>
     <use xlink:href="#ArialMT-72" x="644.832031"/>
    </g>
   </g>
   <g id="text_6">
    <!-- Shared features align source and target -->
    <g style="fill: #334155" transform="translate(44.361891 296.76075) scale(0.09 -0.09)">
     <use xlink:href="#ArialMT-53"/>
     <use xlink:href="#ArialMT-68" x="66.699219"/>
     <use xlink:href="#ArialMT-61" x="122.314453"/>
     <use xlink:href="#ArialMT-72" x="177.929688"/>
     <use xlink:href="#ArialMT-65" x="211.230469"/>
     <use xlink:href="#ArialMT-64" x="266.845703"/>
     <use xlink:href="#ArialMT-20" x="322.460938"/>
     <use xlink:href="#ArialMT-66" x="350.244141"/>
     <use xlink:href="#ArialMT-65" x="378.027344"/>
     <use xlink:href="#ArialMT-61" x="433.642578"/>
     <use xlink:href="#ArialMT-74" x="489.257812"/>
     <use xlink:href="#ArialMT-75" x="517.041016"/>
     <use xlink:href="#ArialMT-72" x="572.65625"/>
     <use xlink:href="#ArialMT-65" x="605.957031"/>
     <use xlink:href="#ArialMT-73" x="661.572266"/>
     <use xlink:href="#ArialMT-20" x="711.572266"/>
     <use xlink:href="#ArialMT-61" x="739.355469"/>
     <use xlink:href="#ArialMT-6c" x="794.970703"/>
     <use xlink:href="#ArialMT-69" x="817.1875"/>
     <use xlink:href="#ArialMT-67" x="839.404297"/>
     <use xlink:href="#ArialMT-6e" x="895.019531"/>
     <use xlink:href="#ArialMT-20" x="950.634766"/>
     <use xlink:href="#ArialMT-73" x="978.417969"/>
     <use xlink:href="#ArialMT-6f" x="1028.417969"/>
     <use xlink:href="#ArialMT-75" x="1084.033203"/>
     <use xlink:href="#ArialMT-72" x="1139.648438"/>
     <use xlink:href="#ArialMT-63" x="1172.949219"/>
     <use xlink:href="#ArialMT-65" x="1222.949219"/>
     <use xlink:href="#ArialMT-20" x="1278.564453"/>
     <use xlink:href="#ArialMT-61" x="1306.347656"/>
     <use xlink:href="#ArialMT-6e" x="1361.962891"/>
     <use xlink:href="#ArialMT-64" x="1417.578125"/>
     <use xlink:href="#ArialMT-20" x="1473.193359"/>
     <use xlink:href="#ArialMT-74" x="1500.976562"/>
     <use xlink:href="#ArialMT-61" x="1528.759766"/>
     <use xlink:href="#ArialMT-72" x="1584.375"/>
     <use xlink:href="#ArialMT-67" x="1617.675781"/>
     <use xlink:href="#ArialMT-65" x="1673.291016"/>
     <use xlink:href="#ArialMT-74" x="1728.90625"/>
    </g>
   </g>
   <g id="text_7">
    <!-- UAN + SNGP -->
    <g style="fill: #111827" transform="translate(312.837312 43.469062) scale(0.14 -0.14)">
     <defs>
      <path id="Arial-BoldMT-20" transform="scale(0.015625)"/>
      <path id="Arial-BoldMT-2b" d="M 1466 659 
L 1466 1850 
L 266 1850 
L 266 2672 
L 1466 2672 
L 1466 3863 
L 2266 3863 
L 2266 2672 
L 3469 2672 
L 3469 1850 
L 2266 1850 
L 2266 659 
L 1466 659 
z
" transform="scale(0.015625)"/>
      <path id="Arial-BoldMT-53" d="M 231 1491 
L 1131 1578 
Q 1213 1125 1461 912 
Q 1709 700 2131 700 
Q 2578 700 2804 889 
Q 3031 1078 3031 1331 
Q 3031 1494 2936 1608 
Q 2841 1722 2603 1806 
Q 2441 1863 1863 2006 
Q 1119 2191 819 2459 
Q 397 2838 397 3381 
Q 397 3731 595 4036 
Q 794 4341 1167 4500 
Q 1541 4659 2069 4659 
Q 2931 4659 3367 4281 
Q 3803 3903 3825 3272 
L 2900 3231 
Q 2841 3584 2645 3739 
Q 2450 3894 2059 3894 
Q 1656 3894 1428 3728 
Q 1281 3622 1281 3444 
Q 1281 3281 1419 3166 
Q 1594 3019 2269 2859 
Q 2944 2700 3267 2529 
Q 3591 2359 3773 2064 
Q 3956 1769 3956 1334 
Q 3956 941 3737 597 
Q 3519 253 3119 86 
Q 2719 -81 2122 -81 
Q 1253 -81 787 320 
Q 322 722 231 1491 
z
" transform="scale(0.015625)"/>
      <path id="Arial-BoldMT-47" d="M 2597 1684 
L 2597 2456 
L 4591 2456 
L 4591 631 
Q 4300 350 3748 136 
Q 3197 -78 2631 -78 
Q 1913 -78 1378 223 
Q 844 525 575 1086 
Q 306 1647 306 2306 
Q 306 3022 606 3578 
Q 906 4134 1484 4431 
Q 1925 4659 2581 4659 
Q 3434 4659 3914 4301 
Q 4394 3944 4531 3313 
L 3613 3141 
Q 3516 3478 3248 3673 
Q 2981 3869 2581 3869 
Q 1975 3869 1617 3484 
Q 1259 3100 1259 2344 
Q 1259 1528 1621 1120 
Q 1984 713 2572 713 
Q 2863 713 3155 827 
Q 3447 941 3656 1103 
L 3656 1684 
L 2597 1684 
z
" transform="scale(0.015625)"/>
      <path id="Arial-BoldMT-50" d="M 466 0 
L 466 4581 
L 1950 4581 
Q 2794 4581 3050 4513 
Q 3444 4409 3709 4064 
Q 3975 3719 3975 3172 
Q 3975 2750 3822 2462 
Q 3669 2175 3433 2011 
Q 3197 1847 2953 1794 
Q 2622 1728 1994 1728 
L 1391 1728 
L 1391 0 
L 466 0 
z
M 1391 3806 
L 1391 2506 
L 1897 2506 
Q 2444 2506 2628 2578 
Q 2813 2650 2917 2803 
Q 3022 2956 3022 3159 
Q 3022 3409 2875 3571 
Q 2728 3734 2503 3775 
Q 2338 3806 1838 3806 
L 1391 3806 
z
" transform="scale(0.015625)"/>
     </defs>
     <use xlink:href="#Arial-BoldMT-55"/>
     <use xlink:href="#Arial-BoldMT-41" x="72.216797"/>
     <use xlink:href="#Arial-BoldMT-4e" x="144.433594"/>
     <use xlink:href="#Arial-BoldMT-20" x="216.650391"/>
     <use xlink:href="#Arial-BoldMT-2b" x="244.433594"/>
     <use xlink:href="#Arial-BoldMT-20" x="302.832031"/>
     <use xlink:href="#Arial-BoldMT-53" x="330.615234"/>
     <use xlink:href="#Arial-BoldMT-4e" x="397.314453"/>
     <use xlink:href="#Arial-BoldMT-47" x="469.53125"/>
     <use xlink:href="#Arial-BoldMT-50" x="547.314453"/>
    </g>
   </g>
   <g id="text_8">
    <!-- Source Encoder -->
    <g style="fill: #111827" transform="translate(319.967156 91.385156) scale(0.1 -0.1)">
     <use xlink:href="#ArialMT-53"/>
     <use xlink:href="#ArialMT-6f" x="66.699219"/>
     <use xlink:href="#ArialMT-75" x="122.314453"/>
     <use xlink:href="#ArialMT-72" x="177.929688"/>
     <use xlink:href="#ArialMT-63" x="211.230469"/>
     <use xlink:href="#ArialMT-65" x="261.230469"/>
     <use xlink:href="#ArialMT-20" x="316.845703"/>
     <use xlink:href="#ArialMT-45" x="344.628906"/>
     <use xlink:href="#ArialMT-6e" x="411.328125"/>
     <use xlink:href="#ArialMT-63" x="466.943359"/>
     <use xlink:href="#ArialMT-6f" x="516.943359"/>
     <use xlink:href="#ArialMT-64" x="572.558594"/>
     <use xlink:href="#ArialMT-65" x="628.173828"/>
     <use xlink:href="#ArialMT-72" x="683.789062"/>
    </g>
   </g>
   <g id="text_9">
    <!-- Shared Bottleneck -->
    <g style="fill: #111827" transform="translate(314.962469 143.609156) scale(0.1 -0.1)">
     <use xlink:href="#ArialMT-53"/>
     <use xlink:href="#ArialMT-68" x="66.699219"/>
     <use xlink:href="#ArialMT-61" x="122.314453"/>
     <use xlink:href="#ArialMT-72" x="177.929688"/>
     <use xlink:href="#ArialMT-65" x="211.230469"/>
     <use xlink:href="#ArialMT-64" x="266.845703"/>
     <use xlink:href="#ArialMT-20" x="322.460938"/>
     <use xlink:href="#ArialMT-42" x="350.244141"/>
     <use xlink:href="#ArialMT-6f" x="416.943359"/>
     <use xlink:href="#ArialMT-74" x="472.558594"/>
     <use xlink:href="#ArialMT-74" x="500.341797"/>
     <use xlink:href="#ArialMT-6c" x="528.125"/>
     <use xlink:href="#ArialMT-65" x="550.341797"/>
     <use xlink:href="#ArialMT-6e" x="605.957031"/>
     <use xlink:href="#ArialMT-65" x="661.572266"/>
     <use xlink:href="#ArialMT-63" x="717.1875"/>
     <use xlink:href="#ArialMT-6b" x="767.1875"/>
    </g>
   </g>
   <g id="text_10">
    <!-- Domain Discriminator -->
    <g style="fill: #111827" transform="translate(308.033562 195.833156) scale(0.1 -0.1)">
     <defs>
      <path id="ArialMT-44" d="M 494 0 
L 494 4581 
L 2072 4581 
Q 2606 4581 2888 4516 
Q 3281 4425 3559 4188 
Q 3922 3881 4101 3404 
Q 4281 2928 4281 2316 
Q 4281 1794 4159 1391 
Q 4038 988 3847 723 
Q 3656 459 3429 307 
Q 3203 156 2883 78 
Q 2563 0 2147 0 
L 494 0 
z
M 1100 541 
L 2078 541 
Q 2531 541 2789 625 
Q 3047 709 3200 863 
Q 3416 1078 3536 1442 
Q 3656 1806 3656 2325 
Q 3656 3044 3420 3430 
Q 3184 3816 2847 3947 
Q 2603 4041 2063 4041 
L 1100 4041 
L 1100 541 
z
" transform="scale(0.015625)"/>
     </defs>
     <use xlink:href="#ArialMT-44"/>
     <use xlink:href="#ArialMT-6f" x="72.216797"/>
     <use xlink:href="#ArialMT-6d" x="127.832031"/>
     <use xlink:href="#ArialMT-61" x="211.132812"/>
     <use xlink:href="#ArialMT-69" x="266.748047"/>
     <use xlink:href="#ArialMT-6e" x="288.964844"/>
     <use xlink:href="#ArialMT-20" x="344.580078"/>
     <use xlink:href="#ArialMT-44" x="372.363281"/>
     <use xlink:href="#ArialMT-69" x="444.580078"/>
     <use xlink:href="#ArialMT-73" x="466.796875"/>
     <use xlink:href="#ArialMT-63" x="516.796875"/>
     <use xlink:href="#ArialMT-72" x="566.796875"/>
     <use xlink:href="#ArialMT-69" x="600.097656"/>
     <use xlink:href="#ArialMT-6d" x="622.314453"/>
     <use xlink:href="#ArialMT-69" x="705.615234"/>
     <use xlink:href="#ArialMT-6e" x="727.832031"/>
     <use xlink:href="#ArialMT-61" x="783.447266"/>
     <use xlink:href="#ArialMT-74" x="839.0625"/>
     <use xlink:href="#ArialMT-6f" x="866.845703"/>
     <use xlink:href="#ArialMT-72" x="922.460938"/>
    </g>
   </g>
   <g id="text_11">
    <!-- Target Encoder -->
    <g style="fill: #111827" transform="translate(321.915594 247.998562) scale(0.1 -0.1)">
     <use xlink:href="#ArialMT-54"/>
     <use xlink:href="#ArialMT-61" x="49.958984"/>
     <use xlink:href="#ArialMT-72" x="105.574219"/>
     <use xlink:href="#ArialMT-67" x="138.875"/>
     <use xlink:href="#ArialMT-65" x="194.490234"/>
     <use xlink:href="#ArialMT-74" x="250.105469"/>
     <use xlink:href="#ArialMT-20" x="277.888672"/>
     <use xlink:href="#ArialMT-45" x="305.671875"/>
     <use xlink:href="#ArialMT-6e" x="372.371094"/>
     <use xlink:href="#ArialMT-63" x="427.986328"/>
     <use xlink:href="#ArialMT-6f" x="477.986328"/>
     <use xlink:href="#ArialMT-64" x="533.601562"/>
     <use xlink:href="#ArialMT-65" x="589.216797"/>
     <use xlink:href="#ArialMT-72" x="644.832031"/>
    </g>
   </g>
   <g id="text_12">
    <!-- SNGP bottleneck adds calibrated uncertainty -->
    <g style="fill: #334155" transform="translate(266.353875 296.76075) scale(0.09 -0.09)">
     <defs>
      <path id="ArialMT-4e" d="M 488 0 
L 488 4581 
L 1109 4581 
L 3516 984 
L 3516 4581 
L 4097 4581 
L 4097 0 
L 3475 0 
L 1069 3600 
L 1069 0 
L 488 0 
z
" transform="scale(0.015625)"/>
      <path id="ArialMT-47" d="M 2638 1797 
L 2638 2334 
L 4578 2338 
L 4578 638 
Q 4131 281 3656 101 
Q 3181 -78 2681 -78 
Q 2006 -78 1454 211 
Q 903 500 622 1047 
Q 341 1594 341 2269 
Q 341 2938 620 3517 
Q 900 4097 1425 4378 
Q 1950 4659 2634 4659 
Q 3131 4659 3532 4498 
Q 3934 4338 4162 4050 
Q 4391 3763 4509 3300 
L 3963 3150 
Q 3859 3500 3706 3700 
Q 3553 3900 3268 4020 
Q 2984 4141 2638 4141 
Q 2222 4141 1919 4014 
Q 1616 3888 1430 3681 
Q 1244 3475 1141 3228 
Q 966 2803 966 2306 
Q 966 1694 1177 1281 
Q 1388 869 1791 669 
Q 2194 469 2647 469 
Q 3041 469 3416 620 
Q 3791 772 3984 944 
L 3984 1797 
L 2638 1797 
z
" transform="scale(0.015625)"/>
      <path id="ArialMT-50" d="M 494 0 
L 494 4581 
L 2222 4581 
Q 2678 4581 2919 4538 
Q 3256 4481 3484 4323 
Q 3713 4166 3852 3881 
Q 3991 3597 3991 3256 
Q 3991 2672 3619 2267 
Q 3247 1863 2275 1863 
L 1100 1863 
L 1100 0 
L 494 0 
z
M 1100 2403 
L 2284 2403 
Q 2872 2403 3119 2622 
Q 3366 2841 3366 3238 
Q 3366 3525 3220 3729 
Q 3075 3934 2838 4000 
Q 2684 4041 2272 4041 
L 1100 4041 
L 1100 2403 
z
" transform="scale(0.015625)"/>
      <path id="ArialMT-79" d="M 397 -1278 
L 334 -750 
Q 519 -800 656 -800 
Q 844 -800 956 -737 
Q 1069 -675 1141 -563 
Q 1194 -478 1313 -144 
Q 1328 -97 1363 -6 
L 103 3319 
L 709 3319 
L 1400 1397 
Q 1534 1031 1641 628 
Q 1738 1016 1872 1384 
L 2581 3319 
L 3144 3319 
L 1881 -56 
Q 1678 -603 1566 -809 
Q 1416 -1088 1222 -1217 
Q 1028 -1347 759 -1347 
Q 597 -1347 397 -1278 
z
" transform="scale(0.015625)"/>
     </defs>
     <use xlink:href="#ArialMT-53"/>
     <use xlink:href="#ArialMT-4e" x="66.699219"/>
     <use xlink:href="#ArialMT-47" x="138.916016"/>
     <use xlink:href="#ArialMT-50" x="216.699219"/>
     <use xlink:href="#ArialMT-20" x="281.648438"/>
     <use xlink:href="#ArialMT-62" x="309.431641"/>
     <use xlink:href="#ArialMT-6f" x="365.046875"/>
     <use xlink:href="#ArialMT-74" x="420.662109"/>
     <use xlink:href="#ArialMT-74" x="448.445312"/>
     <use xlink:href="#ArialMT-6c" x="476.228516"/>
     <use xlink:href="#ArialMT-65" x="498.445312"/>
     <use xlink:href="#ArialMT-6e" x="554.060547"/>
     <use xlink:href="#ArialMT-65" x="609.675781"/>
     <use xlink:href="#ArialMT-63" x="665.291016"/>
     <use xlink:href="#ArialMT-6b" x="715.291016"/>
     <use xlink:href="#ArialMT-20" x="765.291016"/>
     <use xlink:href="#ArialMT-61" x="793.074219"/>
     <use xlink:href="#ArialMT-64" x="848.689453"/>
     <use xlink:href="#ArialMT-64" x="904.304688"/>
     <use xlink:href="#ArialMT-73" x="959.919922"/>
     <use xlink:href="#ArialMT-20" x="1009.919922"/>
     <use xlink:href="#ArialMT-63" x="1037.703125"/>
     <use xlink:href="#ArialMT-61" x="1087.703125"/>
     <use xlink:href="#ArialMT-6c" x="1143.318359"/>
     <use xlink:href="#ArialMT-69" x="1165.535156"/>
     <use xlink:href="#ArialMT-62" x="1187.751953"/>
     <use xlink:href="#ArialMT-72" x="1243.367188"/>
     <use xlink:href="#ArialMT-61" x="1276.667969"/>
     <use xlink:href="#ArialMT-74" x="1332.283203"/>
     <use xlink:href="#ArialMT-65" x="1360.066406"/>
     <use xlink:href="#ArialMT-64" x="1415.681641"/>
     <use xlink:href="#ArialMT-20" x="1471.296875"/>
     <use xlink:href="#ArialMT-75" x="1499.080078"/>
     <use xlink:href="#ArialMT-6e" x="1554.695312"/>
     <use xlink:href="#ArialMT-63" x="1610.310547"/>
     <use xlink:href="#ArialMT-65" x="1660.310547"/>
     <use xlink:href="#ArialMT-72" x="1715.925781"/>
     <use xlink:href="#ArialMT-74" x="1749.226562"/>
     <use xlink:href="#ArialMT-61" x="1777.009766"/>
     <use xlink:href="#ArialMT-69" x="1832.625"/>
     <use xlink:href="#ArialMT-6e" x="1854.841797"/>
     <use xlink:href="#ArialMT-74" x="1910.457031"/>
     <use xlink:href="#ArialMT-79" x="1938.240234"/>
    </g>
   </g>
   <g id="text_13">
    <!-- GRL -->
    <g style="fill: #111827" transform="translate(435.693315 169.20975) scale(0.08 -0.08)">
     <defs>
      <path id="Arial-BoldMT-52" d="M 469 0 
L 469 4581 
L 2416 4581 
Q 3150 4581 3483 4457 
Q 3816 4334 4016 4018 
Q 4216 3703 4216 3297 
Q 4216 2781 3912 2445 
Q 3609 2109 3006 2022 
Q 3306 1847 3501 1637 
Q 3697 1428 4028 894 
L 4588 0 
L 3481 0 
L 2813 997 
Q 2456 1531 2325 1670 
Q 2194 1809 2047 1861 
Q 1900 1913 1581 1913 
L 1394 1913 
L 1394 0 
L 469 0 
z
M 1394 2644 
L 2078 2644 
Q 2744 2644 2909 2700 
Q 3075 2756 3169 2893 
Q 3263 3031 3263 3238 
Q 3263 3469 3139 3611 
Q 3016 3753 2791 3791 
Q 2678 3806 2116 3806 
L 1394 3806 
L 1394 2644 
z
" transform="scale(0.015625)"/>
      <path id="Arial-BoldMT-4c" d="M 491 0 
L 491 4544 
L 1416 4544 
L 1416 772 
L 3716 772 
L 3716 0 
L 491 0 
z
" transform="scale(0.015625)"/>
     </defs>
     <use xlink:href="#Arial-BoldMT-47"/>
     <use xlink:href="#Arial-BoldMT-52" x="77.783203"/>
     <use xlink:href="#Arial-BoldMT-4c" x="150"/>
    </g>
   </g>
   <g id="text_14">
    <!-- UAN + SNGP + OpenMax -->
    <g style="fill: #111827" transform="translate(505.890625 43.554375) scale(0.14 -0.14)">
     <defs>
      <path id="Arial-BoldMT-4f" d="M 278 2263 
Q 278 2963 488 3438 
Q 644 3788 914 4066 
Q 1184 4344 1506 4478 
Q 1934 4659 2494 4659 
Q 3506 4659 4114 4031 
Q 4722 3403 4722 2284 
Q 4722 1175 4119 548 
Q 3516 -78 2506 -78 
Q 1484 -78 881 545 
Q 278 1169 278 2263 
z
M 1231 2294 
Q 1231 1516 1590 1114 
Q 1950 713 2503 713 
Q 3056 713 3411 1111 
Q 3766 1509 3766 2306 
Q 3766 3094 3420 3481 
Q 3075 3869 2503 3869 
Q 1931 3869 1581 3476 
Q 1231 3084 1231 2294 
z
" transform="scale(0.015625)"/>
      <path id="Arial-BoldMT-70" d="M 434 3319 
L 1253 3319 
L 1253 2831 
Q 1413 3081 1684 3237 
Q 1956 3394 2288 3394 
Q 2866 3394 3269 2941 
Q 3672 2488 3672 1678 
Q 3672 847 3265 386 
Q 2859 -75 2281 -75 
Q 2006 -75 1782 34 
Q 1559 144 1313 409 
L 1313 -1263 
L 434 -1263 
L 434 3319 
z
M 1303 1716 
Q 1303 1156 1525 889 
Q 1747 622 2066 622 
Q 2372 622 2575 867 
Q 2778 1113 2778 1672 
Q 2778 2194 2568 2447 
Q 2359 2700 2050 2700 
Q 1728 2700 1515 2451 
Q 1303 2203 1303 1716 
z
" transform="scale(0.015625)"/>
      <path id="Arial-BoldMT-65" d="M 2381 1056 
L 3256 909 
Q 3088 428 2723 176 
Q 2359 -75 1813 -75 
Q 947 -75 531 491 
Q 203 944 203 1634 
Q 203 2459 634 2926 
Q 1066 3394 1725 3394 
Q 2466 3394 2894 2905 
Q 3322 2416 3303 1406 
L 1103 1406 
Q 1113 1016 1316 798 
Q 1519 581 1822 581 
Q 2028 581 2168 693 
Q 2309 806 2381 1056 
z
M 2431 1944 
Q 2422 2325 2234 2523 
Q 2047 2722 1778 2722 
Q 1491 2722 1303 2513 
Q 1116 2303 1119 1944 
L 2431 1944 
z
" transform="scale(0.015625)"/>
      <path id="Arial-BoldMT-6e" d="M 3478 0 
L 2600 0 
L 2600 1694 
Q 2600 2231 2544 2389 
Q 2488 2547 2361 2634 
Q 2234 2722 2056 2722 
Q 1828 2722 1647 2597 
Q 1466 2472 1398 2265 
Q 1331 2059 1331 1503 
L 1331 0 
L 453 0 
L 453 3319 
L 1269 3319 
L 1269 2831 
Q 1703 3394 2363 3394 
Q 2653 3394 2893 3289 
Q 3134 3184 3257 3021 
Q 3381 2859 3429 2653 
Q 3478 2447 3478 2063 
L 3478 0 
z
" transform="scale(0.015625)"/>
      <path id="Arial-BoldMT-4d" d="M 453 0 
L 453 4581 
L 1838 4581 
L 2669 1456 
L 3491 4581 
L 4878 4581 
L 4878 0 
L 4019 0 
L 4019 3606 
L 3109 0 
L 2219 0 
L 1313 3606 
L 1313 0 
L 453 0 
z
" transform="scale(0.015625)"/>
      <path id="Arial-BoldMT-61" d="M 1116 2306 
L 319 2450 
Q 453 2931 781 3162 
Q 1109 3394 1756 3394 
Q 2344 3394 2631 3255 
Q 2919 3116 3036 2902 
Q 3153 2688 3153 2116 
L 3144 1091 
Q 3144 653 3186 445 
Q 3228 238 3344 0 
L 2475 0 
Q 2441 88 2391 259 
Q 2369 338 2359 363 
Q 2134 144 1878 34 
Q 1622 -75 1331 -75 
Q 819 -75 523 203 
Q 228 481 228 906 
Q 228 1188 362 1408 
Q 497 1628 739 1745 
Q 981 1863 1438 1950 
Q 2053 2066 2291 2166 
L 2291 2253 
Q 2291 2506 2166 2614 
Q 2041 2722 1694 2722 
Q 1459 2722 1328 2630 
Q 1197 2538 1116 2306 
z
M 2291 1594 
Q 2122 1538 1756 1459 
Q 1391 1381 1278 1306 
Q 1106 1184 1106 997 
Q 1106 813 1243 678 
Q 1381 544 1594 544 
Q 1831 544 2047 700 
Q 2206 819 2256 991 
Q 2291 1103 2291 1419 
L 2291 1594 
z
" transform="scale(0.015625)"/>
      <path id="Arial-BoldMT-78" d="M 38 0 
L 1234 1709 
L 88 3319 
L 1159 3319 
L 1747 2406 
L 2366 3319 
L 3397 3319 
L 2272 1747 
L 3500 0 
L 2422 0 
L 1747 1028 
L 1066 0 
L 38 0 
z
" transform="scale(0.015625)"/>
     </defs>
     <use xlink:href="#Arial-BoldMT-55"/>
     <use xlink:href="#Arial-BoldMT-41" x="72.216797"/>
     <use xlink:href="#Arial-BoldMT-4e" x="144.433594"/>
     <use xlink:href="#Arial-BoldMT-20" x="216.650391"/>
     <use xlink:href="#Arial-BoldMT-2b" x="244.433594"/>
     <use xlink:href="#Arial-BoldMT-20" x="302.832031"/>
     <use xlink:href="#Arial-BoldMT-53" x="330.615234"/>
     <use xlink:href="#Arial-BoldMT-4e" x="397.314453"/>
     <use xlink:href="#Arial-BoldMT-47" x="469.53125"/>
     <use xlink:href="#Arial-BoldMT-50" x="547.314453"/>
     <use xlink:href="#Arial-BoldMT-20" x="612.263672"/>
     <use xlink:href="#Arial-BoldMT-2b" x="640.046875"/>
     <use xlink:href="#Arial-BoldMT-20" x="698.445312"/>
     <use xlink:href="#Arial-BoldMT-4f" x="726.228516"/>
     <use xlink:href="#Arial-BoldMT-70" x="804.011719"/>
     <use xlink:href="#Arial-BoldMT-65" x="865.095703"/>
     <use xlink:href="#Arial-BoldMT-6e" x="920.710938"/>
     <use xlink:href="#Arial-BoldMT-4d" x="981.794922"/>
     <use xlink:href="#Arial-BoldMT-61" x="1065.095703"/>
     <use xlink:href="#Arial-BoldMT-78" x="1120.710938"/>
    </g>
   </g>
   <g id="text_15">
    <!-- Shared -->
    <g style="fill: #111827" transform="translate(525.628025 112.208719) scale(0.1 -0.1)">
     <use xlink:href="#ArialMT-53"/>
     <use xlink:href="#ArialMT-68" x="66.699219"/>
     <use xlink:href="#ArialMT-61" x="122.314453"/>
     <use xlink:href="#ArialMT-72" x="177.929688"/>
     <use xlink:href="#ArialMT-65" x="211.230469"/>
     <use xlink:href="#ArialMT-64" x="266.845703"/>
    </g>
    <!-- Encoder -->
    <g style="fill: #111827" transform="translate(523.128025 122.785594) scale(0.1 -0.1)">
     <use xlink:href="#ArialMT-45"/>
     <use xlink:href="#ArialMT-6e" x="66.699219"/>
     <use xlink:href="#ArialMT-63" x="122.314453"/>
     <use xlink:href="#ArialMT-6f" x="172.314453"/>
     <use xlink:href="#ArialMT-64" x="227.929688"/>
     <use xlink:href="#ArialMT-65" x="283.544922"/>
     <use xlink:href="#ArialMT-72" x="339.160156"/>
    </g>
   </g>
   <g id="text_16">
    <!-- SNGP Head -->
    <g style="fill: #111827" transform="translate(643.314896 112.077) scale(0.1 -0.1)">
     <defs>
      <path id="ArialMT-48" d="M 513 0 
L 513 4581 
L 1119 4581 
L 1119 2700 
L 3500 2700 
L 3500 4581 
L 4106 4581 
L 4106 0 
L 3500 0 
L 3500 2159 
L 1119 2159 
L 1119 0 
L 513 0 
z
" transform="scale(0.015625)"/>
     </defs>
     <use xlink:href="#ArialMT-53"/>
     <use xlink:href="#ArialMT-4e" x="66.699219"/>
     <use xlink:href="#ArialMT-47" x="138.916016"/>
     <use xlink:href="#ArialMT-50" x="216.699219"/>
     <use xlink:href="#ArialMT-20" x="281.648438"/>
     <use xlink:href="#ArialMT-48" x="309.431641"/>
     <use xlink:href="#ArialMT-65" x="381.648438"/>
     <use xlink:href="#ArialMT-61" x="437.263672"/>
     <use xlink:href="#ArialMT-64" x="492.878906"/>
    </g>
    <!-- (μ, σ²) -->
    <g style="fill: #111827" transform="translate(656.999271 122.800125) scale(0.1 -0.1)">
     <defs>
      <path id="ArialMT-3bc" d="M 3181 3319 
L 3181 0 
L 2678 0 
L 2678 394 
Q 2516 144 2356 50 
Q 2138 -78 1847 -78 
Q 1588 -78 1388 25 
Q 1238 103 1056 334 
L 1056 -1272 
L 500 -1272 
L 500 3319 
L 1056 3319 
L 1056 1913 
Q 1056 1147 1137 920 
Q 1219 694 1401 562 
Q 1584 431 1822 431 
Q 2072 431 2269 568 
Q 2466 706 2547 923 
Q 2628 1141 2628 1903 
L 2628 3319 
L 3181 3319 
z
" transform="scale(0.015625)"/>
      <path id="ArialMT-2c" d="M 569 0 
L 569 641 
L 1209 641 
L 1209 0 
Q 1209 -353 1084 -570 
Q 959 -788 688 -906 
L 531 -666 
Q 709 -588 793 -436 
Q 878 -284 888 0 
L 569 0 
z
" transform="scale(0.015625)"/>
      <path id="ArialMT-3c3" d="M 3809 3319 
L 3809 2863 
L 2906 2863 
Q 3322 2475 3322 1656 
Q 3322 766 2867 345 
Q 2413 -75 1763 -75 
Q 1088 -75 650 362 
Q 213 800 213 1659 
Q 213 2544 667 2969 
Q 1122 3394 1763 3394 
Q 1997 3394 2294 3319 
L 3809 3319 
z
M 1753 2928 
Q 1344 2928 1067 2609 
Q 791 2291 791 1656 
Q 791 1025 1061 706 
Q 1331 388 1763 388 
Q 2216 388 2483 720 
Q 2750 1053 2750 1659 
Q 2750 2213 2504 2570 
Q 2259 2928 1753 2928 
z
" transform="scale(0.015625)"/>
      <path id="ArialMT-b2" d="M 78 2291 
Q 97 2469 225 2647 
Q 422 2916 872 3242 
Q 1322 3569 1406 3663 
Q 1522 3791 1522 3925 
Q 1522 4075 1412 4172 
Q 1303 4269 1091 4269 
Q 884 4269 782 4195 
Q 681 4122 616 3913 
L 144 3963 
Q 234 4309 457 4473 
Q 681 4638 1100 4638 
Q 1572 4638 1792 4453 
Q 2013 4269 2013 4003 
Q 2013 3741 1828 3506 
Q 1688 3331 1188 2972 
Q 928 2781 819 2669 
L 2025 2669 
L 2025 2291 
L 78 2291 
z
" transform="scale(0.015625)"/>
     </defs>
     <use xlink:href="#ArialMT-28"/>
     <use xlink:href="#ArialMT-3bc" x="33.300781"/>
     <use xlink:href="#ArialMT-2c" x="90.917969"/>
     <use xlink:href="#ArialMT-20" x="118.701172"/>
     <use xlink:href="#ArialMT-3c3" x="146.484375"/>
     <use xlink:href="#ArialMT-b2" x="208.203125"/>
     <use xlink:href="#ArialMT-29" x="241.503906"/>
    </g>
   </g>
   <g id="text_17">
    <!-- OpenMax -->
    <g style="fill: #111827" transform="translate(778.052549 112.272781) scale(0.1 -0.1)">
     <defs>
      <path id="ArialMT-4f" d="M 309 2231 
Q 309 3372 921 4017 
Q 1534 4663 2503 4663 
Q 3138 4663 3647 4359 
Q 4156 4056 4423 3514 
Q 4691 2972 4691 2284 
Q 4691 1588 4409 1038 
Q 4128 488 3612 205 
Q 3097 -78 2500 -78 
Q 1853 -78 1343 234 
Q 834 547 571 1087 
Q 309 1628 309 2231 
z
M 934 2222 
Q 934 1394 1379 917 
Q 1825 441 2497 441 
Q 3181 441 3623 922 
Q 4066 1403 4066 2288 
Q 4066 2847 3877 3264 
Q 3688 3681 3323 3911 
Q 2959 4141 2506 4141 
Q 1863 4141 1398 3698 
Q 934 3256 934 2222 
z
" transform="scale(0.015625)"/>
      <path id="ArialMT-70" d="M 422 -1272 
L 422 3319 
L 934 3319 
L 934 2888 
Q 1116 3141 1344 3267 
Q 1572 3394 1897 3394 
Q 2322 3394 2647 3175 
Q 2972 2956 3137 2557 
Q 3303 2159 3303 1684 
Q 3303 1175 3120 767 
Q 2938 359 2589 142 
Q 2241 -75 1856 -75 
Q 1575 -75 1351 44 
Q 1128 163 984 344 
L 984 -1272 
L 422 -1272 
z
M 931 1641 
Q 931 1000 1190 694 
Q 1450 388 1819 388 
Q 2194 388 2461 705 
Q 2728 1022 2728 1688 
Q 2728 2322 2467 2637 
Q 2206 2953 1844 2953 
Q 1484 2953 1207 2617 
Q 931 2281 931 1641 
z
" transform="scale(0.015625)"/>
      <path id="ArialMT-4d" d="M 475 0 
L 475 4581 
L 1388 4581 
L 2472 1338 
Q 2622 884 2691 659 
Q 2769 909 2934 1394 
L 4031 4581 
L 4847 4581 
L 4847 0 
L 4263 0 
L 4263 3834 
L 2931 0 
L 2384 0 
L 1059 3900 
L 1059 0 
L 475 0 
z
" transform="scale(0.015625)"/>
     </defs>
     <use xlink:href="#ArialMT-4f"/>
     <use xlink:href="#ArialMT-70" x="77.783203"/>
     <use xlink:href="#ArialMT-65" x="133.398438"/>
     <use xlink:href="#ArialMT-6e" x="189.013672"/>
     <use xlink:href="#ArialMT-4d" x="244.628906"/>
     <use xlink:href="#ArialMT-61" x="327.929688"/>
     <use xlink:href="#ArialMT-78" x="383.544922"/>
    </g>
    <!-- Calibration -->
    <g style="fill: #111827" transform="translate(775.82833 122.849656) scale(0.1 -0.1)">
     <use xlink:href="#ArialMT-43"/>
     <use xlink:href="#ArialMT-61" x="72.216797"/>
     <use xlink:href="#ArialMT-6c" x="127.832031"/>
     <use xlink:href="#ArialMT-69" x="150.048828"/>
     <use xlink:href="#ArialMT-62" x="172.265625"/>
     <use xlink:href="#ArialMT-72" x="227.880859"/>
     <use xlink:href="#ArialMT-61" x="261.181641"/>
     <use xlink:href="#ArialMT-74" x="316.796875"/>
     <use xlink:href="#ArialMT-69" x="344.580078"/>
     <use xlink:href="#ArialMT-6f" x="366.796875"/>
     <use xlink:href="#ArialMT-6e" x="422.412109"/>
    </g>
   </g>
   <g id="text_18">
    <!-- Output -->
    <g style="fill: #111827" transform="translate(913.708951 112.272781) scale(0.1 -0.1)">
     <use xlink:href="#ArialMT-4f"/>
     <use xlink:href="#ArialMT-75" x="77.783203"/>
     <use xlink:href="#ArialMT-74" x="133.398438"/>
     <use xlink:href="#ArialMT-70" x="161.181641"/>
     <use xlink:href="#ArialMT-75" x="216.796875"/>
     <use xlink:href="#ArialMT-74" x="272.412109"/>
    </g>
    <!-- Known / Unknown -->
    <g style="fill: #111827" transform="translate(888.419107 122.849656) scale(0.1 -0.1)">
     <defs>
      <path id="ArialMT-4b" d="M 469 0 
L 469 4581 
L 1075 4581 
L 1075 2309 
L 3350 4581 
L 4172 4581 
L 2250 2725 
L 4256 0 
L 3456 0 
L 1825 2319 
L 1075 1588 
L 1075 0 
L 469 0 
z
" transform="scale(0.015625)"/>
      <path id="ArialMT-77" d="M 1034 0 
L 19 3319 
L 600 3319 
L 1128 1403 
L 1325 691 
Q 1338 744 1497 1375 
L 2025 3319 
L 2603 3319 
L 3100 1394 
L 3266 759 
L 3456 1400 
L 4025 3319 
L 4572 3319 
L 3534 0 
L 2950 0 
L 2422 1988 
L 2294 2553 
L 1622 0 
L 1034 0 
z
" transform="scale(0.015625)"/>
      <path id="ArialMT-2f" d="M 0 -78 
L 1328 4659 
L 1778 4659 
L 453 -78 
L 0 -78 
z
" transform="scale(0.015625)"/>
      <path id="ArialMT-55" d="M 3500 4581 
L 4106 4581 
L 4106 1934 
Q 4106 1244 3950 837 
Q 3794 431 3386 176 
Q 2978 -78 2316 -78 
Q 1672 -78 1262 144 
Q 853 366 678 786 
Q 503 1206 503 1934 
L 503 4581 
L 1109 4581 
L 1109 1938 
Q 1109 1341 1220 1058 
Q 1331 775 1601 622 
Q 1872 469 2263 469 
Q 2931 469 3215 772 
Q 3500 1075 3500 1938 
L 3500 4581 
z
" transform="scale(0.015625)"/>
     </defs>
     <use xlink:href="#ArialMT-4b"/>
     <use xlink:href="#ArialMT-6e" x="66.699219"/>
     <use xlink:href="#ArialMT-6f" x="122.314453"/>
     <use xlink:href="#ArialMT-77" x="177.929688"/>
     <use xlink:href="#ArialMT-6e" x="250.146484"/>
     <use xlink:href="#ArialMT-20" x="305.761719"/>
     <use xlink:href="#ArialMT-2f" x="333.544922"/>
     <use xlink:href="#ArialMT-20" x="361.328125"/>
     <use xlink:href="#ArialMT-55" x="389.111328"/>
     <use xlink:href="#ArialMT-6e" x="461.328125"/>
     <use xlink:href="#ArialMT-6b" x="516.943359"/>
     <use xlink:href="#ArialMT-6e" x="566.943359"/>
     <use xlink:href="#ArialMT-6f" x="622.558594"/>
     <use xlink:href="#ArialMT-77" x="678.173828"/>
     <use xlink:href="#ArialMT-6e" x="750.390625"/>
    </g>
   </g>
   <g id="text_19">
    <!-- Uncertainty from SNGP: higher variance ⇒ lower trust -->
    <g style="fill: #111827" transform="translate(481.325859 192.31275) scale(0.09 -0.09)">
     <defs>
      <path id="ArialMT-3a" d="M 578 2678 
L 578 3319 
L 1219 3319 
L 1219 2678 
L 578 2678 
z
M 578 0 
L 578 641 
L 1219 641 
L 1219 0 
L 578 0 
z
" transform="scale(0.015625)"/>
      <path id="ArialMT-76" d="M 1344 0 
L 81 3319 
L 675 3319 
L 1388 1331 
Q 1503 1009 1600 663 
Q 1675 925 1809 1294 
L 2547 3319 
L 3125 3319 
L 1869 0 
L 1344 0 
z
" transform="scale(0.015625)"/>
      <path id="ArialMT-21d2" d="M 800 0 
L 800 4000 
L 4000 4000 
L 4000 0 
L 800 0 
z
M 900 100 
L 3900 100 
L 3900 3900 
L 900 3900 
L 900 100 
z
" transform="scale(0.015625)"/>
     </defs>
     <use xlink:href="#ArialMT-55"/>
     <use xlink:href="#ArialMT-6e" x="72.216797"/>
     <use xlink:href="#ArialMT-63" x="127.832031"/>
     <use xlink:href="#ArialMT-65" x="177.832031"/>
     <use xlink:href="#ArialMT-72" x="233.447266"/>
     <use xlink:href="#ArialMT-74" x="266.748047"/>
     <use xlink:href="#ArialMT-61" x="294.53125"/>
     <use xlink:href="#ArialMT-69" x="350.146484"/>
     <use xlink:href="#ArialMT-6e" x="372.363281"/>
     <use xlink:href="#ArialMT-74" x="427.978516"/>
     <use xlink:href="#ArialMT-79" x="455.761719"/>
     <use xlink:href="#ArialMT-20" x="505.761719"/>
     <use xlink:href="#ArialMT-66" x="533.544922"/>
     <use xlink:href="#ArialMT-72" x="561.328125"/>
     <use xlink:href="#ArialMT-6f" x="594.628906"/>
     <use xlink:href="#ArialMT-6d" x="650.244141"/>
     <use xlink:href="#ArialMT-20" x="733.544922"/>
     <use xlink:href="#ArialMT-53" x="761.328125"/>
     <use xlink:href="#ArialMT-4e" x="828.027344"/>
     <use xlink:href="#ArialMT-47" x="900.244141"/>
     <use xlink:href="#ArialMT-50" x="978.027344"/>
     <use xlink:href="#ArialMT-3a" x="1044.726562"/>
     <use xlink:href="#ArialMT-20" x="1072.509766"/>
     <use xlink:href="#ArialMT-68" x="1100.292969"/>
     <use xlink:href="#ArialMT-69" x="1155.908203"/>
     <use xlink:href="#ArialMT-67" x="1178.125"/>
     <use xlink:href="#ArialMT-68" x="1233.740234"/>
     <use xlink:href="#ArialMT-65" x="1289.355469"/>
     <use xlink:href="#ArialMT-72" x="1344.970703"/>
     <use xlink:href="#ArialMT-20" x="1378.271484"/>
     <use xlink:href="#ArialMT-76" x="1406.054688"/>
     <use xlink:href="#ArialMT-61" x="1456.054688"/>
     <use xlink:href="#ArialMT-72" x="1511.669922"/>
     <use xlink:href="#ArialMT-69" x="1544.970703"/>
     <use xlink:href="#ArialMT-61" x="1567.1875"/>
     <use xlink:href="#ArialMT-6e" x="1622.802734"/>
     <use xlink:href="#ArialMT-63" x="1678.417969"/>
     <use xlink:href="#ArialMT-65" x="1728.417969"/>
     <use xlink:href="#ArialMT-20" x="1784.033203"/>
     <use xlink:href="#ArialMT-21d2" x="1811.816406"/>
     <use xlink:href="#ArialMT-20" x="1886.816406"/>
     <use xlink:href="#ArialMT-6c" x="1914.599609"/>
     <use xlink:href="#ArialMT-6f" x="1936.816406"/>
     <use xlink:href="#ArialMT-77" x="1992.431641"/>
     <use xlink:href="#ArialMT-65" x="2064.648438"/>
     <use xlink:href="#ArialMT-72" x="2120.263672"/>
     <use xlink:href="#ArialMT-20" x="2153.564453"/>
     <use xlink:href="#ArialMT-74" x="2181.347656"/>
     <use xlink:href="#ArialMT-72" x="2209.130859"/>
     <use xlink:href="#ArialMT-75" x="2242.431641"/>
     <use xlink:href="#ArialMT-73" x="2298.046875"/>
     <use xlink:href="#ArialMT-74" x="2348.046875"/>
    </g>
   </g>
   <g id="text_20">
    <!-- OpenMax recalibrates logits to improve unknown rejection -->
    <g style="fill: #111827" transform="translate(472.68375 228.219562) scale(0.09 -0.09)">
     <defs>
      <path id="ArialMT-6a" d="M 419 3928 
L 419 4581 
L 981 4581 
L 981 3928 
L 419 3928 
z
M -294 -1288 
L -188 -809 
Q -19 -853 78 -853 
Q 250 -853 334 -739 
Q 419 -625 419 -169 
L 419 3319 
L 981 3319 
L 981 -181 
Q 981 -794 822 -1034 
Q 619 -1347 147 -1347 
Q -81 -1347 -294 -1288 
z
" transform="scale(0.015625)"/>
     </defs>
     <use xlink:href="#ArialMT-4f"/>
     <use xlink:href="#ArialMT-70" x="77.783203"/>
     <use xlink:href="#ArialMT-65" x="133.398438"/>
     <use xlink:href="#ArialMT-6e" x="189.013672"/>
     <use xlink:href="#ArialMT-4d" x="244.628906"/>
     <use xlink:href="#ArialMT-61" x="327.929688"/>
     <use xlink:href="#ArialMT-78" x="383.544922"/>
     <use xlink:href="#ArialMT-20" x="433.544922"/>
     <use xlink:href="#ArialMT-72" x="461.328125"/>
     <use xlink:href="#ArialMT-65" x="494.628906"/>
     <use xlink:href="#ArialMT-63" x="550.244141"/>
     <use xlink:href="#ArialMT-61" x="600.244141"/>
     <use xlink:href="#ArialMT-6c" x="655.859375"/>
     <use xlink:href="#ArialMT-69" x="678.076172"/>
     <use xlink:href="#ArialMT-62" x="700.292969"/>
     <use xlink:href="#ArialMT-72" x="755.908203"/>
     <use xlink:href="#ArialMT-61" x="789.208984"/>
     <use xlink:href="#ArialMT-74" x="844.824219"/>
     <use xlink:href="#ArialMT-65" x="872.607422"/>
     <use xlink:href="#ArialMT-73" x="928.222656"/>
     <use xlink:href="#ArialMT-20" x="978.222656"/>
     <use xlink:href="#ArialMT-6c" x="1006.005859"/>
     <use xlink:href="#ArialMT-6f" x="1028.222656"/>
     <use xlink:href="#ArialMT-67" x="1083.837891"/>
     <use xlink:href="#ArialMT-69" x="1139.453125"/>
     <use xlink:href="#ArialMT-74" x="1161.669922"/>
     <use xlink:href="#ArialMT-73" x="1189.453125"/>
     <use xlink:href="#ArialMT-20" x="1239.453125"/>
     <use xlink:href="#ArialMT-74" x="1267.236328"/>
     <use xlink:href="#ArialMT-6f" x="1295.019531"/>
     <use xlink:href="#ArialMT-20" x="1350.634766"/>
     <use xlink:href="#ArialMT-69" x="1378.417969"/>
     <use xlink:href="#ArialMT-6d" x="1400.634766"/>
     <use xlink:href="#ArialMT-70" x="1483.935547"/>
     <use xlink:href="#ArialMT-72" x="1539.550781"/>
     <use xlink:href="#ArialMT-6f" x="1572.851562"/>
     <use xlink:href="#ArialMT-76" x="1628.466797"/>
     <use xlink:href="#ArialMT-65" x="1678.466797"/>
     <use xlink:href="#ArialMT-20" x="1734.082031"/>
     <use xlink:href="#ArialMT-75" x="1761.865234"/>
     <use xlink:href="#ArialMT-6e" x="1817.480469"/>
     <use xlink:href="#ArialMT-6b" x="1873.095703"/>
     <use xlink:href="#ArialMT-6e" x="1923.095703"/>
     <use xlink:href="#ArialMT-6f" x="1978.710938"/>
     <use xlink:href="#ArialMT-77" x="2034.326172"/>
     <use xlink:href="#ArialMT-6e" x="2106.542969"/>
     <use xlink:href="#ArialMT-20" x="2162.158203"/>
     <use xlink:href="#ArialMT-72" x="2189.941406"/>
     <use xlink:href="#ArialMT-65" x="2223.242188"/>
     <use xlink:href="#ArialMT-6a" x="2278.857422"/>
     <use xlink:href="#ArialMT-65" x="2301.074219"/>
     <use xlink:href="#ArialMT-63" x="2356.689453"/>
     <use xlink:href="#ArialMT-74" x="2406.689453"/>
     <use xlink:href="#ArialMT-69" x="2434.472656"/>
     <use xlink:href="#ArialMT-6f" x="2456.689453"/>
     <use xlink:href="#ArialMT-6e" x="2512.304688"/>
    </g>
   </g>
   <g id="text_21">
    <!-- Best open-set behavior: calibrated confidence + explicit unknown handling -->
    <g style="fill: #334155" transform="translate(440.522109 296.76075) scale(0.09 -0.09)">
     <defs>
      <path id="ArialMT-2d" d="M 203 1375 
L 203 1941 
L 1931 1941 
L 1931 1375 
L 203 1375 
z
" transform="scale(0.015625)"/>
      <path id="ArialMT-2b" d="M 1603 741 
L 1603 1997 
L 356 1997 
L 356 2522 
L 1603 2522 
L 1603 3769 
L 2134 3769 
L 2134 2522 
L 3381 2522 
L 3381 1997 
L 2134 1997 
L 2134 741 
L 1603 741 
z
" transform="scale(0.015625)"/>
     </defs>
     <use xlink:href="#ArialMT-42"/>
     <use xlink:href="#ArialMT-65" x="66.699219"/>
     <use xlink:href="#ArialMT-73" x="122.314453"/>
     <use xlink:href="#ArialMT-74" x="172.314453"/>
     <use xlink:href="#ArialMT-20" x="200.097656"/>
     <use xlink:href="#ArialMT-6f" x="227.880859"/>
     <use xlink:href="#ArialMT-70" x="283.496094"/>
     <use xlink:href="#ArialMT-65" x="339.111328"/>
     <use xlink:href="#ArialMT-6e" x="394.726562"/>
     <use xlink:href="#ArialMT-2d" x="450.341797"/>
     <use xlink:href="#ArialMT-73" x="483.642578"/>
     <use xlink:href="#ArialMT-65" x="533.642578"/>
     <use xlink:href="#ArialMT-74" x="589.257812"/>
     <use xlink:href="#ArialMT-20" x="617.041016"/>
     <use xlink:href="#ArialMT-62" x="644.824219"/>
     <use xlink:href="#ArialMT-65" x="700.439453"/>
     <use xlink:href="#ArialMT-68" x="756.054688"/>
     <use xlink:href="#ArialMT-61" x="811.669922"/>
     <use xlink:href="#ArialMT-76" x="867.285156"/>
     <use xlink:href="#ArialMT-69" x="917.285156"/>
     <use xlink:href="#ArialMT-6f" x="939.501953"/>
     <use xlink:href="#ArialMT-72" x="995.117188"/>
     <use xlink:href="#ArialMT-3a" x="1028.417969"/>
     <use xlink:href="#ArialMT-20" x="1056.201172"/>
     <use xlink:href="#ArialMT-63" x="1083.984375"/>
     <use xlink:href="#ArialMT-61" x="1133.984375"/>
     <use xlink:href="#ArialMT-6c" x="1189.599609"/>
     <use xlink:href="#ArialMT-69" x="1211.816406"/>
     <use xlink:href="#ArialMT-62" x="1234.033203"/>
     <use xlink:href="#ArialMT-72" x="1289.648438"/>
     <use xlink:href="#ArialMT-61" x="1322.949219"/>
     <use xlink:href="#ArialMT-74" x="1378.564453"/>
     <use xlink:href="#ArialMT-65" x="1406.347656"/>
     <use xlink:href="#ArialMT-64" x="1461.962891"/>
     <use xlink:href="#ArialMT-20" x="1517.578125"/>
     <use xlink:href="#ArialMT-63" x="1545.361328"/>
     <use xlink:href="#ArialMT-6f" x="1595.361328"/>
     <use xlink:href="#ArialMT-6e" x="1650.976562"/>
     <use xlink:href="#ArialMT-66" x="1706.591797"/>
     <use xlink:href="#ArialMT-69" x="1734.375"/>
     <use xlink:href="#ArialMT-64" x="1756.591797"/>
     <use xlink:href="#ArialMT-65" x="1812.207031"/>
     <use xlink:href="#ArialMT-6e" x="1867.822266"/>
     <use xlink:href="#ArialMT-63" x="1923.4375"/>
     <use xlink:href="#ArialMT-65" x="1973.4375"/>
     <use xlink:href="#ArialMT-20" x="2029.052734"/>
     <use xlink:href="#ArialMT-2b" x="2056.835938"/>
     <use xlink:href="#ArialMT-20" x="2115.234375"/>
     <use xlink:href="#ArialMT-65" x="2143.017578"/>
     <use xlink:href="#ArialMT-78" x="2198.632812"/>
     <use xlink:href="#ArialMT-70" x="2248.632812"/>
     <use xlink:href="#ArialMT-6c" x="2304.248047"/>
     <use xlink:href="#ArialMT-69" x="2326.464844"/>
     <use xlink:href="#ArialMT-63" x="2348.681641"/>
     <use xlink:href="#ArialMT-69" x="2398.681641"/>
     <use xlink:href="#ArialMT-74" x="2420.898438"/>
     <use xlink:href="#ArialMT-20" x="2448.681641"/>
     <use xlink:href="#ArialMT-75" x="2476.464844"/>
     <use xlink:href="#ArialMT-6e" x="2532.080078"/>
     <use xlink:href="#ArialMT-6b" x="2587.695312"/>
     <use xlink:href="#ArialMT-6e" x="2637.695312"/>
     <use xlink:href="#ArialMT-6f" x="2693.310547"/>
     <use xlink:href="#ArialMT-77" x="2748.925781"/>
     <use xlink:href="#ArialMT-6e" x="2821.142578"/>
     <use xlink:href="#ArialMT-20" x="2876.757812"/>
     <use xlink:href="#ArialMT-68" x="2904.541016"/>
     <use xlink:href="#ArialMT-61" x="2960.15625"/>
     <use xlink:href="#ArialMT-6e" x="3015.771484"/>
     <use xlink:href="#ArialMT-64" x="3071.386719"/>
     <use xlink:href="#ArialMT-6c" x="3127.001953"/>
     <use xlink:href="#ArialMT-69" x="3149.21875"/>
     <use xlink:href="#ArialMT-6e" x="3171.435547"/>
     <use xlink:href="#ArialMT-67" x="3227.050781"/>
    </g>
   </g>
   <g id="text_22">
    <!-- Open-Set Domain Adaptation Pipeline Comparison -->
    <g style="fill: #111827" transform="translate(175.261687 24.647531) scale(0.15 -0.15)">
     <defs>
      <path id="Arial-BoldMT-2d" d="M 359 1222 
L 359 2100 
L 2084 2100 
L 2084 1222 
L 359 1222 
z
" transform="scale(0.015625)"/>
      <path id="Arial-BoldMT-74" d="M 1981 3319 
L 1981 2619 
L 1381 2619 
L 1381 1281 
Q 1381 875 1398 808 
Q 1416 741 1477 697 
Q 1538 653 1625 653 
Q 1747 653 1978 738 
L 2053 56 
Q 1747 -75 1359 -75 
Q 1122 -75 931 4 
Q 741 84 652 211 
Q 563 338 528 553 
Q 500 706 500 1172 
L 500 2619 
L 97 2619 
L 97 3319 
L 500 3319 
L 500 3978 
L 1381 4491 
L 1381 3319 
L 1981 3319 
z
" transform="scale(0.015625)"/>
      <path id="Arial-BoldMT-44" d="M 463 4581 
L 2153 4581 
Q 2725 4581 3025 4494 
Q 3428 4375 3715 4072 
Q 4003 3769 4153 3330 
Q 4303 2891 4303 2247 
Q 4303 1681 4163 1272 
Q 3991 772 3672 463 
Q 3431 228 3022 97 
Q 2716 0 2203 0 
L 463 0 
L 463 4581 
z
M 1388 3806 
L 1388 772 
L 2078 772 
Q 2466 772 2638 816 
Q 2863 872 3011 1006 
Q 3159 1141 3253 1448 
Q 3347 1756 3347 2288 
Q 3347 2819 3253 3103 
Q 3159 3388 2990 3547 
Q 2822 3706 2563 3763 
Q 2369 3806 1803 3806 
L 1388 3806 
z
" transform="scale(0.015625)"/>
      <path id="Arial-BoldMT-6f" d="M 256 1706 
Q 256 2144 472 2553 
Q 688 2963 1083 3178 
Q 1478 3394 1966 3394 
Q 2719 3394 3200 2905 
Q 3681 2416 3681 1669 
Q 3681 916 3195 420 
Q 2709 -75 1972 -75 
Q 1516 -75 1102 131 
Q 688 338 472 736 
Q 256 1134 256 1706 
z
M 1156 1659 
Q 1156 1166 1390 903 
Q 1625 641 1969 641 
Q 2313 641 2545 903 
Q 2778 1166 2778 1666 
Q 2778 2153 2545 2415 
Q 2313 2678 1969 2678 
Q 1625 2678 1390 2415 
Q 1156 2153 1156 1659 
z
" transform="scale(0.015625)"/>
      <path id="Arial-BoldMT-6d" d="M 394 3319 
L 1203 3319 
L 1203 2866 
Q 1638 3394 2238 3394 
Q 2556 3394 2790 3262 
Q 3025 3131 3175 2866 
Q 3394 3131 3647 3262 
Q 3900 3394 4188 3394 
Q 4553 3394 4806 3245 
Q 5059 3097 5184 2809 
Q 5275 2597 5275 2122 
L 5275 0 
L 4397 0 
L 4397 1897 
Q 4397 2391 4306 2534 
Q 4184 2722 3931 2722 
Q 3747 2722 3584 2609 
Q 3422 2497 3350 2280 
Q 3278 2063 3278 1594 
L 3278 0 
L 2400 0 
L 2400 1819 
Q 2400 2303 2353 2443 
Q 2306 2584 2207 2653 
Q 2109 2722 1941 2722 
Q 1738 2722 1575 2612 
Q 1413 2503 1342 2297 
Q 1272 2091 1272 1613 
L 1272 0 
L 394 0 
L 394 3319 
z
" transform="scale(0.015625)"/>
      <path id="Arial-BoldMT-69" d="M 459 3769 
L 459 4581 
L 1338 4581 
L 1338 3769 
L 459 3769 
z
M 459 0 
L 459 3319 
L 1338 3319 
L 1338 0 
L 459 0 
z
" transform="scale(0.015625)"/>
      <path id="Arial-BoldMT-64" d="M 3503 0 
L 2688 0 
L 2688 488 
Q 2484 203 2207 64 
Q 1931 -75 1650 -75 
Q 1078 -75 670 386 
Q 263 847 263 1672 
Q 263 2516 659 2955 
Q 1056 3394 1663 3394 
Q 2219 3394 2625 2931 
L 2625 4581 
L 3503 4581 
L 3503 0 
z
M 1159 1731 
Q 1159 1200 1306 963 
Q 1519 619 1900 619 
Q 2203 619 2415 876 
Q 2628 1134 2628 1647 
Q 2628 2219 2422 2470 
Q 2216 2722 1894 2722 
Q 1581 2722 1370 2473 
Q 1159 2225 1159 1731 
z
" transform="scale(0.015625)"/>
      <path id="Arial-BoldMT-6c" d="M 459 0 
L 459 4581 
L 1338 4581 
L 1338 0 
L 459 0 
z
" transform="scale(0.015625)"/>
      <path id="Arial-BoldMT-43" d="M 3397 1684 
L 4294 1400 
Q 4088 650 3608 286 
Q 3128 -78 2391 -78 
Q 1478 -78 890 545 
Q 303 1169 303 2250 
Q 303 3394 893 4026 
Q 1484 4659 2447 4659 
Q 3288 4659 3813 4163 
Q 4125 3869 4281 3319 
L 3366 3100 
Q 3284 3456 3026 3662 
Q 2769 3869 2400 3869 
Q 1891 3869 1573 3503 
Q 1256 3138 1256 2319 
Q 1256 1450 1568 1081 
Q 1881 713 2381 713 
Q 2750 713 3015 947 
Q 3281 1181 3397 1684 
z
" transform="scale(0.015625)"/>
      <path id="Arial-BoldMT-72" d="M 1300 0 
L 422 0 
L 422 3319 
L 1238 3319 
L 1238 2847 
Q 1447 3181 1614 3287 
Q 1781 3394 1994 3394 
Q 2294 3394 2572 3228 
L 2300 2463 
Q 2078 2606 1888 2606 
Q 1703 2606 1575 2504 
Q 1447 2403 1373 2137 
Q 1300 1872 1300 1025 
L 1300 0 
z
" transform="scale(0.015625)"/>
      <path id="Arial-BoldMT-73" d="M 150 947 
L 1031 1081 
Q 1088 825 1259 692 
Q 1431 559 1741 559 
Q 2081 559 2253 684 
Q 2369 772 2369 919 
Q 2369 1019 2306 1084 
Q 2241 1147 2013 1200 
Q 950 1434 666 1628 
Q 272 1897 272 2375 
Q 272 2806 612 3100 
Q 953 3394 1669 3394 
Q 2350 3394 2681 3172 
Q 3013 2950 3138 2516 
L 2309 2363 
Q 2256 2556 2107 2659 
Q 1959 2763 1684 2763 
Q 1338 2763 1188 2666 
Q 1088 2597 1088 2488 
Q 1088 2394 1175 2328 
Q 1294 2241 1995 2081 
Q 2697 1922 2975 1691 
Q 3250 1456 3250 1038 
Q 3250 581 2869 253 
Q 2488 -75 1741 -75 
Q 1063 -75 667 200 
Q 272 475 150 947 
z
" transform="scale(0.015625)"/>
     </defs>
     <use xlink:href="#Arial-BoldMT-4f"/>
     <use xlink:href="#Arial-BoldMT-70" x="77.783203"/>
     <use xlink:href="#Arial-BoldMT-65" x="138.867188"/>
     <use xlink:href="#Arial-BoldMT-6e" x="194.482422"/>
     <use xlink:href="#Arial-BoldMT-2d" x="255.566406"/>
     <use xlink:href="#Arial-BoldMT-53" x="288.867188"/>
     <use xlink:href="#Arial-BoldMT-65" x="355.566406"/>
     <use xlink:href="#Arial-BoldMT-74" x="411.181641"/>
     <use xlink:href="#Arial-BoldMT-20" x="444.482422"/>
     <use xlink:href="#Arial-BoldMT-44" x="472.265625"/>
     <use xlink:href="#Arial-BoldMT-6f" x="544.482422"/>
     <use xlink:href="#Arial-BoldMT-6d" x="605.566406"/>
     <use xlink:href="#Arial-BoldMT-61" x="694.482422"/>
     <use xlink:href="#Arial-BoldMT-69" x="750.097656"/>
     <use xlink:href="#Arial-BoldMT-6e" x="777.880859"/>
     <use xlink:href="#Arial-BoldMT-20" x="838.964844"/>
     <use xlink:href="#Arial-BoldMT-41" x="862.998047"/>
     <use xlink:href="#Arial-BoldMT-64" x="935.214844"/>
     <use xlink:href="#Arial-BoldMT-61" x="996.298828"/>
     <use xlink:href="#Arial-BoldMT-70" x="1051.914062"/>
     <use xlink:href="#Arial-BoldMT-74" x="1112.998047"/>
     <use xlink:href="#Arial-BoldMT-61" x="1146.298828"/>
     <use xlink:href="#Arial-BoldMT-74" x="1201.914062"/>
     <use xlink:href="#Arial-BoldMT-69" x="1235.214844"/>
     <use xlink:href="#Arial-BoldMT-6f" x="1262.998047"/>
     <use xlink:href="#Arial-BoldMT-6e" x="1324.082031"/>
     <use xlink:href="#Arial-BoldMT-20" x="1385.166016"/>
     <use xlink:href="#Arial-BoldMT-50" x="1412.949219"/>
     <use xlink:href="#Arial-BoldMT-69" x="1479.648438"/>
     <use xlink:href="#Arial-BoldMT-70" x="1507.431641"/>
     <use xlink:href="#Arial-BoldMT-65" x="1568.515625"/>
     <use xlink:href="#Arial-BoldMT-6c" x="1624.130859"/>
     <use xlink:href="#Arial-BoldMT-69" x="1651.914062"/>
     <use xlink:href="#Arial-BoldMT-6e" x="1679.697266"/>
     <use xlink:href="#Arial-BoldMT-65" x="1740.78125"/>
     <use xlink:href="#Arial-BoldMT-20" x="1796.396484"/>
     <use xlink:href="#Arial-BoldMT-43" x="1824.179688"/>
     <use xlink:href="#Arial-BoldMT-6f" x="1896.396484"/>
     <use xlink:href="#Arial-BoldMT-6d" x="1957.480469"/>
     <use xlink:href="#Arial-BoldMT-70" x="2046.396484"/>
     <use xlink:href="#Arial-BoldMT-61" x="2107.480469"/>
     <use xlink:href="#Arial-BoldMT-72" x="2163.095703"/>
     <use xlink:href="#Arial-BoldMT-69" x="2202.011719"/>
     <use xlink:href="#Arial-BoldMT-73" x="2229.794922"/>
     <use xlink:href="#Arial-BoldMT-6f" x="2285.410156"/>
     <use xlink:href="#Arial-BoldMT-6e" x="2346.494141"/>
    </g>
   </g>
  </g>
 </g>
 <defs>
  <clipPath id="p55628766d0">
   <rect x="7.2" y="7.2" width="697.239" height="326.4"/>
  </clipPath>
 </defs>
</svg>
