<svg xmlns="http://www.w3.org/2000/svg" width="1800" height="420" viewBox="0 0 1800 420">
<rect width="100%" height="100%" fill="#ffffff"/>
<text x="900" y="58" text-anchor="middle" font-size="44" font-weight="700" fill="#111827" font-family="Arial, Helvetica, sans-serif">Ablation Ladder Schematic</text>
<rect x="70" y="120" width="280" height="150" rx="22" ry="22" fill="#e5e7eb" stroke="#1f2937" stroke-width="3"/>
<text x="210.0" y="205.0" text-anchor="middle" font-size="34" font-weight="700" fill="#111827" font-family="Arial, Helvetica, sans-serif">Zhao baseline</text>
<line x1="360" y1="195.0" x2="385" y2="195.0" stroke="#374151" stroke-width="4"/>
<polygon points="385,195.0 365,185.0 365,205.0" fill="#374151"/>
<rect x="395" y="120" width="280" height="150" rx="22" ry="22" fill="#dbeafe" stroke="#1f2937" stroke-width="3"/>
<text x="535.0" y="205.0" text-anchor="middle" font-size="34" font-weight="700" fill="#111827" font-family="Arial, Helvetica, sans-serif">+ OpenMax</text>
<line x1="685" y1="195.0" x2="710" y2="195.0" stroke="#374151" stroke-width="4"/>
<polygon points="710,195.0 690,185.0 690,205.0" fill="#374151"/>
<rect x="720" y="120" width="280" height="150" rx="22" ry="22" fill="#bfdbfe" stroke="#1f2937" stroke-width="3"/>
<text x="860.0" y="205.0" text-anchor="middle" font-size="34" font-weight="700" fill="#111827" font-family="Arial, Helvetica, sans-serif">+ SNGP</text>
<line x1="1010" y1="195.0" x2="1035" y2="195.0" stroke="#374151" stroke-width="4"/>
<polygon points="1035,195.0 1015,185.0 1015,205.0" fill="#374151"/>
<rect x="1045" y="120" width="280" height="150" rx="22" ry="22" fill="#93c5fd" stroke="#1f2937" stroke-width="3"/>
<text x="1185.0" y="205.0" text-anchor="middle" font-size="34" font-weight="700" fill="#111827" font-family="Arial, Helvetica, sans-serif">+ SA</text>
<line x1="1335" y1="195.0" x2="1360" y2="195.0" stroke="#374151" stroke-width="4"/>
<polygon points="1360,195.0 1340,185.0 1340,205.0" fill="#374151"/>
<rect x="1370" y="120" width="280" height="150" rx="22" ry="22" fill="#60a5fa" stroke="#1f2937" stroke-width="3"/>
<text x="1510.0" y="185.0" text-anchor="middle" font-size="32" font-weight="700" fill="#111827" font-family="Arial, Helvetica, sans-serif">LLM-selected</text>
<text x="1510.0" y="229.0" text-anchor="middle" font-size="32" font-weight="700" fill="#111827" font-family="Arial, Helvetica, sans-serif">composition</text>
<text x="900" y="350" text-anchor="middle" font-size="26" fill="#374151" font-family="Arial, Helvetica, sans-serif">Incremental additions from baseline to final LLM-selected composition.</text>
</svg>